<?xml version="1.0" encoding="utf-8" standalone="no"?>
<!DOCTYPE svg PUBLIC "-//W3C//DTD SVG 1.1//EN"
  "http://www.w3.org/Graphics/SVG/1.1/DTD/svg11.dtd">
<svg xmlns:xlink="http://www.w3.org/1999/xlink" width="864pt" height="360pt" viewBox="0 0 864 360" xmlns="http://www.w3.org/2000/svg" version="1.1">
 <metadata>
  <rdf:RDF xmlns:dc="http://purl.org/dc/elements/1.1/" xmlns:cc="http://creativecommons.org/ns#" xmlns:rdf="http://www.w3.org/1999/02/22-rdf-syntax-ns#">
   <cc:Work>
    <dc:type rdf:resource="http://purl.org/dc/dcmitype/StillImage"/>
    <dc:date>2025-03-18T16:18:47.397414</dc:date>
    <dc:format>image/svg+xml</dc:format>
    <dc:creator>
     <cc:Agent>
      <dc:title>Matplotlib v3.10.0, https://matplotlib.org/</dc:title>
     </cc:Agent>
    </dc:creator>
   </cc:Work>
  </rdf:RDF>
 </metadata>
 <defs>
  <style type="text/css">*{stroke-linejoin: round; stroke-linecap: butt}</style>
 </defs>
 <g id="figure_1">
  <g id="patch_1">
   <path d="M 0 360 
L 864 360 
L 864 0 
L 0 0 
z
" style="fill: #ffffff"/>
  </g>
  <g id="axes_1">
   <g id="patch_2">
    <path d="M 108 320.4 
L 412.363636 320.4 
L 412.363636 43.2 
L 108 43.2 
z
" style="fill: #ffffff"/>
   </g>
   <g id="patch_3">
    <path d="M 187.694987 320.4 
L 191.819597 320.4 
L 191.819597 294 
L 187.694987 294 
z
" clip-path="url(#pcfe0d4f610)" style="fill: #1f77b4"/>
   </g>
   <g id="patch_4">
    <path d="M 191.819597 320.4 
L 195.944207 320.4 
L 195.944207 320.4 
L 191.819597 320.4 
z
" clip-path="url(#pcfe0d4f610)" style="fill: #1f77b4"/>
   </g>
   <g id="patch_5">
    <path d="M 195.944207 320.4 
L 200.068816 320.4 
L 200.068816 320.4 
L 195.944207 320.4 
z
" clip-path="url(#pcfe0d4f610)" style="fill: #1f77b4"/>
   </g>
   <g id="patch_6">
    <path d="M 200.068816 320.4 
L 204.193426 320.4 
L 204.193426 320.4 
L 200.068816 320.4 
z
" clip-path="url(#pcfe0d4f610)" style="fill: #1f77b4"/>
   </g>
   <g id="patch_7">
    <path d="M 204.193426 320.4 
L 208.318036 320.4 
L 208.318036 241.2 
L 204.193426 241.2 
z
" clip-path="url(#pcfe0d4f610)" style="fill: #1f77b4"/>
   </g>
   <g id="patch_8">
    <path d="M 208.318036 320.4 
L 212.442646 320.4 
L 212.442646 294 
L 208.318036 294 
z
" clip-path="url(#pcfe0d4f610)" style="fill: #1f77b4"/>
   </g>
   <g id="patch_9">
    <path d="M 212.442646 320.4 
L 216.567256 320.4 
L 216.567256 294 
L 212.442646 294 
z
" clip-path="url(#pcfe0d4f610)" style="fill: #1f77b4"/>
   </g>
   <g id="patch_10">
    <path d="M 216.567256 320.4 
L 220.691866 320.4 
L 220.691866 267.6 
L 216.567256 267.6 
z
" clip-path="url(#pcfe0d4f610)" style="fill: #1f77b4"/>
   </g>
   <g id="patch_11">
    <path d="M 220.691866 320.4 
L 224.816476 320.4 
L 224.816476 241.2 
L 220.691866 241.2 
z
" clip-path="url(#pcfe0d4f610)" style="fill: #1f77b4"/>
   </g>
   <g id="patch_12">
    <path d="M 224.816476 320.4 
L 228.941086 320.4 
L 228.941086 241.2 
L 224.816476 241.2 
z
" clip-path="url(#pcfe0d4f610)" style="fill: #1f77b4"/>
   </g>
   <g id="patch_13">
    <path d="M 228.941086 320.4 
L 233.065696 320.4 
L 233.065696 241.2 
L 228.941086 241.2 
z
" clip-path="url(#pcfe0d4f610)" style="fill: #1f77b4"/>
   </g>
   <g id="patch_14">
    <path d="M 233.065696 320.4 
L 237.190306 320.4 
L 237.190306 267.6 
L 233.065696 267.6 
z
" clip-path="url(#pcfe0d4f610)" style="fill: #1f77b4"/>
   </g>
   <g id="patch_15">
    <path d="M 237.190306 320.4 
L 241.314916 320.4 
L 241.314916 241.2 
L 237.190306 241.2 
z
" clip-path="url(#pcfe0d4f610)" style="fill: #1f77b4"/>
   </g>
   <g id="patch_16">
    <path d="M 241.314916 320.4 
L 245.439525 320.4 
L 245.439525 162 
L 241.314916 162 
z
" clip-path="url(#pcfe0d4f610)" style="fill: #1f77b4"/>
   </g>
   <g id="patch_17">
    <path d="M 245.439525 320.4 
L 249.564135 320.4 
L 249.564135 56.4 
L 245.439525 56.4 
z
" clip-path="url(#pcfe0d4f610)" style="fill: #1f77b4"/>
   </g>
   <g id="patch_18">
    <path d="M 249.564135 320.4 
L 253.688745 320.4 
L 253.688745 188.4 
L 249.564135 188.4 
z
" clip-path="url(#pcfe0d4f610)" style="fill: #1f77b4"/>
   </g>
   <g id="patch_19">
    <path d="M 253.688745 320.4 
L 257.813355 320.4 
L 257.813355 109.2 
L 253.688745 109.2 
z
" clip-path="url(#pcfe0d4f610)" style="fill: #1f77b4"/>
   </g>
   <g id="patch_20">
    <path d="M 257.813355 320.4 
L 261.937965 320.4 
L 261.937965 214.8 
L 257.813355 214.8 
z
" clip-path="url(#pcfe0d4f610)" style="fill: #1f77b4"/>
   </g>
   <g id="patch_21">
    <path d="M 261.937965 320.4 
L 266.062575 320.4 
L 266.062575 109.2 
L 261.937965 109.2 
z
" clip-path="url(#pcfe0d4f610)" style="fill: #1f77b4"/>
   </g>
   <g id="patch_22">
    <path d="M 266.062575 320.4 
L 270.187185 320.4 
L 270.187185 56.4 
L 266.062575 56.4 
z
" clip-path="url(#pcfe0d4f610)" style="fill: #1f77b4"/>
   </g>
   <g id="patch_23">
    <path d="M 270.187185 320.4 
L 274.311795 320.4 
L 274.311795 241.2 
L 270.187185 241.2 
z
" clip-path="url(#pcfe0d4f610)" style="fill: #1f77b4"/>
   </g>
   <g id="patch_24">
    <path d="M 274.311795 320.4 
L 278.436405 320.4 
L 278.436405 214.8 
L 274.311795 214.8 
z
" clip-path="url(#pcfe0d4f610)" style="fill: #1f77b4"/>
   </g>
   <g id="patch_25">
    <path d="M 278.436405 320.4 
L 282.561015 320.4 
L 282.561015 267.6 
L 278.436405 267.6 
z
" clip-path="url(#pcfe0d4f610)" style="fill: #1f77b4"/>
   </g>
   <g id="patch_26">
    <path d="M 282.561015 320.4 
L 286.685625 320.4 
L 286.685625 188.4 
L 282.561015 188.4 
z
" clip-path="url(#pcfe0d4f610)" style="fill: #1f77b4"/>
   </g>
   <g id="patch_27">
    <path d="M 286.685625 320.4 
L 290.810234 320.4 
L 290.810234 188.4 
L 286.685625 188.4 
z
" clip-path="url(#pcfe0d4f610)" style="fill: #1f77b4"/>
   </g>
   <g id="patch_28">
    <path d="M 290.810234 320.4 
L 294.934844 320.4 
L 294.934844 320.4 
L 290.810234 320.4 
z
" clip-path="url(#pcfe0d4f610)" style="fill: #1f77b4"/>
   </g>
   <g id="patch_29">
    <path d="M 294.934844 320.4 
L 299.059454 320.4 
L 299.059454 294 
L 294.934844 294 
z
" clip-path="url(#pcfe0d4f610)" style="fill: #1f77b4"/>
   </g>
   <g id="patch_30">
    <path d="M 299.059454 320.4 
L 303.184064 320.4 
L 303.184064 214.8 
L 299.059454 214.8 
z
" clip-path="url(#pcfe0d4f610)" style="fill: #1f77b4"/>
   </g>
   <g id="patch_31">
    <path d="M 303.184064 320.4 
L 307.308674 320.4 
L 307.308674 267.6 
L 303.184064 267.6 
z
" clip-path="url(#pcfe0d4f610)" style="fill: #1f77b4"/>
   </g>
   <g id="patch_32">
    <path d="M 307.308674 320.4 
L 311.433284 320.4 
L 311.433284 294 
L 307.308674 294 
z
" clip-path="url(#pcfe0d4f610)" style="fill: #1f77b4"/>
   </g>
   <g id="matplotlib.axis_1">
    <g id="xtick_1">
     <g id="line2d_1">
      <defs>
       <path id="m32f7187b7e" d="M 0 0 
L 0 3.5 
" style="stroke: #000000; stroke-width: 0.8"/>
      </defs>
      <g>
       <use xlink:href="#m32f7187b7e" x="149.504132" y="320.4" style="stroke: #000000; stroke-width: 0.8"/>
      </g>
     </g>
     <g id="text_1">
      <!-- −0.4 -->
      <g transform="translate(137.362726 334.998438) scale(0.1 -0.1)">
       <defs>
        <path id="DejaVuSans-2212" d="M 678 2272 
L 4684 2272 
L 4684 1741 
L 678 1741 
L 678 2272 
z
" transform="scale(0.015625)"/>
        <path id="DejaVuSans-30" d="M 2034 4250 
Q 1547 4250 1301 3770 
Q 1056 3291 1056 2328 
Q 1056 1369 1301 889 
Q 1547 409 2034 409 
Q 2525 409 2770 889 
Q 3016 1369 3016 2328 
Q 3016 3291 2770 3770 
Q 2525 4250 2034 4250 
z
M 2034 4750 
Q 2819 4750 3233 4129 
Q 3647 3509 3647 2328 
Q 3647 1150 3233 529 
Q 2819 -91 2034 -91 
Q 1250 -91 836 529 
Q 422 1150 422 2328 
Q 422 3509 836 4129 
Q 1250 4750 2034 4750 
z
" transform="scale(0.015625)"/>
        <path id="DejaVuSans-2e" d="M 684 794 
L 1344 794 
L 1344 0 
L 684 0 
L 684 794 
z
" transform="scale(0.015625)"/>
        <path id="DejaVuSans-34" d="M 2419 4116 
L 825 1625 
L 2419 1625 
L 2419 4116 
z
M 2253 4666 
L 3047 4666 
L 3047 1625 
L 3713 1625 
L 3713 1100 
L 3047 1100 
L 3047 0 
L 2419 0 
L 2419 1100 
L 313 1100 
L 313 1709 
L 2253 4666 
z
" transform="scale(0.015625)"/>
       </defs>
       <use xlink:href="#DejaVuSans-2212"/>
       <use xlink:href="#DejaVuSans-30" transform="translate(83.789062 0)"/>
       <use xlink:href="#DejaVuSans-2e" transform="translate(147.412109 0)"/>
       <use xlink:href="#DejaVuSans-34" transform="translate(179.199219 0)"/>
      </g>
     </g>
    </g>
    <g id="xtick_2">
     <g id="line2d_2">
      <g>
       <use xlink:href="#m32f7187b7e" x="204.842975" y="320.4" style="stroke: #000000; stroke-width: 0.8"/>
      </g>
     </g>
     <g id="text_2">
      <!-- −0.2 -->
      <g transform="translate(192.701569 334.998438) scale(0.1 -0.1)">
       <defs>
        <path id="DejaVuSans-32" d="M 1228 531 
L 3431 531 
L 3431 0 
L 469 0 
L 469 531 
Q 828 903 1448 1529 
Q 2069 2156 2228 2338 
Q 2531 2678 2651 2914 
Q 2772 3150 2772 3378 
Q 2772 3750 2511 3984 
Q 2250 4219 1831 4219 
Q 1534 4219 1204 4116 
Q 875 4013 500 3803 
L 500 4441 
Q 881 4594 1212 4672 
Q 1544 4750 1819 4750 
Q 2544 4750 2975 4387 
Q 3406 4025 3406 3419 
Q 3406 3131 3298 2873 
Q 3191 2616 2906 2266 
Q 2828 2175 2409 1742 
Q 1991 1309 1228 531 
z
" transform="scale(0.015625)"/>
       </defs>
       <use xlink:href="#DejaVuSans-2212"/>
       <use xlink:href="#DejaVuSans-30" transform="translate(83.789062 0)"/>
       <use xlink:href="#DejaVuSans-2e" transform="translate(147.412109 0)"/>
       <use xlink:href="#DejaVuSans-32" transform="translate(179.199219 0)"/>
      </g>
     </g>
    </g>
    <g id="xtick_3">
     <g id="line2d_3">
      <g>
       <use xlink:href="#m32f7187b7e" x="260.181818" y="320.4" style="stroke: #000000; stroke-width: 0.8"/>
      </g>
     </g>
     <g id="text_3">
      <!-- 0.0 -->
      <g transform="translate(252.230256 334.998438) scale(0.1 -0.1)">
       <use xlink:href="#DejaVuSans-30"/>
       <use xlink:href="#DejaVuSans-2e" transform="translate(63.623047 0)"/>
       <use xlink:href="#DejaVuSans-30" transform="translate(95.410156 0)"/>
      </g>
     </g>
    </g>
    <g id="xtick_4">
     <g id="line2d_4">
      <g>
       <use xlink:href="#m32f7187b7e" x="315.520661" y="320.4" style="stroke: #000000; stroke-width: 0.8"/>
      </g>
     </g>
     <g id="text_4">
      <!-- 0.2 -->
      <g transform="translate(307.569099 334.998438) scale(0.1 -0.1)">
       <use xlink:href="#DejaVuSans-30"/>
       <use xlink:href="#DejaVuSans-2e" transform="translate(63.623047 0)"/>
       <use xlink:href="#DejaVuSans-32" transform="translate(95.410156 0)"/>
      </g>
     </g>
    </g>
    <g id="xtick_5">
     <g id="line2d_5">
      <g>
       <use xlink:href="#m32f7187b7e" x="370.859504" y="320.4" style="stroke: #000000; stroke-width: 0.8"/>
      </g>
     </g>
     <g id="text_5">
      <!-- 0.4 -->
      <g transform="translate(362.907942 334.998438) scale(0.1 -0.1)">
       <use xlink:href="#DejaVuSans-30"/>
       <use xlink:href="#DejaVuSans-2e" transform="translate(63.623047 0)"/>
       <use xlink:href="#DejaVuSans-34" transform="translate(95.410156 0)"/>
      </g>
     </g>
    </g>
    <g id="text_6">
     <!-- Value -->
     <g transform="translate(246.450568 348.676562) scale(0.1 -0.1)">
      <defs>
       <path id="DejaVuSans-56" d="M 1831 0 
L 50 4666 
L 709 4666 
L 2188 738 
L 3669 4666 
L 4325 4666 
L 2547 0 
L 1831 0 
z
" transform="scale(0.015625)"/>
       <path id="DejaVuSans-61" d="M 2194 1759 
Q 1497 1759 1228 1600 
Q 959 1441 959 1056 
Q 959 750 1161 570 
Q 1363 391 1709 391 
Q 2188 391 2477 730 
Q 2766 1069 2766 1631 
L 2766 1759 
L 2194 1759 
z
M 3341 1997 
L 3341 0 
L 2766 0 
L 2766 531 
Q 2569 213 2275 61 
Q 1981 -91 1556 -91 
Q 1019 -91 701 211 
Q 384 513 384 1019 
Q 384 1609 779 1909 
Q 1175 2209 1959 2209 
L 2766 2209 
L 2766 2266 
Q 2766 2663 2505 2880 
Q 2244 3097 1772 3097 
Q 1472 3097 1187 3025 
Q 903 2953 641 2809 
L 641 3341 
Q 956 3463 1253 3523 
Q 1550 3584 1831 3584 
Q 2591 3584 2966 3190 
Q 3341 2797 3341 1997 
z
" transform="scale(0.015625)"/>
       <path id="DejaVuSans-6c" d="M 603 4863 
L 1178 4863 
L 1178 0 
L 603 0 
L 603 4863 
z
" transform="scale(0.015625)"/>
       <path id="DejaVuSans-75" d="M 544 1381 
L 544 3500 
L 1119 3500 
L 1119 1403 
Q 1119 906 1312 657 
Q 1506 409 1894 409 
Q 2359 409 2629 706 
Q 2900 1003 2900 1516 
L 2900 3500 
L 3475 3500 
L 3475 0 
L 2900 0 
L 2900 538 
Q 2691 219 2414 64 
Q 2138 -91 1772 -91 
Q 1169 -91 856 284 
Q 544 659 544 1381 
z
M 1991 3584 
L 1991 3584 
z
" transform="scale(0.015625)"/>
       <path id="DejaVuSans-65" d="M 3597 1894 
L 3597 1613 
L 953 1613 
Q 991 1019 1311 708 
Q 1631 397 2203 397 
Q 2534 397 2845 478 
Q 3156 559 3463 722 
L 3463 178 
Q 3153 47 2828 -22 
Q 2503 -91 2169 -91 
Q 1331 -91 842 396 
Q 353 884 353 1716 
Q 353 2575 817 3079 
Q 1281 3584 2069 3584 
Q 2775 3584 3186 3129 
Q 3597 2675 3597 1894 
z
M 3022 2063 
Q 3016 2534 2758 2815 
Q 2500 3097 2075 3097 
Q 1594 3097 1305 2825 
Q 1016 2553 972 2059 
L 3022 2063 
z
" transform="scale(0.015625)"/>
      </defs>
      <use xlink:href="#DejaVuSans-56"/>
      <use xlink:href="#DejaVuSans-61" transform="translate(60.658203 0)"/>
      <use xlink:href="#DejaVuSans-6c" transform="translate(121.9375 0)"/>
      <use xlink:href="#DejaVuSans-75" transform="translate(149.720703 0)"/>
      <use xlink:href="#DejaVuSans-65" transform="translate(213.099609 0)"/>
     </g>
    </g>
   </g>
   <g id="matplotlib.axis_2">
    <g id="ytick_1">
     <g id="line2d_6">
      <defs>
       <path id="m0c1799297c" d="M 0 0 
L -3.5 0 
" style="stroke: #000000; stroke-width: 0.8"/>
      </defs>
      <g>
       <use xlink:href="#m0c1799297c" x="108" y="320.4" style="stroke: #000000; stroke-width: 0.8"/>
      </g>
     </g>
     <g id="text_7">
      <!-- 0 -->
      <g transform="translate(94.6375 324.199219) scale(0.1 -0.1)">
       <use xlink:href="#DejaVuSans-30"/>
      </g>
     </g>
    </g>
    <g id="ytick_2">
     <g id="line2d_7">
      <g>
       <use xlink:href="#m0c1799297c" x="108" y="267.6" style="stroke: #000000; stroke-width: 0.8"/>
      </g>
     </g>
     <g id="text_8">
      <!-- 2 -->
      <g transform="translate(94.6375 271.399219) scale(0.1 -0.1)">
       <use xlink:href="#DejaVuSans-32"/>
      </g>
     </g>
    </g>
    <g id="ytick_3">
     <g id="line2d_8">
      <g>
       <use xlink:href="#m0c1799297c" x="108" y="214.8" style="stroke: #000000; stroke-width: 0.8"/>
      </g>
     </g>
     <g id="text_9">
      <!-- 4 -->
      <g transform="translate(94.6375 218.599219) scale(0.1 -0.1)">
       <use xlink:href="#DejaVuSans-34"/>
      </g>
     </g>
    </g>
    <g id="ytick_4">
     <g id="line2d_9">
      <g>
       <use xlink:href="#m0c1799297c" x="108" y="162" style="stroke: #000000; stroke-width: 0.8"/>
      </g>
     </g>
     <g id="text_10">
      <!-- 6 -->
      <g transform="translate(94.6375 165.799219) scale(0.1 -0.1)">
       <defs>
        <path id="DejaVuSans-36" d="M 2113 2584 
Q 1688 2584 1439 2293 
Q 1191 2003 1191 1497 
Q 1191 994 1439 701 
Q 1688 409 2113 409 
Q 2538 409 2786 701 
Q 3034 994 3034 1497 
Q 3034 2003 2786 2293 
Q 2538 2584 2113 2584 
z
M 3366 4563 
L 3366 3988 
Q 3128 4100 2886 4159 
Q 2644 4219 2406 4219 
Q 1781 4219 1451 3797 
Q 1122 3375 1075 2522 
Q 1259 2794 1537 2939 
Q 1816 3084 2150 3084 
Q 2853 3084 3261 2657 
Q 3669 2231 3669 1497 
Q 3669 778 3244 343 
Q 2819 -91 2113 -91 
Q 1303 -91 875 529 
Q 447 1150 447 2328 
Q 447 3434 972 4092 
Q 1497 4750 2381 4750 
Q 2619 4750 2861 4703 
Q 3103 4656 3366 4563 
z
" transform="scale(0.015625)"/>
       </defs>
       <use xlink:href="#DejaVuSans-36"/>
      </g>
     </g>
    </g>
    <g id="ytick_5">
     <g id="line2d_10">
      <g>
       <use xlink:href="#m0c1799297c" x="108" y="109.2" style="stroke: #000000; stroke-width: 0.8"/>
      </g>
     </g>
     <g id="text_11">
      <!-- 8 -->
      <g transform="translate(94.6375 112.999219) scale(0.1 -0.1)">
       <defs>
        <path id="DejaVuSans-38" d="M 2034 2216 
Q 1584 2216 1326 1975 
Q 1069 1734 1069 1313 
Q 1069 891 1326 650 
Q 1584 409 2034 409 
Q 2484 409 2743 651 
Q 3003 894 3003 1313 
Q 3003 1734 2745 1975 
Q 2488 2216 2034 2216 
z
M 1403 2484 
Q 997 2584 770 2862 
Q 544 3141 544 3541 
Q 544 4100 942 4425 
Q 1341 4750 2034 4750 
Q 2731 4750 3128 4425 
Q 3525 4100 3525 3541 
Q 3525 3141 3298 2862 
Q 3072 2584 2669 2484 
Q 3125 2378 3379 2068 
Q 3634 1759 3634 1313 
Q 3634 634 3220 271 
Q 2806 -91 2034 -91 
Q 1263 -91 848 271 
Q 434 634 434 1313 
Q 434 1759 690 2068 
Q 947 2378 1403 2484 
z
M 1172 3481 
Q 1172 3119 1398 2916 
Q 1625 2713 2034 2713 
Q 2441 2713 2670 2916 
Q 2900 3119 2900 3481 
Q 2900 3844 2670 4047 
Q 2441 4250 2034 4250 
Q 1625 4250 1398 4047 
Q 1172 3844 1172 3481 
z
" transform="scale(0.015625)"/>
       </defs>
       <use xlink:href="#DejaVuSans-38"/>
      </g>
     </g>
    </g>
    <g id="ytick_6">
     <g id="line2d_11">
      <g>
       <use xlink:href="#m0c1799297c" x="108" y="56.4" style="stroke: #000000; stroke-width: 0.8"/>
      </g>
     </g>
     <g id="text_12">
      <!-- 10 -->
      <g transform="translate(88.275 60.199219) scale(0.1 -0.1)">
       <defs>
        <path id="DejaVuSans-31" d="M 794 531 
L 1825 531 
L 1825 4091 
L 703 3866 
L 703 4441 
L 1819 4666 
L 2450 4666 
L 2450 531 
L 3481 531 
L 3481 0 
L 794 0 
L 794 531 
z
" transform="scale(0.015625)"/>
       </defs>
       <use xlink:href="#DejaVuSans-31"/>
       <use xlink:href="#DejaVuSans-30" transform="translate(63.623047 0)"/>
      </g>
     </g>
    </g>
    <g id="text_13">
     <!-- Frequency -->
     <g transform="translate(82.195312 207.629687) rotate(-90) scale(0.1 -0.1)">
      <defs>
       <path id="DejaVuSans-46" d="M 628 4666 
L 3309 4666 
L 3309 4134 
L 1259 4134 
L 1259 2759 
L 3109 2759 
L 3109 2228 
L 1259 2228 
L 1259 0 
L 628 0 
L 628 4666 
z
" transform="scale(0.015625)"/>
       <path id="DejaVuSans-72" d="M 2631 2963 
Q 2534 3019 2420 3045 
Q 2306 3072 2169 3072 
Q 1681 3072 1420 2755 
Q 1159 2438 1159 1844 
L 1159 0 
L 581 0 
L 581 3500 
L 1159 3500 
L 1159 2956 
Q 1341 3275 1631 3429 
Q 1922 3584 2338 3584 
Q 2397 3584 2469 3576 
Q 2541 3569 2628 3553 
L 2631 2963 
z
" transform="scale(0.015625)"/>
       <path id="DejaVuSans-71" d="M 947 1747 
Q 947 1113 1208 752 
Q 1469 391 1925 391 
Q 2381 391 2643 752 
Q 2906 1113 2906 1747 
Q 2906 2381 2643 2742 
Q 2381 3103 1925 3103 
Q 1469 3103 1208 2742 
Q 947 2381 947 1747 
z
M 2906 525 
Q 2725 213 2448 61 
Q 2172 -91 1784 -91 
Q 1150 -91 751 415 
Q 353 922 353 1747 
Q 353 2572 751 3078 
Q 1150 3584 1784 3584 
Q 2172 3584 2448 3432 
Q 2725 3281 2906 2969 
L 2906 3500 
L 3481 3500 
L 3481 -1331 
L 2906 -1331 
L 2906 525 
z
" transform="scale(0.015625)"/>
       <path id="DejaVuSans-6e" d="M 3513 2113 
L 3513 0 
L 2938 0 
L 2938 2094 
Q 2938 2591 2744 2837 
Q 2550 3084 2163 3084 
Q 1697 3084 1428 2787 
Q 1159 2491 1159 1978 
L 1159 0 
L 581 0 
L 581 3500 
L 1159 3500 
L 1159 2956 
Q 1366 3272 1645 3428 
Q 1925 3584 2291 3584 
Q 2894 3584 3203 3211 
Q 3513 2838 3513 2113 
z
" transform="scale(0.015625)"/>
       <path id="DejaVuSans-63" d="M 3122 3366 
L 3122 2828 
Q 2878 2963 2633 3030 
Q 2388 3097 2138 3097 
Q 1578 3097 1268 2742 
Q 959 2388 959 1747 
Q 959 1106 1268 751 
Q 1578 397 2138 397 
Q 2388 397 2633 464 
Q 2878 531 3122 666 
L 3122 134 
Q 2881 22 2623 -34 
Q 2366 -91 2075 -91 
Q 1284 -91 818 406 
Q 353 903 353 1747 
Q 353 2603 823 3093 
Q 1294 3584 2113 3584 
Q 2378 3584 2631 3529 
Q 2884 3475 3122 3366 
z
" transform="scale(0.015625)"/>
       <path id="DejaVuSans-79" d="M 2059 -325 
Q 1816 -950 1584 -1140 
Q 1353 -1331 966 -1331 
L 506 -1331 
L 506 -850 
L 844 -850 
Q 1081 -850 1212 -737 
Q 1344 -625 1503 -206 
L 1606 56 
L 191 3500 
L 800 3500 
L 1894 763 
L 2988 3500 
L 3597 3500 
L 2059 -325 
z
" transform="scale(0.015625)"/>
      </defs>
      <use xlink:href="#DejaVuSans-46"/>
      <use xlink:href="#DejaVuSans-72" transform="translate(50.269531 0)"/>
      <use xlink:href="#DejaVuSans-65" transform="translate(89.132812 0)"/>
      <use xlink:href="#DejaVuSans-71" transform="translate(150.65625 0)"/>
      <use xlink:href="#DejaVuSans-75" transform="translate(214.132812 0)"/>
      <use xlink:href="#DejaVuSans-65" transform="translate(277.511719 0)"/>
      <use xlink:href="#DejaVuSans-6e" transform="translate(339.035156 0)"/>
      <use xlink:href="#DejaVuSans-63" transform="translate(402.414062 0)"/>
      <use xlink:href="#DejaVuSans-79" transform="translate(457.394531 0)"/>
     </g>
    </g>
   </g>
   <g id="line2d_12">
    <path d="M 121.834711 320.399415 
L 155.038017 320.285108 
L 163.615537 320.044351 
L 169.426116 319.675998 
L 173.853223 319.191912 
L 177.726942 318.54842 
L 181.047273 317.771432 
L 184.090909 316.821337 
L 186.857851 315.712079 
L 189.348099 314.473468 
L 191.838347 312.968043 
L 194.051901 311.373279 
L 196.265455 309.50625 
L 198.479008 307.336929 
L 200.692562 304.835554 
L 202.906116 301.973511 
L 205.119669 298.724356 
L 207.333223 295.06494 
L 209.546777 290.976631 
L 211.760331 286.446592 
L 214.250579 280.815437 
L 216.740826 274.622659 
L 219.507769 267.10784 
L 222.551405 258.132525 
L 225.871736 247.620143 
L 230.298843 232.777376 
L 239.429752 201.890962 
L 242.473388 192.475631 
L 244.963636 185.438544 
L 247.17719 179.818242 
L 249.11405 175.471687 
L 250.774215 172.2183 
L 252.43438 169.436328 
L 253.817851 167.499218 
L 255.201322 165.923926 
L 256.584793 164.722085 
L 257.69157 164.035593 
L 258.798347 163.597159 
L 259.905124 163.408883 
L 261.011901 163.471667 
L 262.118678 163.78521 
L 263.225455 164.348009 
L 264.332231 165.157374 
L 265.439008 166.209442 
L 266.822479 167.858113 
L 268.20595 169.865962 
L 269.866116 172.728646 
L 271.526281 176.05746 
L 273.46314 180.484422 
L 275.676694 186.185506 
L 278.166942 193.298088 
L 280.933884 201.890962 
L 284.807603 214.743927 
L 296.152066 252.959939 
L 299.472397 263.114976 
L 302.516033 271.694633 
L 305.282975 278.812933 
L 307.773223 284.632516 
L 310.263471 289.885889 
L 312.477025 294.083681 
L 314.690579 297.848779 
L 316.904132 301.198484 
L 319.117686 304.154934 
L 321.33124 306.74386 
L 323.544793 308.993433 
L 325.758347 310.933216 
L 327.971901 312.593246 
L 330.462149 314.163375 
L 332.952397 315.457906 
L 335.442645 316.515325 
L 338.209587 317.455205 
L 341.253223 318.253606 
L 344.573554 318.900714 
L 348.447273 319.43131 
L 353.151074 319.844874 
L 359.238347 320.141268 
L 368.092562 320.321822 
L 384.970909 320.393987 
L 398.528926 320.399415 
L 398.528926 320.399415 
" clip-path="url(#pcfe0d4f610)" style="fill: none; stroke: #ff0000; stroke-width: 2; stroke-linecap: square"/>
   </g>
   <g id="patch_33">
    <path d="M 108 320.4 
L 108 43.2 
" style="fill: none; stroke: #000000; stroke-width: 0.8; stroke-linejoin: miter; stroke-linecap: square"/>
   </g>
   <g id="patch_34">
    <path d="M 412.363636 320.4 
L 412.363636 43.2 
" style="fill: none; stroke: #000000; stroke-width: 0.8; stroke-linejoin: miter; stroke-linecap: square"/>
   </g>
   <g id="patch_35">
    <path d="M 108 320.4 
L 412.363636 320.4 
" style="fill: none; stroke: #000000; stroke-width: 0.8; stroke-linejoin: miter; stroke-linecap: square"/>
   </g>
   <g id="patch_36">
    <path d="M 108 43.2 
L 412.363636 43.2 
" style="fill: none; stroke: #000000; stroke-width: 0.8; stroke-linejoin: miter; stroke-linecap: square"/>
   </g>
   <g id="text_14">
    <!-- Normal Distribution (N=100) -->
    <g transform="translate(174.004943 37.2) scale(0.12 -0.12)">
     <defs>
      <path id="DejaVuSans-4e" d="M 628 4666 
L 1478 4666 
L 3547 763 
L 3547 4666 
L 4159 4666 
L 4159 0 
L 3309 0 
L 1241 3903 
L 1241 0 
L 628 0 
L 628 4666 
z
" transform="scale(0.015625)"/>
      <path id="DejaVuSans-6f" d="M 1959 3097 
Q 1497 3097 1228 2736 
Q 959 2375 959 1747 
Q 959 1119 1226 758 
Q 1494 397 1959 397 
Q 2419 397 2687 759 
Q 2956 1122 2956 1747 
Q 2956 2369 2687 2733 
Q 2419 3097 1959 3097 
z
M 1959 3584 
Q 2709 3584 3137 3096 
Q 3566 2609 3566 1747 
Q 3566 888 3137 398 
Q 2709 -91 1959 -91 
Q 1206 -91 779 398 
Q 353 888 353 1747 
Q 353 2609 779 3096 
Q 1206 3584 1959 3584 
z
" transform="scale(0.015625)"/>
      <path id="DejaVuSans-6d" d="M 3328 2828 
Q 3544 3216 3844 3400 
Q 4144 3584 4550 3584 
Q 5097 3584 5394 3201 
Q 5691 2819 5691 2113 
L 5691 0 
L 5113 0 
L 5113 2094 
Q 5113 2597 4934 2840 
Q 4756 3084 4391 3084 
Q 3944 3084 3684 2787 
Q 3425 2491 3425 1978 
L 3425 0 
L 2847 0 
L 2847 2094 
Q 2847 2600 2669 2842 
Q 2491 3084 2119 3084 
Q 1678 3084 1418 2786 
Q 1159 2488 1159 1978 
L 1159 0 
L 581 0 
L 581 3500 
L 1159 3500 
L 1159 2956 
Q 1356 3278 1631 3431 
Q 1906 3584 2284 3584 
Q 2666 3584 2933 3390 
Q 3200 3197 3328 2828 
z
" transform="scale(0.015625)"/>
      <path id="DejaVuSans-20" transform="scale(0.015625)"/>
      <path id="DejaVuSans-44" d="M 1259 4147 
L 1259 519 
L 2022 519 
Q 2988 519 3436 956 
Q 3884 1394 3884 2338 
Q 3884 3275 3436 3711 
Q 2988 4147 2022 4147 
L 1259 4147 
z
M 628 4666 
L 1925 4666 
Q 3281 4666 3915 4102 
Q 4550 3538 4550 2338 
Q 4550 1131 3912 565 
Q 3275 0 1925 0 
L 628 0 
L 628 4666 
z
" transform="scale(0.015625)"/>
      <path id="DejaVuSans-69" d="M 603 3500 
L 1178 3500 
L 1178 0 
L 603 0 
L 603 3500 
z
M 603 4863 
L 1178 4863 
L 1178 4134 
L 603 4134 
L 603 4863 
z
" transform="scale(0.015625)"/>
      <path id="DejaVuSans-73" d="M 2834 3397 
L 2834 2853 
Q 2591 2978 2328 3040 
Q 2066 3103 1784 3103 
Q 1356 3103 1142 2972 
Q 928 2841 928 2578 
Q 928 2378 1081 2264 
Q 1234 2150 1697 2047 
L 1894 2003 
Q 2506 1872 2764 1633 
Q 3022 1394 3022 966 
Q 3022 478 2636 193 
Q 2250 -91 1575 -91 
Q 1294 -91 989 -36 
Q 684 19 347 128 
L 347 722 
Q 666 556 975 473 
Q 1284 391 1588 391 
Q 1994 391 2212 530 
Q 2431 669 2431 922 
Q 2431 1156 2273 1281 
Q 2116 1406 1581 1522 
L 1381 1569 
Q 847 1681 609 1914 
Q 372 2147 372 2553 
Q 372 3047 722 3315 
Q 1072 3584 1716 3584 
Q 2034 3584 2315 3537 
Q 2597 3491 2834 3397 
z
" transform="scale(0.015625)"/>
      <path id="DejaVuSans-74" d="M 1172 4494 
L 1172 3500 
L 2356 3500 
L 2356 3053 
L 1172 3053 
L 1172 1153 
Q 1172 725 1289 603 
Q 1406 481 1766 481 
L 2356 481 
L 2356 0 
L 1766 0 
Q 1100 0 847 248 
Q 594 497 594 1153 
L 594 3053 
L 172 3053 
L 172 3500 
L 594 3500 
L 594 4494 
L 1172 4494 
z
" transform="scale(0.015625)"/>
      <path id="DejaVuSans-62" d="M 3116 1747 
Q 3116 2381 2855 2742 
Q 2594 3103 2138 3103 
Q 1681 3103 1420 2742 
Q 1159 2381 1159 1747 
Q 1159 1113 1420 752 
Q 1681 391 2138 391 
Q 2594 391 2855 752 
Q 3116 1113 3116 1747 
z
M 1159 2969 
Q 1341 3281 1617 3432 
Q 1894 3584 2278 3584 
Q 2916 3584 3314 3078 
Q 3713 2572 3713 1747 
Q 3713 922 3314 415 
Q 2916 -91 2278 -91 
Q 1894 -91 1617 61 
Q 1341 213 1159 525 
L 1159 0 
L 581 0 
L 581 4863 
L 1159 4863 
L 1159 2969 
z
" transform="scale(0.015625)"/>
      <path id="DejaVuSans-28" d="M 1984 4856 
Q 1566 4138 1362 3434 
Q 1159 2731 1159 2009 
Q 1159 1288 1364 580 
Q 1569 -128 1984 -844 
L 1484 -844 
Q 1016 -109 783 600 
Q 550 1309 550 2009 
Q 550 2706 781 3412 
Q 1013 4119 1484 4856 
L 1984 4856 
z
" transform="scale(0.015625)"/>
      <path id="DejaVuSans-3d" d="M 678 2906 
L 4684 2906 
L 4684 2381 
L 678 2381 
L 678 2906 
z
M 678 1631 
L 4684 1631 
L 4684 1100 
L 678 1100 
L 678 1631 
z
" transform="scale(0.015625)"/>
      <path id="DejaVuSans-29" d="M 513 4856 
L 1013 4856 
Q 1481 4119 1714 3412 
Q 1947 2706 1947 2009 
Q 1947 1309 1714 600 
Q 1481 -109 1013 -844 
L 513 -844 
Q 928 -128 1133 580 
Q 1338 1288 1338 2009 
Q 1338 2731 1133 3434 
Q 928 4138 513 4856 
z
" transform="scale(0.015625)"/>
     </defs>
     <use xlink:href="#DejaVuSans-4e"/>
     <use xlink:href="#DejaVuSans-6f" transform="translate(74.804688 0)"/>
     <use xlink:href="#DejaVuSans-72" transform="translate(135.986328 0)"/>
     <use xlink:href="#DejaVuSans-6d" transform="translate(175.349609 0)"/>
     <use xlink:href="#DejaVuSans-61" transform="translate(272.761719 0)"/>
     <use xlink:href="#DejaVuSans-6c" transform="translate(334.041016 0)"/>
     <use xlink:href="#DejaVuSans-20" transform="translate(361.824219 0)"/>
     <use xlink:href="#DejaVuSans-44" transform="translate(393.611328 0)"/>
     <use xlink:href="#DejaVuSans-69" transform="translate(470.613281 0)"/>
     <use xlink:href="#DejaVuSans-73" transform="translate(498.396484 0)"/>
     <use xlink:href="#DejaVuSans-74" transform="translate(550.496094 0)"/>
     <use xlink:href="#DejaVuSans-72" transform="translate(589.705078 0)"/>
     <use xlink:href="#DejaVuSans-69" transform="translate(630.818359 0)"/>
     <use xlink:href="#DejaVuSans-62" transform="translate(658.601562 0)"/>
     <use xlink:href="#DejaVuSans-75" transform="translate(722.078125 0)"/>
     <use xlink:href="#DejaVuSans-74" transform="translate(785.457031 0)"/>
     <use xlink:href="#DejaVuSans-69" transform="translate(824.666016 0)"/>
     <use xlink:href="#DejaVuSans-6f" transform="translate(852.449219 0)"/>
     <use xlink:href="#DejaVuSans-6e" transform="translate(913.630859 0)"/>
     <use xlink:href="#DejaVuSans-20" transform="translate(977.009766 0)"/>
     <use xlink:href="#DejaVuSans-28" transform="translate(1008.796875 0)"/>
     <use xlink:href="#DejaVuSans-4e" transform="translate(1047.810547 0)"/>
     <use xlink:href="#DejaVuSans-3d" transform="translate(1122.615234 0)"/>
     <use xlink:href="#DejaVuSans-31" transform="translate(1206.404297 0)"/>
     <use xlink:href="#DejaVuSans-30" transform="translate(1270.027344 0)"/>
     <use xlink:href="#DejaVuSans-30" transform="translate(1333.650391 0)"/>
     <use xlink:href="#DejaVuSans-29" transform="translate(1397.273438 0)"/>
    </g>
   </g>
   <g id="legend_1">
    <g id="patch_37">
     <path d="M 271.424574 65.878125 
L 405.363636 65.878125 
Q 407.363636 65.878125 407.363636 63.878125 
L 407.363636 50.2 
Q 407.363636 48.2 405.363636 48.2 
L 271.424574 48.2 
Q 269.424574 48.2 269.424574 50.2 
L 269.424574 63.878125 
Q 269.424574 65.878125 271.424574 65.878125 
z
" style="fill: #ffffff; opacity: 0.8; stroke: #cccccc; stroke-linejoin: miter"/>
    </g>
    <g id="line2d_13">
     <path d="M 273.424574 56.298437 
L 283.424574 56.298437 
L 293.424574 56.298437 
" style="fill: none; stroke: #ff0000; stroke-width: 2; stroke-linecap: square"/>
    </g>
    <g id="text_15">
     <!-- Normal PDF (scaled) -->
     <g transform="translate(301.424574 59.798437) scale(0.1 -0.1)">
      <defs>
       <path id="DejaVuSans-50" d="M 1259 4147 
L 1259 2394 
L 2053 2394 
Q 2494 2394 2734 2622 
Q 2975 2850 2975 3272 
Q 2975 3691 2734 3919 
Q 2494 4147 2053 4147 
L 1259 4147 
z
M 628 4666 
L 2053 4666 
Q 2838 4666 3239 4311 
Q 3641 3956 3641 3272 
Q 3641 2581 3239 2228 
Q 2838 1875 2053 1875 
L 1259 1875 
L 1259 0 
L 628 0 
L 628 4666 
z
" transform="scale(0.015625)"/>
       <path id="DejaVuSans-64" d="M 2906 2969 
L 2906 4863 
L 3481 4863 
L 3481 0 
L 2906 0 
L 2906 525 
Q 2725 213 2448 61 
Q 2172 -91 1784 -91 
Q 1150 -91 751 415 
Q 353 922 353 1747 
Q 353 2572 751 3078 
Q 1150 3584 1784 3584 
Q 2172 3584 2448 3432 
Q 2725 3281 2906 2969 
z
M 947 1747 
Q 947 1113 1208 752 
Q 1469 391 1925 391 
Q 2381 391 2643 752 
Q 2906 1113 2906 1747 
Q 2906 2381 2643 2742 
Q 2381 3103 1925 3103 
Q 1469 3103 1208 2742 
Q 947 2381 947 1747 
z
" transform="scale(0.015625)"/>
      </defs>
      <use xlink:href="#DejaVuSans-4e"/>
      <use xlink:href="#DejaVuSans-6f" transform="translate(74.804688 0)"/>
      <use xlink:href="#DejaVuSans-72" transform="translate(135.986328 0)"/>
      <use xlink:href="#DejaVuSans-6d" transform="translate(175.349609 0)"/>
      <use xlink:href="#DejaVuSans-61" transform="translate(272.761719 0)"/>
      <use xlink:href="#DejaVuSans-6c" transform="translate(334.041016 0)"/>
      <use xlink:href="#DejaVuSans-20" transform="translate(361.824219 0)"/>
      <use xlink:href="#DejaVuSans-50" transform="translate(393.611328 0)"/>
      <use xlink:href="#DejaVuSans-44" transform="translate(453.914062 0)"/>
      <use xlink:href="#DejaVuSans-46" transform="translate(530.916016 0)"/>
      <use xlink:href="#DejaVuSans-20" transform="translate(588.435547 0)"/>
      <use xlink:href="#DejaVuSans-28" transform="translate(620.222656 0)"/>
      <use xlink:href="#DejaVuSans-73" transform="translate(659.236328 0)"/>
      <use xlink:href="#DejaVuSans-63" transform="translate(711.335938 0)"/>
      <use xlink:href="#DejaVuSans-61" transform="translate(766.316406 0)"/>
      <use xlink:href="#DejaVuSans-6c" transform="translate(827.595703 0)"/>
      <use xlink:href="#DejaVuSans-65" transform="translate(855.378906 0)"/>
      <use xlink:href="#DejaVuSans-64" transform="translate(916.902344 0)"/>
      <use xlink:href="#DejaVuSans-29" transform="translate(980.378906 0)"/>
     </g>
    </g>
   </g>
  </g>
  <g id="axes_2">
   <g id="patch_38">
    <path d="M 473.236364 320.4 
L 777.6 320.4 
L 777.6 43.2 
L 473.236364 43.2 
z
" style="fill: #ffffff"/>
   </g>
   <g id="patch_39">
    <path d="M 535.73419 320.4 
L 542.277084 320.4 
L 542.277084 317.76 
L 535.73419 317.76 
z
" clip-path="url(#p02d5897e01)" style="fill: #1f77b4"/>
   </g>
   <g id="patch_40">
    <path d="M 542.277084 320.4 
L 548.819979 320.4 
L 548.819979 317.76 
L 542.277084 317.76 
z
" clip-path="url(#p02d5897e01)" style="fill: #1f77b4"/>
   </g>
   <g id="patch_41">
    <path d="M 548.819979 320.4 
L 555.362874 320.4 
L 555.362874 315.12 
L 548.819979 315.12 
z
" clip-path="url(#p02d5897e01)" style="fill: #1f77b4"/>
   </g>
   <g id="patch_42">
    <path d="M 555.362874 320.4 
L 561.905769 320.4 
L 561.905769 312.48 
L 555.362874 312.48 
z
" clip-path="url(#p02d5897e01)" style="fill: #1f77b4"/>
   </g>
   <g id="patch_43">
    <path d="M 561.905769 320.4 
L 568.448664 320.4 
L 568.448664 304.56 
L 561.905769 304.56 
z
" clip-path="url(#p02d5897e01)" style="fill: #1f77b4"/>
   </g>
   <g id="patch_44">
    <path d="M 568.448664 320.4 
L 574.991558 320.4 
L 574.991558 291.36 
L 568.448664 291.36 
z
" clip-path="url(#p02d5897e01)" style="fill: #1f77b4"/>
   </g>
   <g id="patch_45">
    <path d="M 574.991558 320.4 
L 581.534453 320.4 
L 581.534453 270.24 
L 574.991558 270.24 
z
" clip-path="url(#p02d5897e01)" style="fill: #1f77b4"/>
   </g>
   <g id="patch_46">
    <path d="M 581.534453 320.4 
L 588.077348 320.4 
L 588.077348 225.36 
L 581.534453 225.36 
z
" clip-path="url(#p02d5897e01)" style="fill: #1f77b4"/>
   </g>
   <g id="patch_47">
    <path d="M 588.077348 320.4 
L 594.620243 320.4 
L 594.620243 214.8 
L 588.077348 214.8 
z
" clip-path="url(#p02d5897e01)" style="fill: #1f77b4"/>
   </g>
   <g id="patch_48">
    <path d="M 594.620243 320.4 
L 601.163138 320.4 
L 601.163138 183.12 
L 594.620243 183.12 
z
" clip-path="url(#p02d5897e01)" style="fill: #1f77b4"/>
   </g>
   <g id="patch_49">
    <path d="M 601.163138 320.4 
L 607.706032 320.4 
L 607.706032 127.68 
L 601.163138 127.68 
z
" clip-path="url(#p02d5897e01)" style="fill: #1f77b4"/>
   </g>
   <g id="patch_50">
    <path d="M 607.706032 320.4 
L 614.248927 320.4 
L 614.248927 66.96 
L 607.706032 66.96 
z
" clip-path="url(#p02d5897e01)" style="fill: #1f77b4"/>
   </g>
   <g id="patch_51">
    <path d="M 614.248927 320.4 
L 620.791822 320.4 
L 620.791822 127.68 
L 614.248927 127.68 
z
" clip-path="url(#p02d5897e01)" style="fill: #1f77b4"/>
   </g>
   <g id="patch_52">
    <path d="M 620.791822 320.4 
L 627.334717 320.4 
L 627.334717 64.32 
L 620.791822 64.32 
z
" clip-path="url(#p02d5897e01)" style="fill: #1f77b4"/>
   </g>
   <g id="patch_53">
    <path d="M 627.334717 320.4 
L 633.877611 320.4 
L 633.877611 56.4 
L 627.334717 56.4 
z
" clip-path="url(#p02d5897e01)" style="fill: #1f77b4"/>
   </g>
   <g id="patch_54">
    <path d="M 633.877611 320.4 
L 640.420506 320.4 
L 640.420506 90.72 
L 633.877611 90.72 
z
" clip-path="url(#p02d5897e01)" style="fill: #1f77b4"/>
   </g>
   <g id="patch_55">
    <path d="M 640.420506 320.4 
L 646.963401 320.4 
L 646.963401 88.08 
L 640.420506 88.08 
z
" clip-path="url(#p02d5897e01)" style="fill: #1f77b4"/>
   </g>
   <g id="patch_56">
    <path d="M 646.963401 320.4 
L 653.506296 320.4 
L 653.506296 177.84 
L 646.963401 177.84 
z
" clip-path="url(#p02d5897e01)" style="fill: #1f77b4"/>
   </g>
   <g id="patch_57">
    <path d="M 653.506296 320.4 
L 660.049191 320.4 
L 660.049191 188.4 
L 653.506296 188.4 
z
" clip-path="url(#p02d5897e01)" style="fill: #1f77b4"/>
   </g>
   <g id="patch_58">
    <path d="M 660.049191 320.4 
L 666.592085 320.4 
L 666.592085 235.92 
L 660.049191 235.92 
z
" clip-path="url(#p02d5897e01)" style="fill: #1f77b4"/>
   </g>
   <g id="patch_59">
    <path d="M 666.592085 320.4 
L 673.13498 320.4 
L 673.13498 249.12 
L 666.592085 249.12 
z
" clip-path="url(#p02d5897e01)" style="fill: #1f77b4"/>
   </g>
   <g id="patch_60">
    <path d="M 673.13498 320.4 
L 679.677875 320.4 
L 679.677875 257.04 
L 673.13498 257.04 
z
" clip-path="url(#p02d5897e01)" style="fill: #1f77b4"/>
   </g>
   <g id="patch_61">
    <path d="M 679.677875 320.4 
L 686.22077 320.4 
L 686.22077 280.8 
L 679.677875 280.8 
z
" clip-path="url(#p02d5897e01)" style="fill: #1f77b4"/>
   </g>
   <g id="patch_62">
    <path d="M 686.22077 320.4 
L 692.763665 320.4 
L 692.763665 312.48 
L 686.22077 312.48 
z
" clip-path="url(#p02d5897e01)" style="fill: #1f77b4"/>
   </g>
   <g id="patch_63">
    <path d="M 692.763665 320.4 
L 699.306559 320.4 
L 699.306559 301.92 
L 692.763665 301.92 
z
" clip-path="url(#p02d5897e01)" style="fill: #1f77b4"/>
   </g>
   <g id="patch_64">
    <path d="M 699.306559 320.4 
L 705.849454 320.4 
L 705.849454 317.76 
L 699.306559 317.76 
z
" clip-path="url(#p02d5897e01)" style="fill: #1f77b4"/>
   </g>
   <g id="patch_65">
    <path d="M 705.849454 320.4 
L 712.392349 320.4 
L 712.392349 317.76 
L 705.849454 317.76 
z
" clip-path="url(#p02d5897e01)" style="fill: #1f77b4"/>
   </g>
   <g id="patch_66">
    <path d="M 712.392349 320.4 
L 718.935244 320.4 
L 718.935244 320.4 
L 712.392349 320.4 
z
" clip-path="url(#p02d5897e01)" style="fill: #1f77b4"/>
   </g>
   <g id="patch_67">
    <path d="M 718.935244 320.4 
L 725.478139 320.4 
L 725.478139 320.4 
L 718.935244 320.4 
z
" clip-path="url(#p02d5897e01)" style="fill: #1f77b4"/>
   </g>
   <g id="patch_68">
    <path d="M 725.478139 320.4 
L 732.021033 320.4 
L 732.021033 317.76 
L 725.478139 317.76 
z
" clip-path="url(#p02d5897e01)" style="fill: #1f77b4"/>
   </g>
   <g id="matplotlib.axis_3">
    <g id="xtick_6">
     <g id="line2d_14">
      <g>
       <use xlink:href="#m32f7187b7e" x="514.740496" y="320.4" style="stroke: #000000; stroke-width: 0.8"/>
      </g>
     </g>
     <g id="text_16">
      <!-- −0.4 -->
      <g transform="translate(502.59909 334.998438) scale(0.1 -0.1)">
       <use xlink:href="#DejaVuSans-2212"/>
       <use xlink:href="#DejaVuSans-30" transform="translate(83.789062 0)"/>
       <use xlink:href="#DejaVuSans-2e" transform="translate(147.412109 0)"/>
       <use xlink:href="#DejaVuSans-34" transform="translate(179.199219 0)"/>
      </g>
     </g>
    </g>
    <g id="xtick_7">
     <g id="line2d_15">
      <g>
       <use xlink:href="#m32f7187b7e" x="570.079339" y="320.4" style="stroke: #000000; stroke-width: 0.8"/>
      </g>
     </g>
     <g id="text_17">
      <!-- −0.2 -->
      <g transform="translate(557.937933 334.998438) scale(0.1 -0.1)">
       <use xlink:href="#DejaVuSans-2212"/>
       <use xlink:href="#DejaVuSans-30" transform="translate(83.789062 0)"/>
       <use xlink:href="#DejaVuSans-2e" transform="translate(147.412109 0)"/>
       <use xlink:href="#DejaVuSans-32" transform="translate(179.199219 0)"/>
      </g>
     </g>
    </g>
    <g id="xtick_8">
     <g id="line2d_16">
      <g>
       <use xlink:href="#m32f7187b7e" x="625.418182" y="320.4" style="stroke: #000000; stroke-width: 0.8"/>
      </g>
     </g>
     <g id="text_18">
      <!-- 0.0 -->
      <g transform="translate(617.466619 334.998438) scale(0.1 -0.1)">
       <use xlink:href="#DejaVuSans-30"/>
       <use xlink:href="#DejaVuSans-2e" transform="translate(63.623047 0)"/>
       <use xlink:href="#DejaVuSans-30" transform="translate(95.410156 0)"/>
      </g>
     </g>
    </g>
    <g id="xtick_9">
     <g id="line2d_17">
      <g>
       <use xlink:href="#m32f7187b7e" x="680.757025" y="320.4" style="stroke: #000000; stroke-width: 0.8"/>
      </g>
     </g>
     <g id="text_19">
      <!-- 0.2 -->
      <g transform="translate(672.805462 334.998438) scale(0.1 -0.1)">
       <use xlink:href="#DejaVuSans-30"/>
       <use xlink:href="#DejaVuSans-2e" transform="translate(63.623047 0)"/>
       <use xlink:href="#DejaVuSans-32" transform="translate(95.410156 0)"/>
      </g>
     </g>
    </g>
    <g id="xtick_10">
     <g id="line2d_18">
      <g>
       <use xlink:href="#m32f7187b7e" x="736.095868" y="320.4" style="stroke: #000000; stroke-width: 0.8"/>
      </g>
     </g>
     <g id="text_20">
      <!-- 0.4 -->
      <g transform="translate(728.144305 334.998438) scale(0.1 -0.1)">
       <use xlink:href="#DejaVuSans-30"/>
       <use xlink:href="#DejaVuSans-2e" transform="translate(63.623047 0)"/>
       <use xlink:href="#DejaVuSans-34" transform="translate(95.410156 0)"/>
      </g>
     </g>
    </g>
    <g id="text_21">
     <!-- Value -->
     <g transform="translate(611.686932 348.676562) scale(0.1 -0.1)">
      <use xlink:href="#DejaVuSans-56"/>
      <use xlink:href="#DejaVuSans-61" transform="translate(60.658203 0)"/>
      <use xlink:href="#DejaVuSans-6c" transform="translate(121.9375 0)"/>
      <use xlink:href="#DejaVuSans-75" transform="translate(149.720703 0)"/>
      <use xlink:href="#DejaVuSans-65" transform="translate(213.099609 0)"/>
     </g>
    </g>
   </g>
   <g id="matplotlib.axis_4">
    <g id="ytick_7">
     <g id="line2d_19">
      <g>
       <use xlink:href="#m0c1799297c" x="473.236364" y="320.4" style="stroke: #000000; stroke-width: 0.8"/>
      </g>
     </g>
     <g id="text_22">
      <!-- 0 -->
      <g transform="translate(459.873864 324.199219) scale(0.1 -0.1)">
       <use xlink:href="#DejaVuSans-30"/>
      </g>
     </g>
    </g>
    <g id="ytick_8">
     <g id="line2d_20">
      <g>
       <use xlink:href="#m0c1799297c" x="473.236364" y="267.6" style="stroke: #000000; stroke-width: 0.8"/>
      </g>
     </g>
     <g id="text_23">
      <!-- 20 -->
      <g transform="translate(453.511364 271.399219) scale(0.1 -0.1)">
       <use xlink:href="#DejaVuSans-32"/>
       <use xlink:href="#DejaVuSans-30" transform="translate(63.623047 0)"/>
      </g>
     </g>
    </g>
    <g id="ytick_9">
     <g id="line2d_21">
      <g>
       <use xlink:href="#m0c1799297c" x="473.236364" y="214.8" style="stroke: #000000; stroke-width: 0.8"/>
      </g>
     </g>
     <g id="text_24">
      <!-- 40 -->
      <g transform="translate(453.511364 218.599219) scale(0.1 -0.1)">
       <use xlink:href="#DejaVuSans-34"/>
       <use xlink:href="#DejaVuSans-30" transform="translate(63.623047 0)"/>
      </g>
     </g>
    </g>
    <g id="ytick_10">
     <g id="line2d_22">
      <g>
       <use xlink:href="#m0c1799297c" x="473.236364" y="162" style="stroke: #000000; stroke-width: 0.8"/>
      </g>
     </g>
     <g id="text_25">
      <!-- 60 -->
      <g transform="translate(453.511364 165.799219) scale(0.1 -0.1)">
       <use xlink:href="#DejaVuSans-36"/>
       <use xlink:href="#DejaVuSans-30" transform="translate(63.623047 0)"/>
      </g>
     </g>
    </g>
    <g id="ytick_11">
     <g id="line2d_23">
      <g>
       <use xlink:href="#m0c1799297c" x="473.236364" y="109.2" style="stroke: #000000; stroke-width: 0.8"/>
      </g>
     </g>
     <g id="text_26">
      <!-- 80 -->
      <g transform="translate(453.511364 112.999219) scale(0.1 -0.1)">
       <use xlink:href="#DejaVuSans-38"/>
       <use xlink:href="#DejaVuSans-30" transform="translate(63.623047 0)"/>
      </g>
     </g>
    </g>
    <g id="ytick_12">
     <g id="line2d_24">
      <g>
       <use xlink:href="#m0c1799297c" x="473.236364" y="56.4" style="stroke: #000000; stroke-width: 0.8"/>
      </g>
     </g>
     <g id="text_27">
      <!-- 100 -->
      <g transform="translate(447.148864 60.199219) scale(0.1 -0.1)">
       <use xlink:href="#DejaVuSans-31"/>
       <use xlink:href="#DejaVuSans-30" transform="translate(63.623047 0)"/>
       <use xlink:href="#DejaVuSans-30" transform="translate(127.246094 0)"/>
      </g>
     </g>
    </g>
    <g id="text_28">
     <!-- Frequency -->
     <g transform="translate(441.069176 207.629687) rotate(-90) scale(0.1 -0.1)">
      <use xlink:href="#DejaVuSans-46"/>
      <use xlink:href="#DejaVuSans-72" transform="translate(50.269531 0)"/>
      <use xlink:href="#DejaVuSans-65" transform="translate(89.132812 0)"/>
      <use xlink:href="#DejaVuSans-71" transform="translate(150.65625 0)"/>
      <use xlink:href="#DejaVuSans-75" transform="translate(214.132812 0)"/>
      <use xlink:href="#DejaVuSans-65" transform="translate(277.511719 0)"/>
      <use xlink:href="#DejaVuSans-6e" transform="translate(339.035156 0)"/>
      <use xlink:href="#DejaVuSans-63" transform="translate(402.414062 0)"/>
      <use xlink:href="#DejaVuSans-79" transform="translate(457.394531 0)"/>
     </g>
    </g>
   </g>
   <g id="line2d_25">
    <path d="M 487.071074 320.399072 
L 516.95405 320.285313 
L 525.254876 320.044615 
L 530.78876 319.681473 
L 535.215868 319.173889 
L 538.812893 318.542563 
L 541.856529 317.794961 
L 544.623471 316.894099 
L 547.113719 315.858772 
L 549.603967 314.565156 
L 551.817521 313.158362 
L 554.031074 311.469722 
L 555.967934 309.728278 
L 557.904793 307.709579 
L 559.841653 305.382781 
L 561.778512 302.716226 
L 563.715372 299.677968 
L 565.652231 296.236397 
L 567.589091 292.36097 
L 569.52595 288.023027 
L 571.739504 282.466013 
L 573.953058 276.23876 
L 576.166612 269.317219 
L 578.380165 261.687804 
L 580.870413 252.257747 
L 583.360661 241.951099 
L 586.127603 229.528404 
L 589.17124 214.806431 
L 592.768264 196.255343 
L 598.302149 166.323771 
L 603.836033 136.673641 
L 607.156364 120.093745 
L 609.646612 108.694222 
L 611.860165 99.52488 
L 613.797025 92.376778 
L 615.45719 86.978117 
L 617.117355 82.310305 
L 618.500826 79.013961 
L 619.884298 76.283036 
L 620.991074 74.519051 
L 622.097851 73.138255 
L 623.204628 72.147227 
L 624.034711 71.662662 
L 624.864793 71.40135 
L 625.694876 71.363998 
L 626.524959 71.550705 
L 627.355041 71.960968 
L 628.185124 72.59368 
L 629.291901 73.7803 
L 630.398678 75.353626 
L 631.505455 77.306177 
L 632.888926 80.265911 
L 634.272397 83.781894 
L 635.932562 88.699064 
L 637.592727 94.32937 
L 639.529587 101.722624 
L 641.74314 111.13582 
L 644.233388 122.759945 
L 647.277025 138.110247 
L 651.427438 160.292178 
L 660.004959 206.377309 
L 663.601983 224.294411 
L 666.64562 238.327954 
L 669.412562 250.041931 
L 671.90281 259.669413 
L 674.393058 268.402405 
L 676.606612 275.411924 
L 678.820165 281.724842 
L 681.033719 287.364013 
L 683.247273 292.36097 
L 685.460826 296.753917 
L 687.397686 300.135968 
L 689.334545 303.119176 
L 691.271405 305.735238 
L 693.208264 308.016097 
L 695.145124 309.993325 
L 697.358678 311.920534 
L 699.572231 313.534922 
L 701.785785 314.877407 
L 704.276033 316.109525 
L 706.766281 317.093641 
L 709.533223 317.948139 
L 712.57686 318.655623 
L 716.173884 319.251511 
L 720.324298 319.705666 
L 725.581488 320.044615 
L 732.775537 320.265951 
L 744.673388 320.376957 
L 763.765289 320.399072 
L 763.765289 320.399072 
" clip-path="url(#p02d5897e01)" style="fill: none; stroke: #ff0000; stroke-width: 2; stroke-linecap: square"/>
   </g>
   <g id="patch_69">
    <path d="M 473.236364 320.4 
L 473.236364 43.2 
" style="fill: none; stroke: #000000; stroke-width: 0.8; stroke-linejoin: miter; stroke-linecap: square"/>
   </g>
   <g id="patch_70">
    <path d="M 777.6 320.4 
L 777.6 43.2 
" style="fill: none; stroke: #000000; stroke-width: 0.8; stroke-linejoin: miter; stroke-linecap: square"/>
   </g>
   <g id="patch_71">
    <path d="M 473.236364 320.4 
L 777.6 320.4 
" style="fill: none; stroke: #000000; stroke-width: 0.8; stroke-linejoin: miter; stroke-linecap: square"/>
   </g>
   <g id="patch_72">
    <path d="M 473.236364 43.2 
L 777.6 43.2 
" style="fill: none; stroke: #000000; stroke-width: 0.8; stroke-linejoin: miter; stroke-linecap: square"/>
   </g>
   <g id="text_29">
    <!-- Normal Distribution (N=1000) -->
    <g transform="translate(535.423807 37.2) scale(0.12 -0.12)">
     <use xlink:href="#DejaVuSans-4e"/>
     <use xlink:href="#DejaVuSans-6f" transform="translate(74.804688 0)"/>
     <use xlink:href="#DejaVuSans-72" transform="translate(135.986328 0)"/>
     <use xlink:href="#DejaVuSans-6d" transform="translate(175.349609 0)"/>
     <use xlink:href="#DejaVuSans-61" transform="translate(272.761719 0)"/>
     <use xlink:href="#DejaVuSans-6c" transform="translate(334.041016 0)"/>
     <use xlink:href="#DejaVuSans-20" transform="translate(361.824219 0)"/>
     <use xlink:href="#DejaVuSans-44" transform="translate(393.611328 0)"/>
     <use xlink:href="#DejaVuSans-69" transform="translate(470.613281 0)"/>
     <use xlink:href="#DejaVuSans-73" transform="translate(498.396484 0)"/>
     <use xlink:href="#DejaVuSans-74" transform="translate(550.496094 0)"/>
     <use xlink:href="#DejaVuSans-72" transform="translate(589.705078 0)"/>
     <use xlink:href="#DejaVuSans-69" transform="translate(630.818359 0)"/>
     <use xlink:href="#DejaVuSans-62" transform="translate(658.601562 0)"/>
     <use xlink:href="#DejaVuSans-75" transform="translate(722.078125 0)"/>
     <use xlink:href="#DejaVuSans-74" transform="translate(785.457031 0)"/>
     <use xlink:href="#DejaVuSans-69" transform="translate(824.666016 0)"/>
     <use xlink:href="#DejaVuSans-6f" transform="translate(852.449219 0)"/>
     <use xlink:href="#DejaVuSans-6e" transform="translate(913.630859 0)"/>
     <use xlink:href="#DejaVuSans-20" transform="translate(977.009766 0)"/>
     <use xlink:href="#DejaVuSans-28" transform="translate(1008.796875 0)"/>
     <use xlink:href="#DejaVuSans-4e" transform="translate(1047.810547 0)"/>
     <use xlink:href="#DejaVuSans-3d" transform="translate(1122.615234 0)"/>
     <use xlink:href="#DejaVuSans-31" transform="translate(1206.404297 0)"/>
     <use xlink:href="#DejaVuSans-30" transform="translate(1270.027344 0)"/>
     <use xlink:href="#DejaVuSans-30" transform="translate(1333.650391 0)"/>
     <use xlink:href="#DejaVuSans-30" transform="translate(1397.273438 0)"/>
     <use xlink:href="#DejaVuSans-29" transform="translate(1460.896484 0)"/>
    </g>
   </g>
   <g id="legend_2">
    <g id="patch_73">
     <path d="M 636.660937 65.878125 
L 770.6 65.878125 
Q 772.6 65.878125 772.6 63.878125 
L 772.6 50.2 
Q 772.6 48.2 770.6 48.2 
L 636.660937 48.2 
Q 634.660937 48.2 634.660937 50.2 
L 634.660937 63.878125 
Q 634.660937 65.878125 636.660937 65.878125 
z
" style="fill: #ffffff; opacity: 0.8; stroke: #cccccc; stroke-linejoin: miter"/>
    </g>
    <g id="line2d_26">
     <path d="M 638.660937 56.298437 
L 648.660937 56.298437 
L 658.660937 56.298437 
" style="fill: none; stroke: #ff0000; stroke-width: 2; stroke-linecap: square"/>
    </g>
    <g id="text_30">
     <!-- Normal PDF (scaled) -->
     <g transform="translate(666.660937 59.798437) scale(0.1 -0.1)">
      <use xlink:href="#DejaVuSans-4e"/>
      <use xlink:href="#DejaVuSans-6f" transform="translate(74.804688 0)"/>
      <use xlink:href="#DejaVuSans-72" transform="translate(135.986328 0)"/>
      <use xlink:href="#DejaVuSans-6d" transform="translate(175.349609 0)"/>
      <use xlink:href="#DejaVuSans-61" transform="translate(272.761719 0)"/>
      <use xlink:href="#DejaVuSans-6c" transform="translate(334.041016 0)"/>
      <use xlink:href="#DejaVuSans-20" transform="translate(361.824219 0)"/>
      <use xlink:href="#DejaVuSans-50" transform="translate(393.611328 0)"/>
      <use xlink:href="#DejaVuSans-44" transform="translate(453.914062 0)"/>
      <use xlink:href="#DejaVuSans-46" transform="translate(530.916016 0)"/>
      <use xlink:href="#DejaVuSans-20" transform="translate(588.435547 0)"/>
      <use xlink:href="#DejaVuSans-28" transform="translate(620.222656 0)"/>
      <use xlink:href="#DejaVuSans-73" transform="translate(659.236328 0)"/>
      <use xlink:href="#DejaVuSans-63" transform="translate(711.335938 0)"/>
      <use xlink:href="#DejaVuSans-61" transform="translate(766.316406 0)"/>
      <use xlink:href="#DejaVuSans-6c" transform="translate(827.595703 0)"/>
      <use xlink:href="#DejaVuSans-65" transform="translate(855.378906 0)"/>
      <use xlink:href="#DejaVuSans-64" transform="translate(916.902344 0)"/>
      <use xlink:href="#DejaVuSans-29" transform="translate(980.378906 0)"/>
     </g>
    </g>
   </g>
  </g>
 </g>
 <defs>
  <clipPath id="pcfe0d4f610">
   <rect x="108" y="43.2" width="304.363636" height="277.2"/>
  </clipPath>
  <clipPath id="p02d5897e01">
   <rect x="473.236364" y="43.2" width="304.363636" height="277.2"/>
  </clipPath>
 </defs>
</svg>
