<?xml version="1.0" encoding="utf-8" standalone="no"?>
<!DOCTYPE svg PUBLIC "-//W3C//DTD SVG 1.1//EN"
  "http://www.w3.org/Graphics/SVG/1.1/DTD/svg11.dtd">
<svg xmlns:xlink="http://www.w3.org/1999/xlink" width="718.805625pt" height="503.584687pt" viewBox="0 0 718.805625 503.584687" xmlns="http://www.w3.org/2000/svg" version="1.1">
 <metadata>
  <rdf:RDF xmlns:dc="http://purl.org/dc/elements/1.1/" xmlns:cc="http://creativecommons.org/ns#" xmlns:rdf="http://www.w3.org/1999/02/22-rdf-syntax-ns#">
   <cc:Work>
    <dc:type rdf:resource="http://purl.org/dc/dcmitype/StillImage"/>
    <dc:date>2025-03-24T16:04:16.781364</dc:date>
    <dc:format>image/svg+xml</dc:format>
    <dc:creator>
     <cc:Agent>
      <dc:title>Matplotlib v3.10.0, https://matplotlib.org/</dc:title>
     </cc:Agent>
    </dc:creator>
   </cc:Work>
  </rdf:RDF>
 </metadata>
 <defs>
  <style type="text/css">*{stroke-linejoin: round; stroke-linecap: butt}</style>
 </defs>
 <g id="figure_1">
  <g id="patch_1">
   <path d="M 0 503.584687 
L 718.805625 503.584687 
L 718.805625 0 
L 0 0 
z
" style="fill: #ffffff"/>
  </g>
  <g id="axes_1">
   <g id="patch_2">
    <path d="M 76.205625 440.557187 
L 690.005625 440.557187 
L 690.005625 52.477187 
L 76.205625 52.477187 
z
" style="fill: #ffffff"/>
   </g>
   <g id="PathCollection_1">
    <defs>
     <path id="C0_0_f68bbc9ed8" d="M 0 3 
C 0.795609 3 1.55874 2.683901 2.12132 2.12132 
C 2.683901 1.55874 3 0.795609 3 -0 
C 3 -0.795609 2.683901 -1.55874 2.12132 -2.12132 
C 1.55874 -2.683901 0.795609 -3 0 -3 
C -0.795609 -3 -1.55874 -2.683901 -2.12132 -2.12132 
C -2.683901 -1.55874 -3 -0.795609 -3 0 
C -3 0.795609 -2.683901 1.55874 -2.12132 2.12132 
C -1.55874 2.683901 -0.795609 3 0 3 
z
"/>
    </defs>
    <g clip-path="url(#p0da48e476b)">
     <use xlink:href="#C0_0_f68bbc9ed8" x="76.205625" y="362.073197" style="fill: none; stroke: #ff0000; stroke-width: 2"/>
    </g>
    <g clip-path="url(#p0da48e476b)">
     <use xlink:href="#C0_0_f68bbc9ed8" x="82.343625" y="366.595507" style="fill: none; stroke: #ff0000; stroke-width: 2"/>
    </g>
    <g clip-path="url(#p0da48e476b)">
     <use xlink:href="#C0_0_f68bbc9ed8" x="88.481625" y="358.378201" style="fill: none; stroke: #ff0000; stroke-width: 2"/>
    </g>
    <g clip-path="url(#p0da48e476b)">
     <use xlink:href="#C0_0_f68bbc9ed8" x="94.619625" y="361.390151" style="fill: none; stroke: #ff0000; stroke-width: 2"/>
    </g>
    <g clip-path="url(#p0da48e476b)">
     <use xlink:href="#C0_0_f68bbc9ed8" x="100.757625" y="362.652679" style="fill: none; stroke: #ff0000; stroke-width: 2"/>
    </g>
    <g clip-path="url(#p0da48e476b)">
     <use xlink:href="#C0_0_f68bbc9ed8" x="106.895625" y="368.921652" style="fill: none; stroke: #ff0000; stroke-width: 2"/>
    </g>
    <g clip-path="url(#p0da48e476b)">
     <use xlink:href="#C0_0_f68bbc9ed8" x="113.033625" y="393.796541" style="fill: none; stroke: #ff0000; stroke-width: 2"/>
    </g>
    <g clip-path="url(#p0da48e476b)">
     <use xlink:href="#C0_0_f68bbc9ed8" x="119.171625" y="353.43487" style="fill: none; stroke: #ff0000; stroke-width: 2"/>
    </g>
    <g clip-path="url(#p0da48e476b)">
     <use xlink:href="#C0_0_f68bbc9ed8" x="125.309625" y="343.052392" style="fill: none; stroke: #ff0000; stroke-width: 2"/>
    </g>
    <g clip-path="url(#p0da48e476b)">
     <use xlink:href="#C0_0_f68bbc9ed8" x="131.447625" y="357.779833" style="fill: none; stroke: #ff0000; stroke-width: 2"/>
    </g>
    <g clip-path="url(#p0da48e476b)">
     <use xlink:href="#C0_0_f68bbc9ed8" x="137.585625" y="339.554754" style="fill: none; stroke: #ff0000; stroke-width: 2"/>
    </g>
    <g clip-path="url(#p0da48e476b)">
     <use xlink:href="#C0_0_f68bbc9ed8" x="143.723625" y="358.484954" style="fill: none; stroke: #ff0000; stroke-width: 2"/>
    </g>
    <g clip-path="url(#p0da48e476b)">
     <use xlink:href="#C0_0_f68bbc9ed8" x="149.861625" y="363.509816" style="fill: none; stroke: #ff0000; stroke-width: 2"/>
    </g>
    <g clip-path="url(#p0da48e476b)">
     <use xlink:href="#C0_0_f68bbc9ed8" x="155.999625" y="372.4191" style="fill: none; stroke: #ff0000; stroke-width: 2"/>
    </g>
    <g clip-path="url(#p0da48e476b)">
     <use xlink:href="#C0_0_f68bbc9ed8" x="162.137625" y="347.425057" style="fill: none; stroke: #ff0000; stroke-width: 2"/>
    </g>
    <g clip-path="url(#p0da48e476b)">
     <use xlink:href="#C0_0_f68bbc9ed8" x="168.275625" y="363.012285" style="fill: none; stroke: #ff0000; stroke-width: 2"/>
    </g>
    <g clip-path="url(#p0da48e476b)">
     <use xlink:href="#C0_0_f68bbc9ed8" x="174.413625" y="336.8532" style="fill: none; stroke: #ff0000; stroke-width: 2"/>
    </g>
    <g clip-path="url(#p0da48e476b)">
     <use xlink:href="#C0_0_f68bbc9ed8" x="180.551625" y="378.562737" style="fill: none; stroke: #ff0000; stroke-width: 2"/>
    </g>
    <g clip-path="url(#p0da48e476b)">
     <use xlink:href="#C0_0_f68bbc9ed8" x="186.689625" y="354.490239" style="fill: none; stroke: #ff0000; stroke-width: 2"/>
    </g>
    <g clip-path="url(#p0da48e476b)">
     <use xlink:href="#C0_0_f68bbc9ed8" x="192.827625" y="368.252497" style="fill: none; stroke: #ff0000; stroke-width: 2"/>
    </g>
    <g clip-path="url(#p0da48e476b)">
     <use xlink:href="#C0_0_f68bbc9ed8" x="198.965625" y="358.042013" style="fill: none; stroke: #ff0000; stroke-width: 2"/>
    </g>
    <g clip-path="url(#p0da48e476b)">
     <use xlink:href="#C0_0_f68bbc9ed8" x="205.103625" y="350.847333" style="fill: none; stroke: #ff0000; stroke-width: 2"/>
    </g>
    <g clip-path="url(#p0da48e476b)">
     <use xlink:href="#C0_0_f68bbc9ed8" x="211.241625" y="343.042554" style="fill: none; stroke: #ff0000; stroke-width: 2"/>
    </g>
    <g clip-path="url(#p0da48e476b)">
     <use xlink:href="#C0_0_f68bbc9ed8" x="217.379625" y="350.891833" style="fill: none; stroke: #ff0000; stroke-width: 2"/>
    </g>
    <g clip-path="url(#p0da48e476b)">
     <use xlink:href="#C0_0_f68bbc9ed8" x="223.517625" y="338.415174" style="fill: none; stroke: #ff0000; stroke-width: 2"/>
    </g>
    <g clip-path="url(#p0da48e476b)">
     <use xlink:href="#C0_0_f68bbc9ed8" x="229.655625" y="329.650187" style="fill: none; stroke: #ff0000; stroke-width: 2"/>
    </g>
    <g clip-path="url(#p0da48e476b)">
     <use xlink:href="#C0_0_f68bbc9ed8" x="235.793625" y="337.913094" style="fill: none; stroke: #ff0000; stroke-width: 2"/>
    </g>
    <g clip-path="url(#p0da48e476b)">
     <use xlink:href="#C0_0_f68bbc9ed8" x="241.931625" y="360.523966" style="fill: none; stroke: #ff0000; stroke-width: 2"/>
    </g>
    <g clip-path="url(#p0da48e476b)">
     <use xlink:href="#C0_0_f68bbc9ed8" x="248.069625" y="340.217264" style="fill: none; stroke: #ff0000; stroke-width: 2"/>
    </g>
    <g clip-path="url(#p0da48e476b)">
     <use xlink:href="#C0_0_f68bbc9ed8" x="254.207625" y="342.384074" style="fill: none; stroke: #ff0000; stroke-width: 2"/>
    </g>
    <g clip-path="url(#p0da48e476b)">
     <use xlink:href="#C0_0_f68bbc9ed8" x="260.345625" y="323.525121" style="fill: none; stroke: #ff0000; stroke-width: 2"/>
    </g>
    <g clip-path="url(#p0da48e476b)">
     <use xlink:href="#C0_0_f68bbc9ed8" x="266.483625" y="310.938809" style="fill: none; stroke: #ff0000; stroke-width: 2"/>
    </g>
    <g clip-path="url(#p0da48e476b)">
     <use xlink:href="#C0_0_f68bbc9ed8" x="272.621625" y="338.152127" style="fill: none; stroke: #ff0000; stroke-width: 2"/>
    </g>
    <g clip-path="url(#p0da48e476b)">
     <use xlink:href="#C0_0_f68bbc9ed8" x="278.759625" y="331.738045" style="fill: none; stroke: #ff0000; stroke-width: 2"/>
    </g>
    <g clip-path="url(#p0da48e476b)">
     <use xlink:href="#C0_0_f68bbc9ed8" x="284.897625" y="338.699392" style="fill: none; stroke: #ff0000; stroke-width: 2"/>
    </g>
    <g clip-path="url(#p0da48e476b)">
     <use xlink:href="#C0_0_f68bbc9ed8" x="291.035625" y="339.915859" style="fill: none; stroke: #ff0000; stroke-width: 2"/>
    </g>
    <g clip-path="url(#p0da48e476b)">
     <use xlink:href="#C0_0_f68bbc9ed8" x="297.173625" y="292.742444" style="fill: none; stroke: #ff0000; stroke-width: 2"/>
    </g>
    <g clip-path="url(#p0da48e476b)">
     <use xlink:href="#C0_0_f68bbc9ed8" x="303.311625" y="273.28304" style="fill: none; stroke: #ff0000; stroke-width: 2"/>
    </g>
    <g clip-path="url(#p0da48e476b)">
     <use xlink:href="#C0_0_f68bbc9ed8" x="309.449625" y="292.376326" style="fill: none; stroke: #ff0000; stroke-width: 2"/>
    </g>
    <g clip-path="url(#p0da48e476b)">
     <use xlink:href="#C0_0_f68bbc9ed8" x="315.587625" y="307.682673" style="fill: none; stroke: #ff0000; stroke-width: 2"/>
    </g>
    <g clip-path="url(#p0da48e476b)">
     <use xlink:href="#C0_0_f68bbc9ed8" x="321.725625" y="242.612471" style="fill: none; stroke: #ff0000; stroke-width: 2"/>
    </g>
    <g clip-path="url(#p0da48e476b)">
     <use xlink:href="#C0_0_f68bbc9ed8" x="327.863625" y="234.941607" style="fill: none; stroke: #ff0000; stroke-width: 2"/>
    </g>
    <g clip-path="url(#p0da48e476b)">
     <use xlink:href="#C0_0_f68bbc9ed8" x="334.001625" y="240.294055" style="fill: none; stroke: #ff0000; stroke-width: 2"/>
    </g>
    <g clip-path="url(#p0da48e476b)">
     <use xlink:href="#C0_0_f68bbc9ed8" x="340.139625" y="262.206407" style="fill: none; stroke: #ff0000; stroke-width: 2"/>
    </g>
    <g clip-path="url(#p0da48e476b)">
     <use xlink:href="#C0_0_f68bbc9ed8" x="346.277625" y="277.57218" style="fill: none; stroke: #ff0000; stroke-width: 2"/>
    </g>
    <g clip-path="url(#p0da48e476b)">
     <use xlink:href="#C0_0_f68bbc9ed8" x="352.415625" y="250.934878" style="fill: none; stroke: #ff0000; stroke-width: 2"/>
    </g>
    <g clip-path="url(#p0da48e476b)">
     <use xlink:href="#C0_0_f68bbc9ed8" x="358.553625" y="230.588395" style="fill: none; stroke: #ff0000; stroke-width: 2"/>
    </g>
    <g clip-path="url(#p0da48e476b)">
     <use xlink:href="#C0_0_f68bbc9ed8" x="364.691625" y="232.995273" style="fill: none; stroke: #ff0000; stroke-width: 2"/>
    </g>
    <g clip-path="url(#p0da48e476b)">
     <use xlink:href="#C0_0_f68bbc9ed8" x="370.829625" y="183.730454" style="fill: none; stroke: #ff0000; stroke-width: 2"/>
    </g>
    <g clip-path="url(#p0da48e476b)">
     <use xlink:href="#C0_0_f68bbc9ed8" x="376.967625" y="95.620696" style="fill: none; stroke: #ff0000; stroke-width: 2"/>
    </g>
    <g clip-path="url(#p0da48e476b)">
     <use xlink:href="#C0_0_f68bbc9ed8" x="383.105625" y="150.239172" style="fill: none; stroke: #ff0000; stroke-width: 2"/>
    </g>
    <g clip-path="url(#p0da48e476b)">
     <use xlink:href="#C0_0_f68bbc9ed8" x="389.243625" y="84.804325" style="fill: none; stroke: #ff0000; stroke-width: 2"/>
    </g>
    <g clip-path="url(#p0da48e476b)">
     <use xlink:href="#C0_0_f68bbc9ed8" x="395.381625" y="148.86802" style="fill: none; stroke: #ff0000; stroke-width: 2"/>
    </g>
    <g clip-path="url(#p0da48e476b)">
     <use xlink:href="#C0_0_f68bbc9ed8" x="401.519625" y="183.972463" style="fill: none; stroke: #ff0000; stroke-width: 2"/>
    </g>
    <g clip-path="url(#p0da48e476b)">
     <use xlink:href="#C0_0_f68bbc9ed8" x="407.657625" y="84.966112" style="fill: none; stroke: #ff0000; stroke-width: 2"/>
    </g>
    <g clip-path="url(#p0da48e476b)">
     <use xlink:href="#C0_0_f68bbc9ed8" x="413.795625" y="114.053489" style="fill: none; stroke: #ff0000; stroke-width: 2"/>
    </g>
    <g clip-path="url(#p0da48e476b)">
     <use xlink:href="#C0_0_f68bbc9ed8" x="419.933625" y="197.545331" style="fill: none; stroke: #ff0000; stroke-width: 2"/>
    </g>
    <g clip-path="url(#p0da48e476b)">
     <use xlink:href="#C0_0_f68bbc9ed8" x="426.071625" y="159.196651" style="fill: none; stroke: #ff0000; stroke-width: 2"/>
    </g>
    <g clip-path="url(#p0da48e476b)">
     <use xlink:href="#C0_0_f68bbc9ed8" x="432.209625" y="229.718989" style="fill: none; stroke: #ff0000; stroke-width: 2"/>
    </g>
    <g clip-path="url(#p0da48e476b)">
     <use xlink:href="#C0_0_f68bbc9ed8" x="438.347625" y="232.37361" style="fill: none; stroke: #ff0000; stroke-width: 2"/>
    </g>
    <g clip-path="url(#p0da48e476b)">
     <use xlink:href="#C0_0_f68bbc9ed8" x="444.485625" y="202.762337" style="fill: none; stroke: #ff0000; stroke-width: 2"/>
    </g>
    <g clip-path="url(#p0da48e476b)">
     <use xlink:href="#C0_0_f68bbc9ed8" x="450.623625" y="298.184319" style="fill: none; stroke: #ff0000; stroke-width: 2"/>
    </g>
    <g clip-path="url(#p0da48e476b)">
     <use xlink:href="#C0_0_f68bbc9ed8" x="456.761625" y="286.723885" style="fill: none; stroke: #ff0000; stroke-width: 2"/>
    </g>
    <g clip-path="url(#p0da48e476b)">
     <use xlink:href="#C0_0_f68bbc9ed8" x="462.899625" y="303.922284" style="fill: none; stroke: #ff0000; stroke-width: 2"/>
    </g>
    <g clip-path="url(#p0da48e476b)">
     <use xlink:href="#C0_0_f68bbc9ed8" x="469.037625" y="301.744456" style="fill: none; stroke: #ff0000; stroke-width: 2"/>
    </g>
    <g clip-path="url(#p0da48e476b)">
     <use xlink:href="#C0_0_f68bbc9ed8" x="475.175625" y="287.551447" style="fill: none; stroke: #ff0000; stroke-width: 2"/>
    </g>
    <g clip-path="url(#p0da48e476b)">
     <use xlink:href="#C0_0_f68bbc9ed8" x="481.313625" y="284.842439" style="fill: none; stroke: #ff0000; stroke-width: 2"/>
    </g>
    <g clip-path="url(#p0da48e476b)">
     <use xlink:href="#C0_0_f68bbc9ed8" x="487.451625" y="325.864815" style="fill: none; stroke: #ff0000; stroke-width: 2"/>
    </g>
    <g clip-path="url(#p0da48e476b)">
     <use xlink:href="#C0_0_f68bbc9ed8" x="493.589625" y="329.960891" style="fill: none; stroke: #ff0000; stroke-width: 2"/>
    </g>
    <g clip-path="url(#p0da48e476b)">
     <use xlink:href="#C0_0_f68bbc9ed8" x="499.727625" y="340.686718" style="fill: none; stroke: #ff0000; stroke-width: 2"/>
    </g>
    <g clip-path="url(#p0da48e476b)">
     <use xlink:href="#C0_0_f68bbc9ed8" x="505.865625" y="347.997884" style="fill: none; stroke: #ff0000; stroke-width: 2"/>
    </g>
    <g clip-path="url(#p0da48e476b)">
     <use xlink:href="#C0_0_f68bbc9ed8" x="512.003625" y="343.781116" style="fill: none; stroke: #ff0000; stroke-width: 2"/>
    </g>
    <g clip-path="url(#p0da48e476b)">
     <use xlink:href="#C0_0_f68bbc9ed8" x="518.141625" y="355.84991" style="fill: none; stroke: #ff0000; stroke-width: 2"/>
    </g>
    <g clip-path="url(#p0da48e476b)">
     <use xlink:href="#C0_0_f68bbc9ed8" x="524.279625" y="385.802385" style="fill: none; stroke: #ff0000; stroke-width: 2"/>
    </g>
    <g clip-path="url(#p0da48e476b)">
     <use xlink:href="#C0_0_f68bbc9ed8" x="530.417625" y="365.809666" style="fill: none; stroke: #ff0000; stroke-width: 2"/>
    </g>
    <g clip-path="url(#p0da48e476b)">
     <use xlink:href="#C0_0_f68bbc9ed8" x="536.555625" y="380.842833" style="fill: none; stroke: #ff0000; stroke-width: 2"/>
    </g>
    <g clip-path="url(#p0da48e476b)">
     <use xlink:href="#C0_0_f68bbc9ed8" x="542.693625" y="382.30364" style="fill: none; stroke: #ff0000; stroke-width: 2"/>
    </g>
    <g clip-path="url(#p0da48e476b)">
     <use xlink:href="#C0_0_f68bbc9ed8" x="548.831625" y="385.412612" style="fill: none; stroke: #ff0000; stroke-width: 2"/>
    </g>
    <g clip-path="url(#p0da48e476b)">
     <use xlink:href="#C0_0_f68bbc9ed8" x="554.969625" y="375.2567" style="fill: none; stroke: #ff0000; stroke-width: 2"/>
    </g>
    <g clip-path="url(#p0da48e476b)">
     <use xlink:href="#C0_0_f68bbc9ed8" x="561.107625" y="366.534523" style="fill: none; stroke: #ff0000; stroke-width: 2"/>
    </g>
    <g clip-path="url(#p0da48e476b)">
     <use xlink:href="#C0_0_f68bbc9ed8" x="567.245625" y="394.817091" style="fill: none; stroke: #ff0000; stroke-width: 2"/>
    </g>
    <g clip-path="url(#p0da48e476b)">
     <use xlink:href="#C0_0_f68bbc9ed8" x="573.383625" y="387.568152" style="fill: none; stroke: #ff0000; stroke-width: 2"/>
    </g>
    <g clip-path="url(#p0da48e476b)">
     <use xlink:href="#C0_0_f68bbc9ed8" x="579.521625" y="377.094058" style="fill: none; stroke: #ff0000; stroke-width: 2"/>
    </g>
    <g clip-path="url(#p0da48e476b)">
     <use xlink:href="#C0_0_f68bbc9ed8" x="585.659625" y="388.726134" style="fill: none; stroke: #ff0000; stroke-width: 2"/>
    </g>
    <g clip-path="url(#p0da48e476b)">
     <use xlink:href="#C0_0_f68bbc9ed8" x="591.797625" y="400.591806" style="fill: none; stroke: #ff0000; stroke-width: 2"/>
    </g>
    <g clip-path="url(#p0da48e476b)">
     <use xlink:href="#C0_0_f68bbc9ed8" x="597.935625" y="385.70101" style="fill: none; stroke: #ff0000; stroke-width: 2"/>
    </g>
    <g clip-path="url(#p0da48e476b)">
     <use xlink:href="#C0_0_f68bbc9ed8" x="604.073625" y="404.39301" style="fill: none; stroke: #ff0000; stroke-width: 2"/>
    </g>
    <g clip-path="url(#p0da48e476b)">
     <use xlink:href="#C0_0_f68bbc9ed8" x="610.211625" y="401.097876" style="fill: none; stroke: #ff0000; stroke-width: 2"/>
    </g>
    <g clip-path="url(#p0da48e476b)">
     <use xlink:href="#C0_0_f68bbc9ed8" x="616.349625" y="408.012336" style="fill: none; stroke: #ff0000; stroke-width: 2"/>
    </g>
    <g clip-path="url(#p0da48e476b)">
     <use xlink:href="#C0_0_f68bbc9ed8" x="622.487625" y="401.029346" style="fill: none; stroke: #ff0000; stroke-width: 2"/>
    </g>
    <g clip-path="url(#p0da48e476b)">
     <use xlink:href="#C0_0_f68bbc9ed8" x="628.625625" y="403.280784" style="fill: none; stroke: #ff0000; stroke-width: 2"/>
    </g>
    <g clip-path="url(#p0da48e476b)">
     <use xlink:href="#C0_0_f68bbc9ed8" x="634.763625" y="399.102995" style="fill: none; stroke: #ff0000; stroke-width: 2"/>
    </g>
    <g clip-path="url(#p0da48e476b)">
     <use xlink:href="#C0_0_f68bbc9ed8" x="640.901625" y="411.787643" style="fill: none; stroke: #ff0000; stroke-width: 2"/>
    </g>
    <g clip-path="url(#p0da48e476b)">
     <use xlink:href="#C0_0_f68bbc9ed8" x="647.039625" y="404.851639" style="fill: none; stroke: #ff0000; stroke-width: 2"/>
    </g>
    <g clip-path="url(#p0da48e476b)">
     <use xlink:href="#C0_0_f68bbc9ed8" x="653.177625" y="403.204144" style="fill: none; stroke: #ff0000; stroke-width: 2"/>
    </g>
    <g clip-path="url(#p0da48e476b)">
     <use xlink:href="#C0_0_f68bbc9ed8" x="659.315625" y="414.617876" style="fill: none; stroke: #ff0000; stroke-width: 2"/>
    </g>
    <g clip-path="url(#p0da48e476b)">
     <use xlink:href="#C0_0_f68bbc9ed8" x="665.453625" y="408.933528" style="fill: none; stroke: #ff0000; stroke-width: 2"/>
    </g>
    <g clip-path="url(#p0da48e476b)">
     <use xlink:href="#C0_0_f68bbc9ed8" x="671.591625" y="412.742058" style="fill: none; stroke: #ff0000; stroke-width: 2"/>
    </g>
    <g clip-path="url(#p0da48e476b)">
     <use xlink:href="#C0_0_f68bbc9ed8" x="677.729625" y="403.860905" style="fill: none; stroke: #ff0000; stroke-width: 2"/>
    </g>
    <g clip-path="url(#p0da48e476b)">
     <use xlink:href="#C0_0_f68bbc9ed8" x="683.867625" y="403.864207" style="fill: none; stroke: #ff0000; stroke-width: 2"/>
    </g>
    <g clip-path="url(#p0da48e476b)">
     <use xlink:href="#C0_0_f68bbc9ed8" x="690.005625" y="418.858658" style="fill: none; stroke: #ff0000; stroke-width: 2"/>
    </g>
   </g>
   <g id="matplotlib.axis_1">
    <g id="xtick_1">
     <g id="line2d_1">
      <path d="M 76.205625 440.557187 
L 76.205625 52.477187 
" clip-path="url(#p0da48e476b)" style="fill: none; stroke-dasharray: 2.96,1.28; stroke-dashoffset: 0; stroke: #b0b0b0; stroke-opacity: 0.7; stroke-width: 0.8"/>
     </g>
     <g id="line2d_2">
      <defs>
       <path id="md89c17dbbd" d="M 0 0 
L 0 3.5 
" style="stroke: #000000; stroke-width: 0.8"/>
      </defs>
      <g>
       <use xlink:href="#md89c17dbbd" x="76.205625" y="440.557187" style="stroke: #000000; stroke-width: 0.8"/>
      </g>
     </g>
     <g id="text_1">
      <!-- 0 -->
      <g transform="translate(73.024375 455.155625) scale(0.1 -0.1)">
       <defs>
        <path id="DejaVuSans-30" d="M 2034 4250 
Q 1547 4250 1301 3770 
Q 1056 3291 1056 2328 
Q 1056 1369 1301 889 
Q 1547 409 2034 409 
Q 2525 409 2770 889 
Q 3016 1369 3016 2328 
Q 3016 3291 2770 3770 
Q 2525 4250 2034 4250 
z
M 2034 4750 
Q 2819 4750 3233 4129 
Q 3647 3509 3647 2328 
Q 3647 1150 3233 529 
Q 2819 -91 2034 -91 
Q 1250 -91 836 529 
Q 422 1150 422 2328 
Q 422 3509 836 4129 
Q 1250 4750 2034 4750 
z
" transform="scale(0.015625)"/>
       </defs>
       <use xlink:href="#DejaVuSans-30"/>
      </g>
     </g>
    </g>
    <g id="xtick_2">
     <g id="line2d_3">
      <path d="M 158.045625 440.557187 
L 158.045625 52.477187 
" clip-path="url(#p0da48e476b)" style="fill: none; stroke-dasharray: 2.96,1.28; stroke-dashoffset: 0; stroke: #b0b0b0; stroke-opacity: 0.7; stroke-width: 0.8"/>
     </g>
     <g id="line2d_4">
      <g>
       <use xlink:href="#md89c17dbbd" x="158.045625" y="440.557187" style="stroke: #000000; stroke-width: 0.8"/>
      </g>
     </g>
     <g id="text_2">
      <!-- 2 -->
      <g transform="translate(154.864375 455.155625) scale(0.1 -0.1)">
       <defs>
        <path id="DejaVuSans-32" d="M 1228 531 
L 3431 531 
L 3431 0 
L 469 0 
L 469 531 
Q 828 903 1448 1529 
Q 2069 2156 2228 2338 
Q 2531 2678 2651 2914 
Q 2772 3150 2772 3378 
Q 2772 3750 2511 3984 
Q 2250 4219 1831 4219 
Q 1534 4219 1204 4116 
Q 875 4013 500 3803 
L 500 4441 
Q 881 4594 1212 4672 
Q 1544 4750 1819 4750 
Q 2544 4750 2975 4387 
Q 3406 4025 3406 3419 
Q 3406 3131 3298 2873 
Q 3191 2616 2906 2266 
Q 2828 2175 2409 1742 
Q 1991 1309 1228 531 
z
" transform="scale(0.015625)"/>
       </defs>
       <use xlink:href="#DejaVuSans-32"/>
      </g>
     </g>
    </g>
    <g id="xtick_3">
     <g id="line2d_5">
      <path d="M 239.885625 440.557187 
L 239.885625 52.477187 
" clip-path="url(#p0da48e476b)" style="fill: none; stroke-dasharray: 2.96,1.28; stroke-dashoffset: 0; stroke: #b0b0b0; stroke-opacity: 0.7; stroke-width: 0.8"/>
     </g>
     <g id="line2d_6">
      <g>
       <use xlink:href="#md89c17dbbd" x="239.885625" y="440.557187" style="stroke: #000000; stroke-width: 0.8"/>
      </g>
     </g>
     <g id="text_3">
      <!-- 4 -->
      <g transform="translate(236.704375 455.155625) scale(0.1 -0.1)">
       <defs>
        <path id="DejaVuSans-34" d="M 2419 4116 
L 825 1625 
L 2419 1625 
L 2419 4116 
z
M 2253 4666 
L 3047 4666 
L 3047 1625 
L 3713 1625 
L 3713 1100 
L 3047 1100 
L 3047 0 
L 2419 0 
L 2419 1100 
L 313 1100 
L 313 1709 
L 2253 4666 
z
" transform="scale(0.015625)"/>
       </defs>
       <use xlink:href="#DejaVuSans-34"/>
      </g>
     </g>
    </g>
    <g id="xtick_4">
     <g id="line2d_7">
      <path d="M 321.725625 440.557187 
L 321.725625 52.477187 
" clip-path="url(#p0da48e476b)" style="fill: none; stroke-dasharray: 2.96,1.28; stroke-dashoffset: 0; stroke: #b0b0b0; stroke-opacity: 0.7; stroke-width: 0.8"/>
     </g>
     <g id="line2d_8">
      <g>
       <use xlink:href="#md89c17dbbd" x="321.725625" y="440.557187" style="stroke: #000000; stroke-width: 0.8"/>
      </g>
     </g>
     <g id="text_4">
      <!-- 6 -->
      <g transform="translate(318.544375 455.155625) scale(0.1 -0.1)">
       <defs>
        <path id="DejaVuSans-36" d="M 2113 2584 
Q 1688 2584 1439 2293 
Q 1191 2003 1191 1497 
Q 1191 994 1439 701 
Q 1688 409 2113 409 
Q 2538 409 2786 701 
Q 3034 994 3034 1497 
Q 3034 2003 2786 2293 
Q 2538 2584 2113 2584 
z
M 3366 4563 
L 3366 3988 
Q 3128 4100 2886 4159 
Q 2644 4219 2406 4219 
Q 1781 4219 1451 3797 
Q 1122 3375 1075 2522 
Q 1259 2794 1537 2939 
Q 1816 3084 2150 3084 
Q 2853 3084 3261 2657 
Q 3669 2231 3669 1497 
Q 3669 778 3244 343 
Q 2819 -91 2113 -91 
Q 1303 -91 875 529 
Q 447 1150 447 2328 
Q 447 3434 972 4092 
Q 1497 4750 2381 4750 
Q 2619 4750 2861 4703 
Q 3103 4656 3366 4563 
z
" transform="scale(0.015625)"/>
       </defs>
       <use xlink:href="#DejaVuSans-36"/>
      </g>
     </g>
    </g>
    <g id="xtick_5">
     <g id="line2d_9">
      <path d="M 403.565625 440.557187 
L 403.565625 52.477187 
" clip-path="url(#p0da48e476b)" style="fill: none; stroke-dasharray: 2.96,1.28; stroke-dashoffset: 0; stroke: #b0b0b0; stroke-opacity: 0.7; stroke-width: 0.8"/>
     </g>
     <g id="line2d_10">
      <g>
       <use xlink:href="#md89c17dbbd" x="403.565625" y="440.557187" style="stroke: #000000; stroke-width: 0.8"/>
      </g>
     </g>
     <g id="text_5">
      <!-- 8 -->
      <g transform="translate(400.384375 455.155625) scale(0.1 -0.1)">
       <defs>
        <path id="DejaVuSans-38" d="M 2034 2216 
Q 1584 2216 1326 1975 
Q 1069 1734 1069 1313 
Q 1069 891 1326 650 
Q 1584 409 2034 409 
Q 2484 409 2743 651 
Q 3003 894 3003 1313 
Q 3003 1734 2745 1975 
Q 2488 2216 2034 2216 
z
M 1403 2484 
Q 997 2584 770 2862 
Q 544 3141 544 3541 
Q 544 4100 942 4425 
Q 1341 4750 2034 4750 
Q 2731 4750 3128 4425 
Q 3525 4100 3525 3541 
Q 3525 3141 3298 2862 
Q 3072 2584 2669 2484 
Q 3125 2378 3379 2068 
Q 3634 1759 3634 1313 
Q 3634 634 3220 271 
Q 2806 -91 2034 -91 
Q 1263 -91 848 271 
Q 434 634 434 1313 
Q 434 1759 690 2068 
Q 947 2378 1403 2484 
z
M 1172 3481 
Q 1172 3119 1398 2916 
Q 1625 2713 2034 2713 
Q 2441 2713 2670 2916 
Q 2900 3119 2900 3481 
Q 2900 3844 2670 4047 
Q 2441 4250 2034 4250 
Q 1625 4250 1398 4047 
Q 1172 3844 1172 3481 
z
" transform="scale(0.015625)"/>
       </defs>
       <use xlink:href="#DejaVuSans-38"/>
      </g>
     </g>
    </g>
    <g id="xtick_6">
     <g id="line2d_11">
      <path d="M 485.405625 440.557187 
L 485.405625 52.477187 
" clip-path="url(#p0da48e476b)" style="fill: none; stroke-dasharray: 2.96,1.28; stroke-dashoffset: 0; stroke: #b0b0b0; stroke-opacity: 0.7; stroke-width: 0.8"/>
     </g>
     <g id="line2d_12">
      <g>
       <use xlink:href="#md89c17dbbd" x="485.405625" y="440.557187" style="stroke: #000000; stroke-width: 0.8"/>
      </g>
     </g>
     <g id="text_6">
      <!-- 10 -->
      <g transform="translate(479.043125 455.155625) scale(0.1 -0.1)">
       <defs>
        <path id="DejaVuSans-31" d="M 794 531 
L 1825 531 
L 1825 4091 
L 703 3866 
L 703 4441 
L 1819 4666 
L 2450 4666 
L 2450 531 
L 3481 531 
L 3481 0 
L 794 0 
L 794 531 
z
" transform="scale(0.015625)"/>
       </defs>
       <use xlink:href="#DejaVuSans-31"/>
       <use xlink:href="#DejaVuSans-30" transform="translate(63.623047 0)"/>
      </g>
     </g>
    </g>
    <g id="xtick_7">
     <g id="line2d_13">
      <path d="M 567.245625 440.557187 
L 567.245625 52.477187 
" clip-path="url(#p0da48e476b)" style="fill: none; stroke-dasharray: 2.96,1.28; stroke-dashoffset: 0; stroke: #b0b0b0; stroke-opacity: 0.7; stroke-width: 0.8"/>
     </g>
     <g id="line2d_14">
      <g>
       <use xlink:href="#md89c17dbbd" x="567.245625" y="440.557187" style="stroke: #000000; stroke-width: 0.8"/>
      </g>
     </g>
     <g id="text_7">
      <!-- 12 -->
      <g transform="translate(560.883125 455.155625) scale(0.1 -0.1)">
       <use xlink:href="#DejaVuSans-31"/>
       <use xlink:href="#DejaVuSans-32" transform="translate(63.623047 0)"/>
      </g>
     </g>
    </g>
    <g id="xtick_8">
     <g id="line2d_15">
      <path d="M 649.085625 440.557187 
L 649.085625 52.477187 
" clip-path="url(#p0da48e476b)" style="fill: none; stroke-dasharray: 2.96,1.28; stroke-dashoffset: 0; stroke: #b0b0b0; stroke-opacity: 0.7; stroke-width: 0.8"/>
     </g>
     <g id="line2d_16">
      <g>
       <use xlink:href="#md89c17dbbd" x="649.085625" y="440.557187" style="stroke: #000000; stroke-width: 0.8"/>
      </g>
     </g>
     <g id="text_8">
      <!-- 14 -->
      <g transform="translate(642.723125 455.155625) scale(0.1 -0.1)">
       <use xlink:href="#DejaVuSans-31"/>
       <use xlink:href="#DejaVuSans-34" transform="translate(63.623047 0)"/>
      </g>
     </g>
    </g>
    <g id="text_9">
     <!-- $\omega$ [rad/s] -->
     <g transform="translate(351.885625 471.873125) scale(0.14 -0.14)">
      <defs>
       <path id="DejaVuSans-Oblique-3c9" d="M 1369 -91 
Q 72 -91 434 1766 
Q 575 2500 1256 3500 
L 1875 3500 
Q 1231 2500 1088 1750 
Q 819 397 1519 397 
Q 2166 397 2478 2078 
L 3009 2078 
Q 2669 388 3316 397 
Q 4013 403 4275 1750 
Q 4419 2500 4169 3500 
L 4788 3500 
Q 5075 2500 4934 1766 
Q 4578 -94 3278 -91 
Q 2428 -88 2503 844 
Q 2194 -91 1369 -91 
z
" transform="scale(0.015625)"/>
       <path id="DejaVuSans-20" transform="scale(0.015625)"/>
       <path id="DejaVuSans-5b" d="M 550 4863 
L 1875 4863 
L 1875 4416 
L 1125 4416 
L 1125 -397 
L 1875 -397 
L 1875 -844 
L 550 -844 
L 550 4863 
z
" transform="scale(0.015625)"/>
       <path id="DejaVuSans-72" d="M 2631 2963 
Q 2534 3019 2420 3045 
Q 2306 3072 2169 3072 
Q 1681 3072 1420 2755 
Q 1159 2438 1159 1844 
L 1159 0 
L 581 0 
L 581 3500 
L 1159 3500 
L 1159 2956 
Q 1341 3275 1631 3429 
Q 1922 3584 2338 3584 
Q 2397 3584 2469 3576 
Q 2541 3569 2628 3553 
L 2631 2963 
z
" transform="scale(0.015625)"/>
       <path id="DejaVuSans-61" d="M 2194 1759 
Q 1497 1759 1228 1600 
Q 959 1441 959 1056 
Q 959 750 1161 570 
Q 1363 391 1709 391 
Q 2188 391 2477 730 
Q 2766 1069 2766 1631 
L 2766 1759 
L 2194 1759 
z
M 3341 1997 
L 3341 0 
L 2766 0 
L 2766 531 
Q 2569 213 2275 61 
Q 1981 -91 1556 -91 
Q 1019 -91 701 211 
Q 384 513 384 1019 
Q 384 1609 779 1909 
Q 1175 2209 1959 2209 
L 2766 2209 
L 2766 2266 
Q 2766 2663 2505 2880 
Q 2244 3097 1772 3097 
Q 1472 3097 1187 3025 
Q 903 2953 641 2809 
L 641 3341 
Q 956 3463 1253 3523 
Q 1550 3584 1831 3584 
Q 2591 3584 2966 3190 
Q 3341 2797 3341 1997 
z
" transform="scale(0.015625)"/>
       <path id="DejaVuSans-64" d="M 2906 2969 
L 2906 4863 
L 3481 4863 
L 3481 0 
L 2906 0 
L 2906 525 
Q 2725 213 2448 61 
Q 2172 -91 1784 -91 
Q 1150 -91 751 415 
Q 353 922 353 1747 
Q 353 2572 751 3078 
Q 1150 3584 1784 3584 
Q 2172 3584 2448 3432 
Q 2725 3281 2906 2969 
z
M 947 1747 
Q 947 1113 1208 752 
Q 1469 391 1925 391 
Q 2381 391 2643 752 
Q 2906 1113 2906 1747 
Q 2906 2381 2643 2742 
Q 2381 3103 1925 3103 
Q 1469 3103 1208 2742 
Q 947 2381 947 1747 
z
" transform="scale(0.015625)"/>
       <path id="DejaVuSans-2f" d="M 1625 4666 
L 2156 4666 
L 531 -594 
L 0 -594 
L 1625 4666 
z
" transform="scale(0.015625)"/>
       <path id="DejaVuSans-73" d="M 2834 3397 
L 2834 2853 
Q 2591 2978 2328 3040 
Q 2066 3103 1784 3103 
Q 1356 3103 1142 2972 
Q 928 2841 928 2578 
Q 928 2378 1081 2264 
Q 1234 2150 1697 2047 
L 1894 2003 
Q 2506 1872 2764 1633 
Q 3022 1394 3022 966 
Q 3022 478 2636 193 
Q 2250 -91 1575 -91 
Q 1294 -91 989 -36 
Q 684 19 347 128 
L 347 722 
Q 666 556 975 473 
Q 1284 391 1588 391 
Q 1994 391 2212 530 
Q 2431 669 2431 922 
Q 2431 1156 2273 1281 
Q 2116 1406 1581 1522 
L 1381 1569 
Q 847 1681 609 1914 
Q 372 2147 372 2553 
Q 372 3047 722 3315 
Q 1072 3584 1716 3584 
Q 2034 3584 2315 3537 
Q 2597 3491 2834 3397 
z
" transform="scale(0.015625)"/>
       <path id="DejaVuSans-5d" d="M 1947 4863 
L 1947 -844 
L 622 -844 
L 622 -397 
L 1369 -397 
L 1369 4416 
L 622 4416 
L 622 4863 
L 1947 4863 
z
" transform="scale(0.015625)"/>
      </defs>
      <use xlink:href="#DejaVuSans-Oblique-3c9" transform="translate(0 0.015625)"/>
      <use xlink:href="#DejaVuSans-20" transform="translate(83.740234 0.015625)"/>
      <use xlink:href="#DejaVuSans-5b" transform="translate(115.527344 0.015625)"/>
      <use xlink:href="#DejaVuSans-72" transform="translate(154.541016 0.015625)"/>
      <use xlink:href="#DejaVuSans-61" transform="translate(195.654297 0.015625)"/>
      <use xlink:href="#DejaVuSans-64" transform="translate(256.933594 0.015625)"/>
      <use xlink:href="#DejaVuSans-2f" transform="translate(320.410156 0.015625)"/>
      <use xlink:href="#DejaVuSans-73" transform="translate(354.101562 0.015625)"/>
      <use xlink:href="#DejaVuSans-5d" transform="translate(406.201172 0.015625)"/>
     </g>
    </g>
   </g>
   <g id="matplotlib.axis_2">
    <g id="ytick_1">
     <g id="line2d_17">
      <path d="M 76.205625 440.557187 
L 690.005625 440.557187 
" clip-path="url(#p0da48e476b)" style="fill: none; stroke-dasharray: 2.96,1.28; stroke-dashoffset: 0; stroke: #b0b0b0; stroke-opacity: 0.7; stroke-width: 0.8"/>
     </g>
     <g id="line2d_18">
      <defs>
       <path id="m6655952dc6" d="M 0 0 
L -3.5 0 
" style="stroke: #000000; stroke-width: 0.8"/>
      </defs>
      <g>
       <use xlink:href="#m6655952dc6" x="76.205625" y="440.557187" style="stroke: #000000; stroke-width: 0.8"/>
      </g>
     </g>
     <g id="text_10">
      <!-- 0.00 -->
      <g transform="translate(46.94 444.356406) scale(0.1 -0.1)">
       <defs>
        <path id="DejaVuSans-2e" d="M 684 794 
L 1344 794 
L 1344 0 
L 684 0 
L 684 794 
z
" transform="scale(0.015625)"/>
       </defs>
       <use xlink:href="#DejaVuSans-30"/>
       <use xlink:href="#DejaVuSans-2e" transform="translate(63.623047 0)"/>
       <use xlink:href="#DejaVuSans-30" transform="translate(95.410156 0)"/>
       <use xlink:href="#DejaVuSans-30" transform="translate(159.033203 0)"/>
      </g>
     </g>
    </g>
    <g id="ytick_2">
     <g id="line2d_19">
      <path d="M 76.205625 392.047187 
L 690.005625 392.047187 
" clip-path="url(#p0da48e476b)" style="fill: none; stroke-dasharray: 2.96,1.28; stroke-dashoffset: 0; stroke: #b0b0b0; stroke-opacity: 0.7; stroke-width: 0.8"/>
     </g>
     <g id="line2d_20">
      <g>
       <use xlink:href="#m6655952dc6" x="76.205625" y="392.047187" style="stroke: #000000; stroke-width: 0.8"/>
      </g>
     </g>
     <g id="text_11">
      <!-- 0.01 -->
      <g transform="translate(46.94 395.846406) scale(0.1 -0.1)">
       <use xlink:href="#DejaVuSans-30"/>
       <use xlink:href="#DejaVuSans-2e" transform="translate(63.623047 0)"/>
       <use xlink:href="#DejaVuSans-30" transform="translate(95.410156 0)"/>
       <use xlink:href="#DejaVuSans-31" transform="translate(159.033203 0)"/>
      </g>
     </g>
    </g>
    <g id="ytick_3">
     <g id="line2d_21">
      <path d="M 76.205625 343.537187 
L 690.005625 343.537187 
" clip-path="url(#p0da48e476b)" style="fill: none; stroke-dasharray: 2.96,1.28; stroke-dashoffset: 0; stroke: #b0b0b0; stroke-opacity: 0.7; stroke-width: 0.8"/>
     </g>
     <g id="line2d_22">
      <g>
       <use xlink:href="#m6655952dc6" x="76.205625" y="343.537187" style="stroke: #000000; stroke-width: 0.8"/>
      </g>
     </g>
     <g id="text_12">
      <!-- 0.02 -->
      <g transform="translate(46.94 347.336406) scale(0.1 -0.1)">
       <use xlink:href="#DejaVuSans-30"/>
       <use xlink:href="#DejaVuSans-2e" transform="translate(63.623047 0)"/>
       <use xlink:href="#DejaVuSans-30" transform="translate(95.410156 0)"/>
       <use xlink:href="#DejaVuSans-32" transform="translate(159.033203 0)"/>
      </g>
     </g>
    </g>
    <g id="ytick_4">
     <g id="line2d_23">
      <path d="M 76.205625 295.027187 
L 690.005625 295.027187 
" clip-path="url(#p0da48e476b)" style="fill: none; stroke-dasharray: 2.96,1.28; stroke-dashoffset: 0; stroke: #b0b0b0; stroke-opacity: 0.7; stroke-width: 0.8"/>
     </g>
     <g id="line2d_24">
      <g>
       <use xlink:href="#m6655952dc6" x="76.205625" y="295.027187" style="stroke: #000000; stroke-width: 0.8"/>
      </g>
     </g>
     <g id="text_13">
      <!-- 0.03 -->
      <g transform="translate(46.94 298.826406) scale(0.1 -0.1)">
       <defs>
        <path id="DejaVuSans-33" d="M 2597 2516 
Q 3050 2419 3304 2112 
Q 3559 1806 3559 1356 
Q 3559 666 3084 287 
Q 2609 -91 1734 -91 
Q 1441 -91 1130 -33 
Q 819 25 488 141 
L 488 750 
Q 750 597 1062 519 
Q 1375 441 1716 441 
Q 2309 441 2620 675 
Q 2931 909 2931 1356 
Q 2931 1769 2642 2001 
Q 2353 2234 1838 2234 
L 1294 2234 
L 1294 2753 
L 1863 2753 
Q 2328 2753 2575 2939 
Q 2822 3125 2822 3475 
Q 2822 3834 2567 4026 
Q 2313 4219 1838 4219 
Q 1578 4219 1281 4162 
Q 984 4106 628 3988 
L 628 4550 
Q 988 4650 1302 4700 
Q 1616 4750 1894 4750 
Q 2613 4750 3031 4423 
Q 3450 4097 3450 3541 
Q 3450 3153 3228 2886 
Q 3006 2619 2597 2516 
z
" transform="scale(0.015625)"/>
       </defs>
       <use xlink:href="#DejaVuSans-30"/>
       <use xlink:href="#DejaVuSans-2e" transform="translate(63.623047 0)"/>
       <use xlink:href="#DejaVuSans-30" transform="translate(95.410156 0)"/>
       <use xlink:href="#DejaVuSans-33" transform="translate(159.033203 0)"/>
      </g>
     </g>
    </g>
    <g id="ytick_5">
     <g id="line2d_25">
      <path d="M 76.205625 246.517187 
L 690.005625 246.517187 
" clip-path="url(#p0da48e476b)" style="fill: none; stroke-dasharray: 2.96,1.28; stroke-dashoffset: 0; stroke: #b0b0b0; stroke-opacity: 0.7; stroke-width: 0.8"/>
     </g>
     <g id="line2d_26">
      <g>
       <use xlink:href="#m6655952dc6" x="76.205625" y="246.517187" style="stroke: #000000; stroke-width: 0.8"/>
      </g>
     </g>
     <g id="text_14">
      <!-- 0.04 -->
      <g transform="translate(46.94 250.316406) scale(0.1 -0.1)">
       <use xlink:href="#DejaVuSans-30"/>
       <use xlink:href="#DejaVuSans-2e" transform="translate(63.623047 0)"/>
       <use xlink:href="#DejaVuSans-30" transform="translate(95.410156 0)"/>
       <use xlink:href="#DejaVuSans-34" transform="translate(159.033203 0)"/>
      </g>
     </g>
    </g>
    <g id="ytick_6">
     <g id="line2d_27">
      <path d="M 76.205625 198.007187 
L 690.005625 198.007187 
" clip-path="url(#p0da48e476b)" style="fill: none; stroke-dasharray: 2.96,1.28; stroke-dashoffset: 0; stroke: #b0b0b0; stroke-opacity: 0.7; stroke-width: 0.8"/>
     </g>
     <g id="line2d_28">
      <g>
       <use xlink:href="#m6655952dc6" x="76.205625" y="198.007187" style="stroke: #000000; stroke-width: 0.8"/>
      </g>
     </g>
     <g id="text_15">
      <!-- 0.05 -->
      <g transform="translate(46.94 201.806406) scale(0.1 -0.1)">
       <defs>
        <path id="DejaVuSans-35" d="M 691 4666 
L 3169 4666 
L 3169 4134 
L 1269 4134 
L 1269 2991 
Q 1406 3038 1543 3061 
Q 1681 3084 1819 3084 
Q 2600 3084 3056 2656 
Q 3513 2228 3513 1497 
Q 3513 744 3044 326 
Q 2575 -91 1722 -91 
Q 1428 -91 1123 -41 
Q 819 9 494 109 
L 494 744 
Q 775 591 1075 516 
Q 1375 441 1709 441 
Q 2250 441 2565 725 
Q 2881 1009 2881 1497 
Q 2881 1984 2565 2268 
Q 2250 2553 1709 2553 
Q 1456 2553 1204 2497 
Q 953 2441 691 2322 
L 691 4666 
z
" transform="scale(0.015625)"/>
       </defs>
       <use xlink:href="#DejaVuSans-30"/>
       <use xlink:href="#DejaVuSans-2e" transform="translate(63.623047 0)"/>
       <use xlink:href="#DejaVuSans-30" transform="translate(95.410156 0)"/>
       <use xlink:href="#DejaVuSans-35" transform="translate(159.033203 0)"/>
      </g>
     </g>
    </g>
    <g id="ytick_7">
     <g id="line2d_29">
      <path d="M 76.205625 149.497187 
L 690.005625 149.497187 
" clip-path="url(#p0da48e476b)" style="fill: none; stroke-dasharray: 2.96,1.28; stroke-dashoffset: 0; stroke: #b0b0b0; stroke-opacity: 0.7; stroke-width: 0.8"/>
     </g>
     <g id="line2d_30">
      <g>
       <use xlink:href="#m6655952dc6" x="76.205625" y="149.497187" style="stroke: #000000; stroke-width: 0.8"/>
      </g>
     </g>
     <g id="text_16">
      <!-- 0.06 -->
      <g transform="translate(46.94 153.296406) scale(0.1 -0.1)">
       <use xlink:href="#DejaVuSans-30"/>
       <use xlink:href="#DejaVuSans-2e" transform="translate(63.623047 0)"/>
       <use xlink:href="#DejaVuSans-30" transform="translate(95.410156 0)"/>
       <use xlink:href="#DejaVuSans-36" transform="translate(159.033203 0)"/>
      </g>
     </g>
    </g>
    <g id="ytick_8">
     <g id="line2d_31">
      <path d="M 76.205625 100.987187 
L 690.005625 100.987187 
" clip-path="url(#p0da48e476b)" style="fill: none; stroke-dasharray: 2.96,1.28; stroke-dashoffset: 0; stroke: #b0b0b0; stroke-opacity: 0.7; stroke-width: 0.8"/>
     </g>
     <g id="line2d_32">
      <g>
       <use xlink:href="#m6655952dc6" x="76.205625" y="100.987187" style="stroke: #000000; stroke-width: 0.8"/>
      </g>
     </g>
     <g id="text_17">
      <!-- 0.07 -->
      <g transform="translate(46.94 104.786406) scale(0.1 -0.1)">
       <defs>
        <path id="DejaVuSans-37" d="M 525 4666 
L 3525 4666 
L 3525 4397 
L 1831 0 
L 1172 0 
L 2766 4134 
L 525 4134 
L 525 4666 
z
" transform="scale(0.015625)"/>
       </defs>
       <use xlink:href="#DejaVuSans-30"/>
       <use xlink:href="#DejaVuSans-2e" transform="translate(63.623047 0)"/>
       <use xlink:href="#DejaVuSans-30" transform="translate(95.410156 0)"/>
       <use xlink:href="#DejaVuSans-37" transform="translate(159.033203 0)"/>
      </g>
     </g>
    </g>
    <g id="ytick_9">
     <g id="line2d_33">
      <path d="M 76.205625 52.477187 
L 690.005625 52.477187 
" clip-path="url(#p0da48e476b)" style="fill: none; stroke-dasharray: 2.96,1.28; stroke-dashoffset: 0; stroke: #b0b0b0; stroke-opacity: 0.7; stroke-width: 0.8"/>
     </g>
     <g id="line2d_34">
      <g>
       <use xlink:href="#m6655952dc6" x="76.205625" y="52.477187" style="stroke: #000000; stroke-width: 0.8"/>
      </g>
     </g>
     <g id="text_18">
      <!-- 0.08 -->
      <g transform="translate(46.94 56.276406) scale(0.1 -0.1)">
       <use xlink:href="#DejaVuSans-30"/>
       <use xlink:href="#DejaVuSans-2e" transform="translate(63.623047 0)"/>
       <use xlink:href="#DejaVuSans-30" transform="translate(95.410156 0)"/>
       <use xlink:href="#DejaVuSans-38" transform="translate(159.033203 0)"/>
      </g>
     </g>
    </g>
    <g id="text_19">
     <!-- $|H| [m/N]$ -->
     <g transform="translate(39.58 276.407187) rotate(-90) scale(0.14 -0.14)">
      <defs>
       <path id="DejaVuSans-7c" d="M 1344 4891 
L 1344 -1509 
L 813 -1509 
L 813 4891 
L 1344 4891 
z
" transform="scale(0.015625)"/>
       <path id="DejaVuSans-Oblique-48" d="M 1081 4666 
L 1716 4666 
L 1344 2753 
L 3634 2753 
L 4006 4666 
L 4641 4666 
L 3731 0 
L 3097 0 
L 3531 2222 
L 1241 2222 
L 806 0 
L 172 0 
L 1081 4666 
z
" transform="scale(0.015625)"/>
       <path id="DejaVuSans-Oblique-6d" d="M 5747 2113 
L 5338 0 
L 4763 0 
L 5166 2094 
Q 5191 2228 5203 2325 
Q 5216 2422 5216 2491 
Q 5216 2772 5059 2928 
Q 4903 3084 4622 3084 
Q 4203 3084 3875 2770 
Q 3547 2456 3450 1953 
L 3066 0 
L 2491 0 
L 2900 2094 
Q 2925 2209 2937 2307 
Q 2950 2406 2950 2484 
Q 2950 2769 2794 2926 
Q 2638 3084 2363 3084 
Q 1938 3084 1609 2770 
Q 1281 2456 1184 1953 
L 800 0 
L 225 0 
L 909 3500 
L 1484 3500 
L 1375 2956 
Q 1609 3263 1923 3423 
Q 2238 3584 2597 3584 
Q 2978 3584 3223 3384 
Q 3469 3184 3519 2828 
Q 3781 3197 4126 3390 
Q 4472 3584 4856 3584 
Q 5306 3584 5551 3325 
Q 5797 3066 5797 2591 
Q 5797 2488 5784 2364 
Q 5772 2241 5747 2113 
z
" transform="scale(0.015625)"/>
       <path id="DejaVuSans-Oblique-4e" d="M 1081 4666 
L 1931 4666 
L 3219 666 
L 4000 4666 
L 4616 4666 
L 3706 0 
L 2853 0 
L 1569 4025 
L 788 0 
L 172 0 
L 1081 4666 
z
" transform="scale(0.015625)"/>
      </defs>
      <use xlink:href="#DejaVuSans-7c" transform="translate(0 0.578125)"/>
      <use xlink:href="#DejaVuSans-Oblique-48" transform="translate(33.691406 0.578125)"/>
      <use xlink:href="#DejaVuSans-7c" transform="translate(108.886719 0.578125)"/>
      <use xlink:href="#DejaVuSans-5b" transform="translate(142.578125 0.578125)"/>
      <use xlink:href="#DejaVuSans-Oblique-6d" transform="translate(181.591797 0.578125)"/>
      <use xlink:href="#DejaVuSans-2f" transform="translate(279.003906 0.578125)"/>
      <use xlink:href="#DejaVuSans-Oblique-4e" transform="translate(312.695312 0.578125)"/>
      <use xlink:href="#DejaVuSans-5d" transform="translate(387.5 0.578125)"/>
     </g>
    </g>
   </g>
   <g id="line2d_35">
    <path d="M 76.205625 364.760312 
L 89.095425 364.646304 
L 101.985225 364.302282 
L 114.261225 363.755278 
L 126.537225 362.985253 
L 138.199425 362.035517 
L 149.861625 360.858247 
L 160.910025 359.515983 
L 171.344625 358.027145 
L 181.165425 356.410719 
L 190.986225 354.564264 
L 200.193225 352.60192 
L 208.786425 350.546145 
L 216.765825 348.422019 
L 224.745225 346.067657 
L 232.110825 343.667335 
L 239.476425 341.024252 
L 246.228225 338.364211 
L 252.980025 335.451449 
L 259.118025 332.559806 
L 265.256025 329.410196 
L 270.780225 326.331243 
L 276.304425 322.996066 
L 281.828625 319.377449 
L 286.739025 315.898039 
L 291.649425 312.145776 
L 296.559825 308.093172 
L 300.856425 304.276648 
L 305.153025 300.183747 
L 309.449625 295.789273 
L 313.746225 291.065612 
L 318.042825 285.982669 
L 322.339425 280.507922 
L 326.022225 275.477165 
L 329.705025 270.11018 
L 333.387825 264.383578 
L 337.070625 258.274135 
L 340.753425 251.759803 
L 344.436225 244.821198 
L 348.119025 237.443738 
L 351.801825 229.620639 
L 356.098425 219.938178 
L 360.395025 209.695768 
L 365.305425 197.418675 
L 379.422825 161.549763 
L 382.491825 154.55925 
L 384.947025 149.474813 
L 387.402225 144.972519 
L 389.243625 142.051353 
L 391.085025 139.576179 
L 392.926425 137.593359 
L 394.154025 136.565572 
L 395.381625 135.78552 
L 396.609225 135.262089 
L 397.836825 135.002359 
L 399.064425 135.011438 
L 400.292025 135.292337 
L 401.519625 135.845896 
L 402.747225 136.670743 
L 403.974825 137.763319 
L 405.202425 139.117941 
L 406.430025 140.726911 
L 408.271425 143.595903 
L 410.112825 146.97622 
L 411.954225 150.822047 
L 414.409425 156.58583 
L 416.864625 162.959045 
L 419.933625 171.585315 
L 424.230225 184.464401 
L 438.347625 227.503663 
L 442.644225 239.640641 
L 446.940825 251.063697 
L 450.623625 260.254631 
L 454.306425 268.888731 
L 457.989225 276.978642 
L 461.672025 284.54624 
L 465.354825 291.618859 
L 469.037625 298.226618 
L 472.720425 304.400598 
L 476.403225 310.171618 
L 480.086025 315.569467 
L 483.768825 320.62243 
L 488.065425 326.116954 
L 492.362025 331.217029 
L 496.658625 335.958143 
L 500.955225 340.372462 
L 505.251825 344.489038 
L 510.162225 348.862576 
L 515.072625 352.916261 
L 519.983025 356.68105 
L 524.893425 360.184386 
L 530.417625 363.843332 
L 535.941825 367.23271 
L 541.466025 370.379353 
L 547.604025 373.619525 
L 553.742025 376.617406 
L 560.493825 379.664601 
L 567.245625 382.476996 
L 574.611225 385.306249 
L 582.590625 388.121186 
L 590.570025 390.705419 
L 599.163225 393.260049 
L 608.370225 395.764853 
L 618.191025 398.20349 
L 628.625625 400.56322 
L 639.674025 402.834535 
L 651.336225 405.010771 
L 664.226025 407.186311 
L 677.729625 409.24133 
L 690.005625 410.936592 
L 690.005625 410.936592 
" clip-path="url(#p0da48e476b)" style="fill: none; stroke-dasharray: 6.475,2.8; stroke-dashoffset: 0; stroke: #0000ff; stroke-width: 1.75"/>
   </g>
   <g id="patch_3">
    <path d="M 76.205625 440.557187 
L 76.205625 52.477187 
" style="fill: none; stroke: #000000; stroke-width: 0.8; stroke-linejoin: miter; stroke-linecap: square"/>
   </g>
   <g id="patch_4">
    <path d="M 690.005625 440.557187 
L 690.005625 52.477187 
" style="fill: none; stroke: #000000; stroke-width: 0.8; stroke-linejoin: miter; stroke-linecap: square"/>
   </g>
   <g id="patch_5">
    <path d="M 76.205625 440.557187 
L 690.005625 440.557187 
" style="fill: none; stroke: #000000; stroke-width: 0.8; stroke-linejoin: miter; stroke-linecap: square"/>
   </g>
   <g id="patch_6">
    <path d="M 76.205625 52.477187 
L 690.005625 52.477187 
" style="fill: none; stroke: #000000; stroke-width: 0.8; stroke-linejoin: miter; stroke-linecap: square"/>
   </g>
   <g id="text_20">
    <!-- True FRF vs Experimental data -->
    <g transform="translate(227.76 42.477187) scale(0.18 -0.18)">
     <defs>
      <path id="DejaVuSans-Bold-54" d="M 31 4666 
L 4331 4666 
L 4331 3756 
L 2784 3756 
L 2784 0 
L 1581 0 
L 1581 3756 
L 31 3756 
L 31 4666 
z
" transform="scale(0.015625)"/>
      <path id="DejaVuSans-Bold-72" d="M 3138 2547 
Q 2991 2616 2845 2648 
Q 2700 2681 2553 2681 
Q 2122 2681 1889 2404 
Q 1656 2128 1656 1613 
L 1656 0 
L 538 0 
L 538 3500 
L 1656 3500 
L 1656 2925 
Q 1872 3269 2151 3426 
Q 2431 3584 2822 3584 
Q 2878 3584 2943 3579 
Q 3009 3575 3134 3559 
L 3138 2547 
z
" transform="scale(0.015625)"/>
      <path id="DejaVuSans-Bold-75" d="M 500 1363 
L 500 3500 
L 1625 3500 
L 1625 3150 
Q 1625 2866 1622 2436 
Q 1619 2006 1619 1863 
Q 1619 1441 1641 1255 
Q 1663 1069 1716 984 
Q 1784 875 1895 815 
Q 2006 756 2150 756 
Q 2500 756 2700 1025 
Q 2900 1294 2900 1772 
L 2900 3500 
L 4019 3500 
L 4019 0 
L 2900 0 
L 2900 506 
Q 2647 200 2364 54 
Q 2081 -91 1741 -91 
Q 1134 -91 817 281 
Q 500 653 500 1363 
z
" transform="scale(0.015625)"/>
      <path id="DejaVuSans-Bold-65" d="M 4031 1759 
L 4031 1441 
L 1416 1441 
Q 1456 1047 1700 850 
Q 1944 653 2381 653 
Q 2734 653 3104 758 
Q 3475 863 3866 1075 
L 3866 213 
Q 3469 63 3072 -14 
Q 2675 -91 2278 -91 
Q 1328 -91 801 392 
Q 275 875 275 1747 
Q 275 2603 792 3093 
Q 1309 3584 2216 3584 
Q 3041 3584 3536 3087 
Q 4031 2591 4031 1759 
z
M 2881 2131 
Q 2881 2450 2695 2645 
Q 2509 2841 2209 2841 
Q 1884 2841 1681 2658 
Q 1478 2475 1428 2131 
L 2881 2131 
z
" transform="scale(0.015625)"/>
      <path id="DejaVuSans-Bold-20" transform="scale(0.015625)"/>
      <path id="DejaVuSans-Bold-46" d="M 588 4666 
L 3834 4666 
L 3834 3756 
L 1791 3756 
L 1791 2888 
L 3713 2888 
L 3713 1978 
L 1791 1978 
L 1791 0 
L 588 0 
L 588 4666 
z
" transform="scale(0.015625)"/>
      <path id="DejaVuSans-Bold-52" d="M 2297 2597 
Q 2675 2597 2839 2737 
Q 3003 2878 3003 3200 
Q 3003 3519 2839 3656 
Q 2675 3794 2297 3794 
L 1791 3794 
L 1791 2597 
L 2297 2597 
z
M 1791 1766 
L 1791 0 
L 588 0 
L 588 4666 
L 2425 4666 
Q 3347 4666 3776 4356 
Q 4206 4047 4206 3378 
Q 4206 2916 3982 2619 
Q 3759 2322 3309 2181 
Q 3556 2125 3751 1926 
Q 3947 1728 4147 1325 
L 4800 0 
L 3519 0 
L 2950 1159 
Q 2778 1509 2601 1637 
Q 2425 1766 2131 1766 
L 1791 1766 
z
" transform="scale(0.015625)"/>
      <path id="DejaVuSans-Bold-76" d="M 97 3500 
L 1216 3500 
L 2088 1081 
L 2956 3500 
L 4078 3500 
L 2700 0 
L 1472 0 
L 97 3500 
z
" transform="scale(0.015625)"/>
      <path id="DejaVuSans-Bold-73" d="M 3272 3391 
L 3272 2541 
Q 2913 2691 2578 2766 
Q 2244 2841 1947 2841 
Q 1628 2841 1473 2761 
Q 1319 2681 1319 2516 
Q 1319 2381 1436 2309 
Q 1553 2238 1856 2203 
L 2053 2175 
Q 2913 2066 3209 1816 
Q 3506 1566 3506 1031 
Q 3506 472 3093 190 
Q 2681 -91 1863 -91 
Q 1516 -91 1145 -36 
Q 775 19 384 128 
L 384 978 
Q 719 816 1070 734 
Q 1422 653 1784 653 
Q 2113 653 2278 743 
Q 2444 834 2444 1013 
Q 2444 1163 2330 1236 
Q 2216 1309 1875 1350 
L 1678 1375 
Q 931 1469 631 1722 
Q 331 1975 331 2491 
Q 331 3047 712 3315 
Q 1094 3584 1881 3584 
Q 2191 3584 2531 3537 
Q 2872 3491 3272 3391 
z
" transform="scale(0.015625)"/>
      <path id="DejaVuSans-Bold-45" d="M 588 4666 
L 3834 4666 
L 3834 3756 
L 1791 3756 
L 1791 2888 
L 3713 2888 
L 3713 1978 
L 1791 1978 
L 1791 909 
L 3903 909 
L 3903 0 
L 588 0 
L 588 4666 
z
" transform="scale(0.015625)"/>
      <path id="DejaVuSans-Bold-78" d="M 1422 1791 
L 159 3500 
L 1344 3500 
L 2059 2463 
L 2784 3500 
L 3969 3500 
L 2706 1797 
L 4031 0 
L 2847 0 
L 2059 1106 
L 1281 0 
L 97 0 
L 1422 1791 
z
" transform="scale(0.015625)"/>
      <path id="DejaVuSans-Bold-70" d="M 1656 506 
L 1656 -1331 
L 538 -1331 
L 538 3500 
L 1656 3500 
L 1656 2988 
Q 1888 3294 2169 3439 
Q 2450 3584 2816 3584 
Q 3463 3584 3878 3070 
Q 4294 2556 4294 1747 
Q 4294 938 3878 423 
Q 3463 -91 2816 -91 
Q 2450 -91 2169 54 
Q 1888 200 1656 506 
z
M 2400 2772 
Q 2041 2772 1848 2508 
Q 1656 2244 1656 1747 
Q 1656 1250 1848 986 
Q 2041 722 2400 722 
Q 2759 722 2948 984 
Q 3138 1247 3138 1747 
Q 3138 2247 2948 2509 
Q 2759 2772 2400 2772 
z
" transform="scale(0.015625)"/>
      <path id="DejaVuSans-Bold-69" d="M 538 3500 
L 1656 3500 
L 1656 0 
L 538 0 
L 538 3500 
z
M 538 4863 
L 1656 4863 
L 1656 3950 
L 538 3950 
L 538 4863 
z
" transform="scale(0.015625)"/>
      <path id="DejaVuSans-Bold-6d" d="M 3781 2919 
Q 3994 3244 4286 3414 
Q 4578 3584 4928 3584 
Q 5531 3584 5847 3212 
Q 6163 2841 6163 2131 
L 6163 0 
L 5038 0 
L 5038 1825 
Q 5041 1866 5042 1909 
Q 5044 1953 5044 2034 
Q 5044 2406 4934 2573 
Q 4825 2741 4581 2741 
Q 4263 2741 4089 2478 
Q 3916 2216 3909 1719 
L 3909 0 
L 2784 0 
L 2784 1825 
Q 2784 2406 2684 2573 
Q 2584 2741 2328 2741 
Q 2006 2741 1831 2477 
Q 1656 2213 1656 1722 
L 1656 0 
L 531 0 
L 531 3500 
L 1656 3500 
L 1656 2988 
Q 1863 3284 2130 3434 
Q 2397 3584 2719 3584 
Q 3081 3584 3359 3409 
Q 3638 3234 3781 2919 
z
" transform="scale(0.015625)"/>
      <path id="DejaVuSans-Bold-6e" d="M 4056 2131 
L 4056 0 
L 2931 0 
L 2931 347 
L 2931 1631 
Q 2931 2084 2911 2256 
Q 2891 2428 2841 2509 
Q 2775 2619 2662 2680 
Q 2550 2741 2406 2741 
Q 2056 2741 1856 2470 
Q 1656 2200 1656 1722 
L 1656 0 
L 538 0 
L 538 3500 
L 1656 3500 
L 1656 2988 
Q 1909 3294 2193 3439 
Q 2478 3584 2822 3584 
Q 3428 3584 3742 3212 
Q 4056 2841 4056 2131 
z
" transform="scale(0.015625)"/>
      <path id="DejaVuSans-Bold-74" d="M 1759 4494 
L 1759 3500 
L 2913 3500 
L 2913 2700 
L 1759 2700 
L 1759 1216 
Q 1759 972 1856 886 
Q 1953 800 2241 800 
L 2816 800 
L 2816 0 
L 1856 0 
Q 1194 0 917 276 
Q 641 553 641 1216 
L 641 2700 
L 84 2700 
L 84 3500 
L 641 3500 
L 641 4494 
L 1759 4494 
z
" transform="scale(0.015625)"/>
      <path id="DejaVuSans-Bold-61" d="M 2106 1575 
Q 1756 1575 1579 1456 
Q 1403 1338 1403 1106 
Q 1403 894 1545 773 
Q 1688 653 1941 653 
Q 2256 653 2472 879 
Q 2688 1106 2688 1447 
L 2688 1575 
L 2106 1575 
z
M 3816 1997 
L 3816 0 
L 2688 0 
L 2688 519 
Q 2463 200 2181 54 
Q 1900 -91 1497 -91 
Q 953 -91 614 226 
Q 275 544 275 1050 
Q 275 1666 698 1953 
Q 1122 2241 2028 2241 
L 2688 2241 
L 2688 2328 
Q 2688 2594 2478 2717 
Q 2269 2841 1825 2841 
Q 1466 2841 1156 2769 
Q 847 2697 581 2553 
L 581 3406 
Q 941 3494 1303 3539 
Q 1666 3584 2028 3584 
Q 2975 3584 3395 3211 
Q 3816 2838 3816 1997 
z
" transform="scale(0.015625)"/>
      <path id="DejaVuSans-Bold-6c" d="M 538 4863 
L 1656 4863 
L 1656 0 
L 538 0 
L 538 4863 
z
" transform="scale(0.015625)"/>
      <path id="DejaVuSans-Bold-64" d="M 2919 2988 
L 2919 4863 
L 4044 4863 
L 4044 0 
L 2919 0 
L 2919 506 
Q 2688 197 2409 53 
Q 2131 -91 1766 -91 
Q 1119 -91 703 423 
Q 288 938 288 1747 
Q 288 2556 703 3070 
Q 1119 3584 1766 3584 
Q 2128 3584 2408 3439 
Q 2688 3294 2919 2988 
z
M 2181 722 
Q 2541 722 2730 984 
Q 2919 1247 2919 1747 
Q 2919 2247 2730 2509 
Q 2541 2772 2181 2772 
Q 1825 2772 1636 2509 
Q 1447 2247 1447 1747 
Q 1447 1247 1636 984 
Q 1825 722 2181 722 
z
" transform="scale(0.015625)"/>
     </defs>
     <use xlink:href="#DejaVuSans-Bold-54"/>
     <use xlink:href="#DejaVuSans-Bold-72" transform="translate(57.212891 0)"/>
     <use xlink:href="#DejaVuSans-Bold-75" transform="translate(106.529297 0)"/>
     <use xlink:href="#DejaVuSans-Bold-65" transform="translate(177.720703 0)"/>
     <use xlink:href="#DejaVuSans-Bold-20" transform="translate(245.542969 0)"/>
     <use xlink:href="#DejaVuSans-Bold-46" transform="translate(280.357422 0)"/>
     <use xlink:href="#DejaVuSans-Bold-52" transform="translate(348.667969 0)"/>
     <use xlink:href="#DejaVuSans-Bold-46" transform="translate(425.669922 0)"/>
     <use xlink:href="#DejaVuSans-Bold-20" transform="translate(493.980469 0)"/>
     <use xlink:href="#DejaVuSans-Bold-76" transform="translate(528.794922 0)"/>
     <use xlink:href="#DejaVuSans-Bold-73" transform="translate(593.980469 0)"/>
     <use xlink:href="#DejaVuSans-Bold-20" transform="translate(653.501953 0)"/>
     <use xlink:href="#DejaVuSans-Bold-45" transform="translate(688.316406 0)"/>
     <use xlink:href="#DejaVuSans-Bold-78" transform="translate(756.626953 0)"/>
     <use xlink:href="#DejaVuSans-Bold-70" transform="translate(821.128906 0)"/>
     <use xlink:href="#DejaVuSans-Bold-65" transform="translate(892.710938 0)"/>
     <use xlink:href="#DejaVuSans-Bold-72" transform="translate(960.533203 0)"/>
     <use xlink:href="#DejaVuSans-Bold-69" transform="translate(1009.849609 0)"/>
     <use xlink:href="#DejaVuSans-Bold-6d" transform="translate(1044.126953 0)"/>
     <use xlink:href="#DejaVuSans-Bold-65" transform="translate(1148.326172 0)"/>
     <use xlink:href="#DejaVuSans-Bold-6e" transform="translate(1216.148438 0)"/>
     <use xlink:href="#DejaVuSans-Bold-74" transform="translate(1287.339844 0)"/>
     <use xlink:href="#DejaVuSans-Bold-61" transform="translate(1335.142578 0)"/>
     <use xlink:href="#DejaVuSans-Bold-6c" transform="translate(1402.623047 0)"/>
     <use xlink:href="#DejaVuSans-Bold-20" transform="translate(1436.900391 0)"/>
     <use xlink:href="#DejaVuSans-Bold-64" transform="translate(1471.714844 0)"/>
     <use xlink:href="#DejaVuSans-Bold-61" transform="translate(1543.296875 0)"/>
     <use xlink:href="#DejaVuSans-Bold-74" transform="translate(1610.777344 0)"/>
     <use xlink:href="#DejaVuSans-Bold-61" transform="translate(1658.580078 0)"/>
    </g>
   </g>
   <g id="legend_1">
    <g id="patch_7">
     <path d="M 521.165625 97.330937 
L 681.605625 97.330937 
Q 684.005625 97.330937 684.005625 94.930937 
L 684.005625 60.877187 
Q 684.005625 58.477187 681.605625 58.477187 
L 521.165625 58.477187 
Q 518.765625 58.477187 518.765625 60.877187 
L 518.765625 94.930937 
Q 518.765625 97.330937 521.165625 97.330937 
z
" style="fill: #ffffff; opacity: 0.8; stroke: #cccccc; stroke-linejoin: miter"/>
    </g>
    <g id="PathCollection_2">
     <path d="M 535.565625 72.245312 
C 536.361234 72.245312 537.124365 71.929214 537.686945 71.366633 
C 538.249526 70.804052 538.565625 70.040922 538.565625 69.245312 
C 538.565625 68.449703 538.249526 67.686573 537.686945 67.123992 
C 537.124365 66.561411 536.361234 66.245312 535.565625 66.245312 
C 534.770016 66.245312 534.006885 66.561411 533.444305 67.123992 
C 532.881724 67.686573 532.565625 68.449703 532.565625 69.245312 
C 532.565625 70.040922 532.881724 70.804052 533.444305 71.366633 
C 534.006885 71.929214 534.770016 72.245312 535.565625 72.245312 
L 535.565625 72.245312 
z
" style="fill: none; stroke: #ff0000; stroke-width: 2"/>
    </g>
    <g id="text_21">
     <!-- Measurements -->
     <g transform="translate(557.165625 72.395312) scale(0.12 -0.12)">
      <defs>
       <path id="DejaVuSans-4d" d="M 628 4666 
L 1569 4666 
L 2759 1491 
L 3956 4666 
L 4897 4666 
L 4897 0 
L 4281 0 
L 4281 4097 
L 3078 897 
L 2444 897 
L 1241 4097 
L 1241 0 
L 628 0 
L 628 4666 
z
" transform="scale(0.015625)"/>
       <path id="DejaVuSans-65" d="M 3597 1894 
L 3597 1613 
L 953 1613 
Q 991 1019 1311 708 
Q 1631 397 2203 397 
Q 2534 397 2845 478 
Q 3156 559 3463 722 
L 3463 178 
Q 3153 47 2828 -22 
Q 2503 -91 2169 -91 
Q 1331 -91 842 396 
Q 353 884 353 1716 
Q 353 2575 817 3079 
Q 1281 3584 2069 3584 
Q 2775 3584 3186 3129 
Q 3597 2675 3597 1894 
z
M 3022 2063 
Q 3016 2534 2758 2815 
Q 2500 3097 2075 3097 
Q 1594 3097 1305 2825 
Q 1016 2553 972 2059 
L 3022 2063 
z
" transform="scale(0.015625)"/>
       <path id="DejaVuSans-75" d="M 544 1381 
L 544 3500 
L 1119 3500 
L 1119 1403 
Q 1119 906 1312 657 
Q 1506 409 1894 409 
Q 2359 409 2629 706 
Q 2900 1003 2900 1516 
L 2900 3500 
L 3475 3500 
L 3475 0 
L 2900 0 
L 2900 538 
Q 2691 219 2414 64 
Q 2138 -91 1772 -91 
Q 1169 -91 856 284 
Q 544 659 544 1381 
z
M 1991 3584 
L 1991 3584 
z
" transform="scale(0.015625)"/>
       <path id="DejaVuSans-6d" d="M 3328 2828 
Q 3544 3216 3844 3400 
Q 4144 3584 4550 3584 
Q 5097 3584 5394 3201 
Q 5691 2819 5691 2113 
L 5691 0 
L 5113 0 
L 5113 2094 
Q 5113 2597 4934 2840 
Q 4756 3084 4391 3084 
Q 3944 3084 3684 2787 
Q 3425 2491 3425 1978 
L 3425 0 
L 2847 0 
L 2847 2094 
Q 2847 2600 2669 2842 
Q 2491 3084 2119 3084 
Q 1678 3084 1418 2786 
Q 1159 2488 1159 1978 
L 1159 0 
L 581 0 
L 581 3500 
L 1159 3500 
L 1159 2956 
Q 1356 3278 1631 3431 
Q 1906 3584 2284 3584 
Q 2666 3584 2933 3390 
Q 3200 3197 3328 2828 
z
" transform="scale(0.015625)"/>
       <path id="DejaVuSans-6e" d="M 3513 2113 
L 3513 0 
L 2938 0 
L 2938 2094 
Q 2938 2591 2744 2837 
Q 2550 3084 2163 3084 
Q 1697 3084 1428 2787 
Q 1159 2491 1159 1978 
L 1159 0 
L 581 0 
L 581 3500 
L 1159 3500 
L 1159 2956 
Q 1366 3272 1645 3428 
Q 1925 3584 2291 3584 
Q 2894 3584 3203 3211 
Q 3513 2838 3513 2113 
z
" transform="scale(0.015625)"/>
       <path id="DejaVuSans-74" d="M 1172 4494 
L 1172 3500 
L 2356 3500 
L 2356 3053 
L 1172 3053 
L 1172 1153 
Q 1172 725 1289 603 
Q 1406 481 1766 481 
L 2356 481 
L 2356 0 
L 1766 0 
Q 1100 0 847 248 
Q 594 497 594 1153 
L 594 3053 
L 172 3053 
L 172 3500 
L 594 3500 
L 594 4494 
L 1172 4494 
z
" transform="scale(0.015625)"/>
      </defs>
      <use xlink:href="#DejaVuSans-4d"/>
      <use xlink:href="#DejaVuSans-65" transform="translate(86.279297 0)"/>
      <use xlink:href="#DejaVuSans-61" transform="translate(147.802734 0)"/>
      <use xlink:href="#DejaVuSans-73" transform="translate(209.082031 0)"/>
      <use xlink:href="#DejaVuSans-75" transform="translate(261.181641 0)"/>
      <use xlink:href="#DejaVuSans-72" transform="translate(324.560547 0)"/>
      <use xlink:href="#DejaVuSans-65" transform="translate(363.423828 0)"/>
      <use xlink:href="#DejaVuSans-6d" transform="translate(424.947266 0)"/>
      <use xlink:href="#DejaVuSans-65" transform="translate(522.359375 0)"/>
      <use xlink:href="#DejaVuSans-6e" transform="translate(583.882812 0)"/>
      <use xlink:href="#DejaVuSans-74" transform="translate(647.261719 0)"/>
      <use xlink:href="#DejaVuSans-73" transform="translate(686.470703 0)"/>
     </g>
    </g>
    <g id="line2d_36">
     <path d="M 523.565625 85.810937 
L 535.565625 85.810937 
L 547.565625 85.810937 
" style="fill: none; stroke-dasharray: 6.475,2.8; stroke-dashoffset: 0; stroke: #0000ff; stroke-width: 1.75"/>
    </g>
    <g id="text_22">
     <!-- True FRF ($\zeta = 0.125)$ -->
     <g transform="translate(557.165625 90.010937) scale(0.12 -0.12)">
      <defs>
       <path id="DejaVuSans-54" d="M -19 4666 
L 3928 4666 
L 3928 4134 
L 2272 4134 
L 2272 0 
L 1638 0 
L 1638 4134 
L -19 4134 
L -19 4666 
z
" transform="scale(0.015625)"/>
       <path id="DejaVuSans-46" d="M 628 4666 
L 3309 4666 
L 3309 4134 
L 1259 4134 
L 1259 2759 
L 3109 2759 
L 3109 2228 
L 1259 2228 
L 1259 0 
L 628 0 
L 628 4666 
z
" transform="scale(0.015625)"/>
       <path id="DejaVuSans-52" d="M 2841 2188 
Q 3044 2119 3236 1894 
Q 3428 1669 3622 1275 
L 4263 0 
L 3584 0 
L 2988 1197 
Q 2756 1666 2539 1819 
Q 2322 1972 1947 1972 
L 1259 1972 
L 1259 0 
L 628 0 
L 628 4666 
L 2053 4666 
Q 2853 4666 3247 4331 
Q 3641 3997 3641 3322 
Q 3641 2881 3436 2590 
Q 3231 2300 2841 2188 
z
M 1259 4147 
L 1259 2491 
L 2053 2491 
Q 2509 2491 2742 2702 
Q 2975 2913 2975 3322 
Q 2975 3731 2742 3939 
Q 2509 4147 2053 4147 
L 1259 4147 
z
" transform="scale(0.015625)"/>
       <path id="DejaVuSans-28" d="M 1984 4856 
Q 1566 4138 1362 3434 
Q 1159 2731 1159 2009 
Q 1159 1288 1364 580 
Q 1569 -128 1984 -844 
L 1484 -844 
Q 1016 -109 783 600 
Q 550 1309 550 2009 
Q 550 2706 781 3412 
Q 1013 4119 1484 4856 
L 1984 4856 
z
" transform="scale(0.015625)"/>
       <path id="DejaVuSans-Oblique-3b6" d="M 1966 397 
Q 2378 394 2578 159 
Q 2794 -88 2722 -463 
Q 2650 -822 2372 -1072 
Q 2069 -1344 1559 -1344 
Q 1606 -1109 1650 -872 
Q 1863 -888 2022 -750 
Q 2144 -641 2166 -525 
Q 2197 -359 2125 -222 
Q 2050 -91 1872 -91 
Q -22 -91 316 1669 
Q 616 3206 2609 4284 
L 947 4284 
L 1059 4863 
L 3778 4863 
L 3666 4284 
Q 1181 3147 894 1669 
Q 647 397 1966 397 
z
" transform="scale(0.015625)"/>
       <path id="DejaVuSans-3d" d="M 678 2906 
L 4684 2906 
L 4684 2381 
L 678 2381 
L 678 2906 
z
M 678 1631 
L 4684 1631 
L 4684 1100 
L 678 1100 
L 678 1631 
z
" transform="scale(0.015625)"/>
       <path id="DejaVuSans-29" d="M 513 4856 
L 1013 4856 
Q 1481 4119 1714 3412 
Q 1947 2706 1947 2009 
Q 1947 1309 1714 600 
Q 1481 -109 1013 -844 
L 513 -844 
Q 928 -128 1133 580 
Q 1338 1288 1338 2009 
Q 1338 2731 1133 3434 
Q 928 4138 513 4856 
z
" transform="scale(0.015625)"/>
      </defs>
      <use xlink:href="#DejaVuSans-54" transform="translate(0 0.015625)"/>
      <use xlink:href="#DejaVuSans-72" transform="translate(61.083984 0.015625)"/>
      <use xlink:href="#DejaVuSans-75" transform="translate(102.197266 0.015625)"/>
      <use xlink:href="#DejaVuSans-65" transform="translate(165.576172 0.015625)"/>
      <use xlink:href="#DejaVuSans-20" transform="translate(227.099609 0.015625)"/>
      <use xlink:href="#DejaVuSans-46" transform="translate(258.886719 0.015625)"/>
      <use xlink:href="#DejaVuSans-52" transform="translate(316.40625 0.015625)"/>
      <use xlink:href="#DejaVuSans-46" transform="translate(385.888672 0.015625)"/>
      <use xlink:href="#DejaVuSans-20" transform="translate(443.408203 0.015625)"/>
      <use xlink:href="#DejaVuSans-28" transform="translate(475.195312 0.015625)"/>
      <use xlink:href="#DejaVuSans-Oblique-3b6" transform="translate(514.208984 0.015625)"/>
      <use xlink:href="#DejaVuSans-3d" transform="translate(588.085938 0.015625)"/>
      <use xlink:href="#DejaVuSans-30" transform="translate(691.357422 0.015625)"/>
      <use xlink:href="#DejaVuSans-2e" transform="translate(754.980469 0.015625)"/>
      <use xlink:href="#DejaVuSans-31" transform="translate(786.767578 0.015625)"/>
      <use xlink:href="#DejaVuSans-32" transform="translate(850.390625 0.015625)"/>
      <use xlink:href="#DejaVuSans-35" transform="translate(914.013672 0.015625)"/>
      <use xlink:href="#DejaVuSans-29" transform="translate(977.636719 0.015625)"/>
     </g>
    </g>
   </g>
  </g>
 </g>
 <defs>
  <clipPath id="p0da48e476b">
   <rect x="76.205625" y="52.477187" width="613.8" height="388.08"/>
  </clipPath>
 </defs>
</svg>
