<?xml version="1.0" encoding="utf-8" standalone="no"?>
<!DOCTYPE svg PUBLIC "-//W3C//DTD SVG 1.1//EN"
  "http://www.w3.org/Graphics/SVG/1.1/DTD/svg11.dtd">
<svg xmlns:xlink="http://www.w3.org/1999/xlink" width="824.405625pt" height="535.739375pt" viewBox="0 0 824.405625 535.739375" xmlns="http://www.w3.org/2000/svg" version="1.1">
 <metadata>
  <rdf:RDF xmlns:dc="http://purl.org/dc/elements/1.1/" xmlns:cc="http://creativecommons.org/ns#" xmlns:rdf="http://www.w3.org/1999/02/22-rdf-syntax-ns#">
   <cc:Work>
    <dc:type rdf:resource="http://purl.org/dc/dcmitype/StillImage"/>
    <dc:date>2025-03-24T16:43:44.722557</dc:date>
    <dc:format>image/svg+xml</dc:format>
    <dc:creator>
     <cc:Agent>
      <dc:title>Matplotlib v3.10.0, https://matplotlib.org/</dc:title>
     </cc:Agent>
    </dc:creator>
   </cc:Work>
  </rdf:RDF>
 </metadata>
 <defs>
  <style type="text/css">*{stroke-linejoin: round; stroke-linecap: butt}</style>
 </defs>
 <g id="figure_1">
  <g id="patch_1">
   <path d="M 0 535.739375 
L 824.405625 535.739375 
L 824.405625 0 
L 0 0 
z
" style="fill: #ffffff"/>
  </g>
  <g id="axes_1">
   <g id="patch_2">
    <path d="M 74.185625 248.13375 
L 795.605625 248.13375 
L 795.605625 54.62 
L 74.185625 54.62 
z
" style="fill: #ffffff"/>
   </g>
   <g id="PathCollection_1">
    <defs>
     <path id="C0_0_fb4a80769a" d="M 0 3 
C 0.795609 3 1.55874 2.683901 2.12132 2.12132 
C 2.683901 1.55874 3 0.795609 3 -0 
C 3 -0.795609 2.683901 -1.55874 2.12132 -2.12132 
C 1.55874 -2.683901 0.795609 -3 0 -3 
C -0.795609 -3 -1.55874 -2.683901 -2.12132 -2.12132 
C -2.683901 -1.55874 -3 -0.795609 -3 0 
C -3 0.795609 -2.683901 1.55874 -2.12132 2.12132 
C -1.55874 2.683901 -0.795609 3 0 3 
z
"/>
    </defs>
    <g clip-path="url(#pea5b37337e)">
     <use xlink:href="#C0_0_fb4a80769a" x="74.185625" y="215.396316" style="fill: none; stroke: #ff0000; stroke-width: 1.5"/>
    </g>
    <g clip-path="url(#pea5b37337e)">
     <use xlink:href="#C0_0_fb4a80769a" x="81.399825" y="208.296633" style="fill: none; stroke: #ff0000; stroke-width: 1.5"/>
    </g>
    <g clip-path="url(#pea5b37337e)">
     <use xlink:href="#C0_0_fb4a80769a" x="88.614025" y="203.003329" style="fill: none; stroke: #ff0000; stroke-width: 1.5"/>
    </g>
    <g clip-path="url(#pea5b37337e)">
     <use xlink:href="#C0_0_fb4a80769a" x="95.828225" y="200.754524" style="fill: none; stroke: #ff0000; stroke-width: 1.5"/>
    </g>
    <g clip-path="url(#pea5b37337e)">
     <use xlink:href="#C0_0_fb4a80769a" x="103.042425" y="202.657513" style="fill: none; stroke: #ff0000; stroke-width: 1.5"/>
    </g>
    <g clip-path="url(#pea5b37337e)">
     <use xlink:href="#C0_0_fb4a80769a" x="110.256625" y="210.734723" style="fill: none; stroke: #ff0000; stroke-width: 1.5"/>
    </g>
    <g clip-path="url(#pea5b37337e)">
     <use xlink:href="#C0_0_fb4a80769a" x="117.470825" y="203.612722" style="fill: none; stroke: #ff0000; stroke-width: 1.5"/>
    </g>
    <g clip-path="url(#pea5b37337e)">
     <use xlink:href="#C0_0_fb4a80769a" x="124.685025" y="217.799961" style="fill: none; stroke: #ff0000; stroke-width: 1.5"/>
    </g>
    <g clip-path="url(#pea5b37337e)">
     <use xlink:href="#C0_0_fb4a80769a" x="131.899225" y="216.976594" style="fill: none; stroke: #ff0000; stroke-width: 1.5"/>
    </g>
    <g clip-path="url(#pea5b37337e)">
     <use xlink:href="#C0_0_fb4a80769a" x="139.113425" y="212.285799" style="fill: none; stroke: #ff0000; stroke-width: 1.5"/>
    </g>
    <g clip-path="url(#pea5b37337e)">
     <use xlink:href="#C0_0_fb4a80769a" x="146.327625" y="217.598595" style="fill: none; stroke: #ff0000; stroke-width: 1.5"/>
    </g>
    <g clip-path="url(#pea5b37337e)">
     <use xlink:href="#C0_0_fb4a80769a" x="153.541825" y="210.383889" style="fill: none; stroke: #ff0000; stroke-width: 1.5"/>
    </g>
    <g clip-path="url(#pea5b37337e)">
     <use xlink:href="#C0_0_fb4a80769a" x="160.756025" y="221.349554" style="fill: none; stroke: #ff0000; stroke-width: 1.5"/>
    </g>
    <g clip-path="url(#pea5b37337e)">
     <use xlink:href="#C0_0_fb4a80769a" x="167.970225" y="193.878064" style="fill: none; stroke: #ff0000; stroke-width: 1.5"/>
    </g>
    <g clip-path="url(#pea5b37337e)">
     <use xlink:href="#C0_0_fb4a80769a" x="175.184425" y="211.047966" style="fill: none; stroke: #ff0000; stroke-width: 1.5"/>
    </g>
    <g clip-path="url(#pea5b37337e)">
     <use xlink:href="#C0_0_fb4a80769a" x="182.398625" y="202.722287" style="fill: none; stroke: #ff0000; stroke-width: 1.5"/>
    </g>
    <g clip-path="url(#pea5b37337e)">
     <use xlink:href="#C0_0_fb4a80769a" x="189.612825" y="197.164975" style="fill: none; stroke: #ff0000; stroke-width: 1.5"/>
    </g>
    <g clip-path="url(#pea5b37337e)">
     <use xlink:href="#C0_0_fb4a80769a" x="196.827025" y="213.468134" style="fill: none; stroke: #ff0000; stroke-width: 1.5"/>
    </g>
    <g clip-path="url(#pea5b37337e)">
     <use xlink:href="#C0_0_fb4a80769a" x="204.041225" y="212.873649" style="fill: none; stroke: #ff0000; stroke-width: 1.5"/>
    </g>
    <g clip-path="url(#pea5b37337e)">
     <use xlink:href="#C0_0_fb4a80769a" x="211.255425" y="207.537681" style="fill: none; stroke: #ff0000; stroke-width: 1.5"/>
    </g>
    <g clip-path="url(#pea5b37337e)">
     <use xlink:href="#C0_0_fb4a80769a" x="218.469625" y="200.956729" style="fill: none; stroke: #ff0000; stroke-width: 1.5"/>
    </g>
    <g clip-path="url(#pea5b37337e)">
     <use xlink:href="#C0_0_fb4a80769a" x="225.683825" y="204.297499" style="fill: none; stroke: #ff0000; stroke-width: 1.5"/>
    </g>
    <g clip-path="url(#pea5b37337e)">
     <use xlink:href="#C0_0_fb4a80769a" x="232.898025" y="207.716317" style="fill: none; stroke: #ff0000; stroke-width: 1.5"/>
    </g>
    <g clip-path="url(#pea5b37337e)">
     <use xlink:href="#C0_0_fb4a80769a" x="240.112225" y="205.984766" style="fill: none; stroke: #ff0000; stroke-width: 1.5"/>
    </g>
    <g clip-path="url(#pea5b37337e)">
     <use xlink:href="#C0_0_fb4a80769a" x="247.326425" y="202.68861" style="fill: none; stroke: #ff0000; stroke-width: 1.5"/>
    </g>
    <g clip-path="url(#pea5b37337e)">
     <use xlink:href="#C0_0_fb4a80769a" x="254.540625" y="211.60965" style="fill: none; stroke: #ff0000; stroke-width: 1.5"/>
    </g>
    <g clip-path="url(#pea5b37337e)">
     <use xlink:href="#C0_0_fb4a80769a" x="261.754825" y="200.877931" style="fill: none; stroke: #ff0000; stroke-width: 1.5"/>
    </g>
    <g clip-path="url(#pea5b37337e)">
     <use xlink:href="#C0_0_fb4a80769a" x="268.969025" y="200.755798" style="fill: none; stroke: #ff0000; stroke-width: 1.5"/>
    </g>
    <g clip-path="url(#pea5b37337e)">
     <use xlink:href="#C0_0_fb4a80769a" x="276.183225" y="186.568552" style="fill: none; stroke: #ff0000; stroke-width: 1.5"/>
    </g>
    <g clip-path="url(#pea5b37337e)">
     <use xlink:href="#C0_0_fb4a80769a" x="283.397425" y="209.286723" style="fill: none; stroke: #ff0000; stroke-width: 1.5"/>
    </g>
    <g clip-path="url(#pea5b37337e)">
     <use xlink:href="#C0_0_fb4a80769a" x="290.611625" y="181.822947" style="fill: none; stroke: #ff0000; stroke-width: 1.5"/>
    </g>
    <g clip-path="url(#pea5b37337e)">
     <use xlink:href="#C0_0_fb4a80769a" x="297.825825" y="177.875763" style="fill: none; stroke: #ff0000; stroke-width: 1.5"/>
    </g>
    <g clip-path="url(#pea5b37337e)">
     <use xlink:href="#C0_0_fb4a80769a" x="305.040025" y="187.832787" style="fill: none; stroke: #ff0000; stroke-width: 1.5"/>
    </g>
    <g clip-path="url(#pea5b37337e)">
     <use xlink:href="#C0_0_fb4a80769a" x="312.254225" y="181.9101" style="fill: none; stroke: #ff0000; stroke-width: 1.5"/>
    </g>
    <g clip-path="url(#pea5b37337e)">
     <use xlink:href="#C0_0_fb4a80769a" x="319.468425" y="210.614314" style="fill: none; stroke: #ff0000; stroke-width: 1.5"/>
    </g>
    <g clip-path="url(#pea5b37337e)">
     <use xlink:href="#C0_0_fb4a80769a" x="326.682625" y="179.7795" style="fill: none; stroke: #ff0000; stroke-width: 1.5"/>
    </g>
    <g clip-path="url(#pea5b37337e)">
     <use xlink:href="#C0_0_fb4a80769a" x="333.896825" y="174.667967" style="fill: none; stroke: #ff0000; stroke-width: 1.5"/>
    </g>
    <g clip-path="url(#pea5b37337e)">
     <use xlink:href="#C0_0_fb4a80769a" x="341.111025" y="190.702235" style="fill: none; stroke: #ff0000; stroke-width: 1.5"/>
    </g>
    <g clip-path="url(#pea5b37337e)">
     <use xlink:href="#C0_0_fb4a80769a" x="348.325225" y="197.786913" style="fill: none; stroke: #ff0000; stroke-width: 1.5"/>
    </g>
    <g clip-path="url(#pea5b37337e)">
     <use xlink:href="#C0_0_fb4a80769a" x="355.539425" y="171.093584" style="fill: none; stroke: #ff0000; stroke-width: 1.5"/>
    </g>
    <g clip-path="url(#pea5b37337e)">
     <use xlink:href="#C0_0_fb4a80769a" x="362.753625" y="165.05864" style="fill: none; stroke: #ff0000; stroke-width: 1.5"/>
    </g>
    <g clip-path="url(#pea5b37337e)">
     <use xlink:href="#C0_0_fb4a80769a" x="369.967825" y="155.610256" style="fill: none; stroke: #ff0000; stroke-width: 1.5"/>
    </g>
    <g clip-path="url(#pea5b37337e)">
     <use xlink:href="#C0_0_fb4a80769a" x="377.182025" y="165.451384" style="fill: none; stroke: #ff0000; stroke-width: 1.5"/>
    </g>
    <g clip-path="url(#pea5b37337e)">
     <use xlink:href="#C0_0_fb4a80769a" x="384.396225" y="143.452369" style="fill: none; stroke: #ff0000; stroke-width: 1.5"/>
    </g>
    <g clip-path="url(#pea5b37337e)">
     <use xlink:href="#C0_0_fb4a80769a" x="391.610425" y="145.583649" style="fill: none; stroke: #ff0000; stroke-width: 1.5"/>
    </g>
    <g clip-path="url(#pea5b37337e)">
     <use xlink:href="#C0_0_fb4a80769a" x="398.824625" y="119.451016" style="fill: none; stroke: #ff0000; stroke-width: 1.5"/>
    </g>
    <g clip-path="url(#pea5b37337e)">
     <use xlink:href="#C0_0_fb4a80769a" x="406.038825" y="149.998012" style="fill: none; stroke: #ff0000; stroke-width: 1.5"/>
    </g>
    <g clip-path="url(#pea5b37337e)">
     <use xlink:href="#C0_0_fb4a80769a" x="413.253025" y="147.042102" style="fill: none; stroke: #ff0000; stroke-width: 1.5"/>
    </g>
    <g clip-path="url(#pea5b37337e)">
     <use xlink:href="#C0_0_fb4a80769a" x="420.467225" y="116.323609" style="fill: none; stroke: #ff0000; stroke-width: 1.5"/>
    </g>
    <g clip-path="url(#pea5b37337e)">
     <use xlink:href="#C0_0_fb4a80769a" x="427.681425" y="140.555743" style="fill: none; stroke: #ff0000; stroke-width: 1.5"/>
    </g>
    <g clip-path="url(#pea5b37337e)">
     <use xlink:href="#C0_0_fb4a80769a" x="434.895625" y="108.485427" style="fill: none; stroke: #ff0000; stroke-width: 1.5"/>
    </g>
    <g clip-path="url(#pea5b37337e)">
     <use xlink:href="#C0_0_fb4a80769a" x="442.109825" y="100.862964" style="fill: none; stroke: #ff0000; stroke-width: 1.5"/>
    </g>
    <g clip-path="url(#pea5b37337e)">
     <use xlink:href="#C0_0_fb4a80769a" x="449.324025" y="85.779172" style="fill: none; stroke: #ff0000; stroke-width: 1.5"/>
    </g>
    <g clip-path="url(#pea5b37337e)">
     <use xlink:href="#C0_0_fb4a80769a" x="456.538225" y="107.730234" style="fill: none; stroke: #ff0000; stroke-width: 1.5"/>
    </g>
    <g clip-path="url(#pea5b37337e)">
     <use xlink:href="#C0_0_fb4a80769a" x="463.752425" y="76.159514" style="fill: none; stroke: #ff0000; stroke-width: 1.5"/>
    </g>
    <g clip-path="url(#pea5b37337e)">
     <use xlink:href="#C0_0_fb4a80769a" x="470.966625" y="75.900423" style="fill: none; stroke: #ff0000; stroke-width: 1.5"/>
    </g>
    <g clip-path="url(#pea5b37337e)">
     <use xlink:href="#C0_0_fb4a80769a" x="478.180825" y="123.335991" style="fill: none; stroke: #ff0000; stroke-width: 1.5"/>
    </g>
    <g clip-path="url(#pea5b37337e)">
     <use xlink:href="#C0_0_fb4a80769a" x="485.395025" y="120.972809" style="fill: none; stroke: #ff0000; stroke-width: 1.5"/>
    </g>
    <g clip-path="url(#pea5b37337e)">
     <use xlink:href="#C0_0_fb4a80769a" x="492.609225" y="131.851972" style="fill: none; stroke: #ff0000; stroke-width: 1.5"/>
    </g>
    <g clip-path="url(#pea5b37337e)">
     <use xlink:href="#C0_0_fb4a80769a" x="499.823425" y="130.846242" style="fill: none; stroke: #ff0000; stroke-width: 1.5"/>
    </g>
    <g clip-path="url(#pea5b37337e)">
     <use xlink:href="#C0_0_fb4a80769a" x="507.037625" y="176.479452" style="fill: none; stroke: #ff0000; stroke-width: 1.5"/>
    </g>
    <g clip-path="url(#pea5b37337e)">
     <use xlink:href="#C0_0_fb4a80769a" x="514.251825" y="157.992331" style="fill: none; stroke: #ff0000; stroke-width: 1.5"/>
    </g>
    <g clip-path="url(#pea5b37337e)">
     <use xlink:href="#C0_0_fb4a80769a" x="521.466025" y="160.513837" style="fill: none; stroke: #ff0000; stroke-width: 1.5"/>
    </g>
    <g clip-path="url(#pea5b37337e)">
     <use xlink:href="#C0_0_fb4a80769a" x="528.680225" y="166.927104" style="fill: none; stroke: #ff0000; stroke-width: 1.5"/>
    </g>
    <g clip-path="url(#pea5b37337e)">
     <use xlink:href="#C0_0_fb4a80769a" x="535.894425" y="175.943434" style="fill: none; stroke: #ff0000; stroke-width: 1.5"/>
    </g>
    <g clip-path="url(#pea5b37337e)">
     <use xlink:href="#C0_0_fb4a80769a" x="543.108625" y="167.096254" style="fill: none; stroke: #ff0000; stroke-width: 1.5"/>
    </g>
    <g clip-path="url(#pea5b37337e)">
     <use xlink:href="#C0_0_fb4a80769a" x="550.322825" y="188.003254" style="fill: none; stroke: #ff0000; stroke-width: 1.5"/>
    </g>
    <g clip-path="url(#pea5b37337e)">
     <use xlink:href="#C0_0_fb4a80769a" x="557.537025" y="187.930652" style="fill: none; stroke: #ff0000; stroke-width: 1.5"/>
    </g>
    <g clip-path="url(#pea5b37337e)">
     <use xlink:href="#C0_0_fb4a80769a" x="564.751225" y="197.204051" style="fill: none; stroke: #ff0000; stroke-width: 1.5"/>
    </g>
    <g clip-path="url(#pea5b37337e)">
     <use xlink:href="#C0_0_fb4a80769a" x="571.965425" y="191.483952" style="fill: none; stroke: #ff0000; stroke-width: 1.5"/>
    </g>
    <g clip-path="url(#pea5b37337e)">
     <use xlink:href="#C0_0_fb4a80769a" x="579.179625" y="188.691049" style="fill: none; stroke: #ff0000; stroke-width: 1.5"/>
    </g>
    <g clip-path="url(#pea5b37337e)">
     <use xlink:href="#C0_0_fb4a80769a" x="586.393825" y="195.481988" style="fill: none; stroke: #ff0000; stroke-width: 1.5"/>
    </g>
    <g clip-path="url(#pea5b37337e)">
     <use xlink:href="#C0_0_fb4a80769a" x="593.608025" y="205.547346" style="fill: none; stroke: #ff0000; stroke-width: 1.5"/>
    </g>
    <g clip-path="url(#pea5b37337e)">
     <use xlink:href="#C0_0_fb4a80769a" x="600.822225" y="206.843489" style="fill: none; stroke: #ff0000; stroke-width: 1.5"/>
    </g>
    <g clip-path="url(#pea5b37337e)">
     <use xlink:href="#C0_0_fb4a80769a" x="608.036425" y="206.280516" style="fill: none; stroke: #ff0000; stroke-width: 1.5"/>
    </g>
    <g clip-path="url(#pea5b37337e)">
     <use xlink:href="#C0_0_fb4a80769a" x="615.250625" y="212.928388" style="fill: none; stroke: #ff0000; stroke-width: 1.5"/>
    </g>
    <g clip-path="url(#pea5b37337e)">
     <use xlink:href="#C0_0_fb4a80769a" x="622.464825" y="216.826939" style="fill: none; stroke: #ff0000; stroke-width: 1.5"/>
    </g>
    <g clip-path="url(#pea5b37337e)">
     <use xlink:href="#C0_0_fb4a80769a" x="629.679025" y="213.737815" style="fill: none; stroke: #ff0000; stroke-width: 1.5"/>
    </g>
    <g clip-path="url(#pea5b37337e)">
     <use xlink:href="#C0_0_fb4a80769a" x="636.893225" y="216.314908" style="fill: none; stroke: #ff0000; stroke-width: 1.5"/>
    </g>
    <g clip-path="url(#pea5b37337e)">
     <use xlink:href="#C0_0_fb4a80769a" x="644.107425" y="219.945708" style="fill: none; stroke: #ff0000; stroke-width: 1.5"/>
    </g>
    <g clip-path="url(#pea5b37337e)">
     <use xlink:href="#C0_0_fb4a80769a" x="651.321625" y="222.497395" style="fill: none; stroke: #ff0000; stroke-width: 1.5"/>
    </g>
    <g clip-path="url(#pea5b37337e)">
     <use xlink:href="#C0_0_fb4a80769a" x="658.535825" y="225.100959" style="fill: none; stroke: #ff0000; stroke-width: 1.5"/>
    </g>
    <g clip-path="url(#pea5b37337e)">
     <use xlink:href="#C0_0_fb4a80769a" x="665.750025" y="215.32131" style="fill: none; stroke: #ff0000; stroke-width: 1.5"/>
    </g>
    <g clip-path="url(#pea5b37337e)">
     <use xlink:href="#C0_0_fb4a80769a" x="672.964225" y="221.790139" style="fill: none; stroke: #ff0000; stroke-width: 1.5"/>
    </g>
    <g clip-path="url(#pea5b37337e)">
     <use xlink:href="#C0_0_fb4a80769a" x="680.178425" y="218.269594" style="fill: none; stroke: #ff0000; stroke-width: 1.5"/>
    </g>
    <g clip-path="url(#pea5b37337e)">
     <use xlink:href="#C0_0_fb4a80769a" x="687.392625" y="223.838843" style="fill: none; stroke: #ff0000; stroke-width: 1.5"/>
    </g>
    <g clip-path="url(#pea5b37337e)">
     <use xlink:href="#C0_0_fb4a80769a" x="694.606825" y="227.748502" style="fill: none; stroke: #ff0000; stroke-width: 1.5"/>
    </g>
    <g clip-path="url(#pea5b37337e)">
     <use xlink:href="#C0_0_fb4a80769a" x="701.821025" y="224.695825" style="fill: none; stroke: #ff0000; stroke-width: 1.5"/>
    </g>
    <g clip-path="url(#pea5b37337e)">
     <use xlink:href="#C0_0_fb4a80769a" x="709.035225" y="223.223603" style="fill: none; stroke: #ff0000; stroke-width: 1.5"/>
    </g>
    <g clip-path="url(#pea5b37337e)">
     <use xlink:href="#C0_0_fb4a80769a" x="716.249425" y="225.621478" style="fill: none; stroke: #ff0000; stroke-width: 1.5"/>
    </g>
    <g clip-path="url(#pea5b37337e)">
     <use xlink:href="#C0_0_fb4a80769a" x="723.463625" y="228.251281" style="fill: none; stroke: #ff0000; stroke-width: 1.5"/>
    </g>
    <g clip-path="url(#pea5b37337e)">
     <use xlink:href="#C0_0_fb4a80769a" x="730.677825" y="231.035746" style="fill: none; stroke: #ff0000; stroke-width: 1.5"/>
    </g>
    <g clip-path="url(#pea5b37337e)">
     <use xlink:href="#C0_0_fb4a80769a" x="737.892025" y="227.700405" style="fill: none; stroke: #ff0000; stroke-width: 1.5"/>
    </g>
    <g clip-path="url(#pea5b37337e)">
     <use xlink:href="#C0_0_fb4a80769a" x="745.106225" y="224.730541" style="fill: none; stroke: #ff0000; stroke-width: 1.5"/>
    </g>
    <g clip-path="url(#pea5b37337e)">
     <use xlink:href="#C0_0_fb4a80769a" x="752.320425" y="231.859596" style="fill: none; stroke: #ff0000; stroke-width: 1.5"/>
    </g>
    <g clip-path="url(#pea5b37337e)">
     <use xlink:href="#C0_0_fb4a80769a" x="759.534625" y="229.172105" style="fill: none; stroke: #ff0000; stroke-width: 1.5"/>
    </g>
    <g clip-path="url(#pea5b37337e)">
     <use xlink:href="#C0_0_fb4a80769a" x="766.748825" y="230.50961" style="fill: none; stroke: #ff0000; stroke-width: 1.5"/>
    </g>
    <g clip-path="url(#pea5b37337e)">
     <use xlink:href="#C0_0_fb4a80769a" x="773.963025" y="235.985746" style="fill: none; stroke: #ff0000; stroke-width: 1.5"/>
    </g>
    <g clip-path="url(#pea5b37337e)">
     <use xlink:href="#C0_0_fb4a80769a" x="781.177225" y="232.703336" style="fill: none; stroke: #ff0000; stroke-width: 1.5"/>
    </g>
    <g clip-path="url(#pea5b37337e)">
     <use xlink:href="#C0_0_fb4a80769a" x="788.391425" y="235.587244" style="fill: none; stroke: #ff0000; stroke-width: 1.5"/>
    </g>
    <g clip-path="url(#pea5b37337e)">
     <use xlink:href="#C0_0_fb4a80769a" x="795.605625" y="236.751662" style="fill: none; stroke: #ff0000; stroke-width: 1.5"/>
    </g>
   </g>
   <g id="matplotlib.axis_1">
    <g id="xtick_1">
     <g id="line2d_1">
      <path d="M 74.185625 248.13375 
L 74.185625 54.62 
" clip-path="url(#pea5b37337e)" style="fill: none; stroke-dasharray: 2.96,1.28; stroke-dashoffset: 0; stroke: #b0b0b0; stroke-opacity: 0.7; stroke-width: 0.8"/>
     </g>
     <g id="line2d_2">
      <defs>
       <path id="m41cd0be415" d="M 0 0 
L 0 3.5 
" style="stroke: #000000; stroke-width: 0.8"/>
      </defs>
      <g>
       <use xlink:href="#m41cd0be415" x="74.185625" y="248.13375" style="stroke: #000000; stroke-width: 0.8"/>
      </g>
     </g>
    </g>
    <g id="xtick_2">
     <g id="line2d_3">
      <path d="M 170.374958 248.13375 
L 170.374958 54.62 
" clip-path="url(#pea5b37337e)" style="fill: none; stroke-dasharray: 2.96,1.28; stroke-dashoffset: 0; stroke: #b0b0b0; stroke-opacity: 0.7; stroke-width: 0.8"/>
     </g>
     <g id="line2d_4">
      <g>
       <use xlink:href="#m41cd0be415" x="170.374958" y="248.13375" style="stroke: #000000; stroke-width: 0.8"/>
      </g>
     </g>
    </g>
    <g id="xtick_3">
     <g id="line2d_5">
      <path d="M 266.564292 248.13375 
L 266.564292 54.62 
" clip-path="url(#pea5b37337e)" style="fill: none; stroke-dasharray: 2.96,1.28; stroke-dashoffset: 0; stroke: #b0b0b0; stroke-opacity: 0.7; stroke-width: 0.8"/>
     </g>
     <g id="line2d_6">
      <g>
       <use xlink:href="#m41cd0be415" x="266.564292" y="248.13375" style="stroke: #000000; stroke-width: 0.8"/>
      </g>
     </g>
    </g>
    <g id="xtick_4">
     <g id="line2d_7">
      <path d="M 362.753625 248.13375 
L 362.753625 54.62 
" clip-path="url(#pea5b37337e)" style="fill: none; stroke-dasharray: 2.96,1.28; stroke-dashoffset: 0; stroke: #b0b0b0; stroke-opacity: 0.7; stroke-width: 0.8"/>
     </g>
     <g id="line2d_8">
      <g>
       <use xlink:href="#m41cd0be415" x="362.753625" y="248.13375" style="stroke: #000000; stroke-width: 0.8"/>
      </g>
     </g>
    </g>
    <g id="xtick_5">
     <g id="line2d_9">
      <path d="M 458.942958 248.13375 
L 458.942958 54.62 
" clip-path="url(#pea5b37337e)" style="fill: none; stroke-dasharray: 2.96,1.28; stroke-dashoffset: 0; stroke: #b0b0b0; stroke-opacity: 0.7; stroke-width: 0.8"/>
     </g>
     <g id="line2d_10">
      <g>
       <use xlink:href="#m41cd0be415" x="458.942958" y="248.13375" style="stroke: #000000; stroke-width: 0.8"/>
      </g>
     </g>
    </g>
    <g id="xtick_6">
     <g id="line2d_11">
      <path d="M 555.132292 248.13375 
L 555.132292 54.62 
" clip-path="url(#pea5b37337e)" style="fill: none; stroke-dasharray: 2.96,1.28; stroke-dashoffset: 0; stroke: #b0b0b0; stroke-opacity: 0.7; stroke-width: 0.8"/>
     </g>
     <g id="line2d_12">
      <g>
       <use xlink:href="#m41cd0be415" x="555.132292" y="248.13375" style="stroke: #000000; stroke-width: 0.8"/>
      </g>
     </g>
    </g>
    <g id="xtick_7">
     <g id="line2d_13">
      <path d="M 651.321625 248.13375 
L 651.321625 54.62 
" clip-path="url(#pea5b37337e)" style="fill: none; stroke-dasharray: 2.96,1.28; stroke-dashoffset: 0; stroke: #b0b0b0; stroke-opacity: 0.7; stroke-width: 0.8"/>
     </g>
     <g id="line2d_14">
      <g>
       <use xlink:href="#m41cd0be415" x="651.321625" y="248.13375" style="stroke: #000000; stroke-width: 0.8"/>
      </g>
     </g>
    </g>
    <g id="xtick_8">
     <g id="line2d_15">
      <path d="M 747.510958 248.13375 
L 747.510958 54.62 
" clip-path="url(#pea5b37337e)" style="fill: none; stroke-dasharray: 2.96,1.28; stroke-dashoffset: 0; stroke: #b0b0b0; stroke-opacity: 0.7; stroke-width: 0.8"/>
     </g>
     <g id="line2d_16">
      <g>
       <use xlink:href="#m41cd0be415" x="747.510958" y="248.13375" style="stroke: #000000; stroke-width: 0.8"/>
      </g>
     </g>
    </g>
   </g>
   <g id="matplotlib.axis_2">
    <g id="ytick_1">
     <g id="line2d_17">
      <path d="M 74.185625 248.13375 
L 795.605625 248.13375 
" clip-path="url(#pea5b37337e)" style="fill: none; stroke-dasharray: 2.96,1.28; stroke-dashoffset: 0; stroke: #b0b0b0; stroke-opacity: 0.7; stroke-width: 0.8"/>
     </g>
     <g id="line2d_18">
      <defs>
       <path id="m7149e2ba58" d="M 0 0 
L -3.5 0 
" style="stroke: #000000; stroke-width: 0.8"/>
      </defs>
      <g>
       <use xlink:href="#m7149e2ba58" x="74.185625" y="248.13375" style="stroke: #000000; stroke-width: 0.8"/>
      </g>
     </g>
     <g id="text_1">
      <!-- 0.00 -->
      <g transform="translate(44.92 251.932969) scale(0.1 -0.1)">
       <defs>
        <path id="DejaVuSans-30" d="M 2034 4250 
Q 1547 4250 1301 3770 
Q 1056 3291 1056 2328 
Q 1056 1369 1301 889 
Q 1547 409 2034 409 
Q 2525 409 2770 889 
Q 3016 1369 3016 2328 
Q 3016 3291 2770 3770 
Q 2525 4250 2034 4250 
z
M 2034 4750 
Q 2819 4750 3233 4129 
Q 3647 3509 3647 2328 
Q 3647 1150 3233 529 
Q 2819 -91 2034 -91 
Q 1250 -91 836 529 
Q 422 1150 422 2328 
Q 422 3509 836 4129 
Q 1250 4750 2034 4750 
z
" transform="scale(0.015625)"/>
        <path id="DejaVuSans-2e" d="M 684 794 
L 1344 794 
L 1344 0 
L 684 0 
L 684 794 
z
" transform="scale(0.015625)"/>
       </defs>
       <use xlink:href="#DejaVuSans-30"/>
       <use xlink:href="#DejaVuSans-2e" transform="translate(63.623047 0)"/>
       <use xlink:href="#DejaVuSans-30" transform="translate(95.410156 0)"/>
       <use xlink:href="#DejaVuSans-30" transform="translate(159.033203 0)"/>
      </g>
     </g>
    </g>
    <g id="ytick_2">
     <g id="line2d_19">
      <path d="M 74.185625 223.944531 
L 795.605625 223.944531 
" clip-path="url(#pea5b37337e)" style="fill: none; stroke-dasharray: 2.96,1.28; stroke-dashoffset: 0; stroke: #b0b0b0; stroke-opacity: 0.7; stroke-width: 0.8"/>
     </g>
     <g id="line2d_20">
      <g>
       <use xlink:href="#m7149e2ba58" x="74.185625" y="223.944531" style="stroke: #000000; stroke-width: 0.8"/>
      </g>
     </g>
     <g id="text_2">
      <!-- 0.01 -->
      <g transform="translate(44.92 227.74375) scale(0.1 -0.1)">
       <defs>
        <path id="DejaVuSans-31" d="M 794 531 
L 1825 531 
L 1825 4091 
L 703 3866 
L 703 4441 
L 1819 4666 
L 2450 4666 
L 2450 531 
L 3481 531 
L 3481 0 
L 794 0 
L 794 531 
z
" transform="scale(0.015625)"/>
       </defs>
       <use xlink:href="#DejaVuSans-30"/>
       <use xlink:href="#DejaVuSans-2e" transform="translate(63.623047 0)"/>
       <use xlink:href="#DejaVuSans-30" transform="translate(95.410156 0)"/>
       <use xlink:href="#DejaVuSans-31" transform="translate(159.033203 0)"/>
      </g>
     </g>
    </g>
    <g id="ytick_3">
     <g id="line2d_21">
      <path d="M 74.185625 199.755312 
L 795.605625 199.755312 
" clip-path="url(#pea5b37337e)" style="fill: none; stroke-dasharray: 2.96,1.28; stroke-dashoffset: 0; stroke: #b0b0b0; stroke-opacity: 0.7; stroke-width: 0.8"/>
     </g>
     <g id="line2d_22">
      <g>
       <use xlink:href="#m7149e2ba58" x="74.185625" y="199.755312" style="stroke: #000000; stroke-width: 0.8"/>
      </g>
     </g>
     <g id="text_3">
      <!-- 0.02 -->
      <g transform="translate(44.92 203.554531) scale(0.1 -0.1)">
       <defs>
        <path id="DejaVuSans-32" d="M 1228 531 
L 3431 531 
L 3431 0 
L 469 0 
L 469 531 
Q 828 903 1448 1529 
Q 2069 2156 2228 2338 
Q 2531 2678 2651 2914 
Q 2772 3150 2772 3378 
Q 2772 3750 2511 3984 
Q 2250 4219 1831 4219 
Q 1534 4219 1204 4116 
Q 875 4013 500 3803 
L 500 4441 
Q 881 4594 1212 4672 
Q 1544 4750 1819 4750 
Q 2544 4750 2975 4387 
Q 3406 4025 3406 3419 
Q 3406 3131 3298 2873 
Q 3191 2616 2906 2266 
Q 2828 2175 2409 1742 
Q 1991 1309 1228 531 
z
" transform="scale(0.015625)"/>
       </defs>
       <use xlink:href="#DejaVuSans-30"/>
       <use xlink:href="#DejaVuSans-2e" transform="translate(63.623047 0)"/>
       <use xlink:href="#DejaVuSans-30" transform="translate(95.410156 0)"/>
       <use xlink:href="#DejaVuSans-32" transform="translate(159.033203 0)"/>
      </g>
     </g>
    </g>
    <g id="ytick_4">
     <g id="line2d_23">
      <path d="M 74.185625 175.566094 
L 795.605625 175.566094 
" clip-path="url(#pea5b37337e)" style="fill: none; stroke-dasharray: 2.96,1.28; stroke-dashoffset: 0; stroke: #b0b0b0; stroke-opacity: 0.7; stroke-width: 0.8"/>
     </g>
     <g id="line2d_24">
      <g>
       <use xlink:href="#m7149e2ba58" x="74.185625" y="175.566094" style="stroke: #000000; stroke-width: 0.8"/>
      </g>
     </g>
     <g id="text_4">
      <!-- 0.03 -->
      <g transform="translate(44.92 179.365312) scale(0.1 -0.1)">
       <defs>
        <path id="DejaVuSans-33" d="M 2597 2516 
Q 3050 2419 3304 2112 
Q 3559 1806 3559 1356 
Q 3559 666 3084 287 
Q 2609 -91 1734 -91 
Q 1441 -91 1130 -33 
Q 819 25 488 141 
L 488 750 
Q 750 597 1062 519 
Q 1375 441 1716 441 
Q 2309 441 2620 675 
Q 2931 909 2931 1356 
Q 2931 1769 2642 2001 
Q 2353 2234 1838 2234 
L 1294 2234 
L 1294 2753 
L 1863 2753 
Q 2328 2753 2575 2939 
Q 2822 3125 2822 3475 
Q 2822 3834 2567 4026 
Q 2313 4219 1838 4219 
Q 1578 4219 1281 4162 
Q 984 4106 628 3988 
L 628 4550 
Q 988 4650 1302 4700 
Q 1616 4750 1894 4750 
Q 2613 4750 3031 4423 
Q 3450 4097 3450 3541 
Q 3450 3153 3228 2886 
Q 3006 2619 2597 2516 
z
" transform="scale(0.015625)"/>
       </defs>
       <use xlink:href="#DejaVuSans-30"/>
       <use xlink:href="#DejaVuSans-2e" transform="translate(63.623047 0)"/>
       <use xlink:href="#DejaVuSans-30" transform="translate(95.410156 0)"/>
       <use xlink:href="#DejaVuSans-33" transform="translate(159.033203 0)"/>
      </g>
     </g>
    </g>
    <g id="ytick_5">
     <g id="line2d_25">
      <path d="M 74.185625 151.376875 
L 795.605625 151.376875 
" clip-path="url(#pea5b37337e)" style="fill: none; stroke-dasharray: 2.96,1.28; stroke-dashoffset: 0; stroke: #b0b0b0; stroke-opacity: 0.7; stroke-width: 0.8"/>
     </g>
     <g id="line2d_26">
      <g>
       <use xlink:href="#m7149e2ba58" x="74.185625" y="151.376875" style="stroke: #000000; stroke-width: 0.8"/>
      </g>
     </g>
     <g id="text_5">
      <!-- 0.04 -->
      <g transform="translate(44.92 155.176094) scale(0.1 -0.1)">
       <defs>
        <path id="DejaVuSans-34" d="M 2419 4116 
L 825 1625 
L 2419 1625 
L 2419 4116 
z
M 2253 4666 
L 3047 4666 
L 3047 1625 
L 3713 1625 
L 3713 1100 
L 3047 1100 
L 3047 0 
L 2419 0 
L 2419 1100 
L 313 1100 
L 313 1709 
L 2253 4666 
z
" transform="scale(0.015625)"/>
       </defs>
       <use xlink:href="#DejaVuSans-30"/>
       <use xlink:href="#DejaVuSans-2e" transform="translate(63.623047 0)"/>
       <use xlink:href="#DejaVuSans-30" transform="translate(95.410156 0)"/>
       <use xlink:href="#DejaVuSans-34" transform="translate(159.033203 0)"/>
      </g>
     </g>
    </g>
    <g id="ytick_6">
     <g id="line2d_27">
      <path d="M 74.185625 127.187656 
L 795.605625 127.187656 
" clip-path="url(#pea5b37337e)" style="fill: none; stroke-dasharray: 2.96,1.28; stroke-dashoffset: 0; stroke: #b0b0b0; stroke-opacity: 0.7; stroke-width: 0.8"/>
     </g>
     <g id="line2d_28">
      <g>
       <use xlink:href="#m7149e2ba58" x="74.185625" y="127.187656" style="stroke: #000000; stroke-width: 0.8"/>
      </g>
     </g>
     <g id="text_6">
      <!-- 0.05 -->
      <g transform="translate(44.92 130.986875) scale(0.1 -0.1)">
       <defs>
        <path id="DejaVuSans-35" d="M 691 4666 
L 3169 4666 
L 3169 4134 
L 1269 4134 
L 1269 2991 
Q 1406 3038 1543 3061 
Q 1681 3084 1819 3084 
Q 2600 3084 3056 2656 
Q 3513 2228 3513 1497 
Q 3513 744 3044 326 
Q 2575 -91 1722 -91 
Q 1428 -91 1123 -41 
Q 819 9 494 109 
L 494 744 
Q 775 591 1075 516 
Q 1375 441 1709 441 
Q 2250 441 2565 725 
Q 2881 1009 2881 1497 
Q 2881 1984 2565 2268 
Q 2250 2553 1709 2553 
Q 1456 2553 1204 2497 
Q 953 2441 691 2322 
L 691 4666 
z
" transform="scale(0.015625)"/>
       </defs>
       <use xlink:href="#DejaVuSans-30"/>
       <use xlink:href="#DejaVuSans-2e" transform="translate(63.623047 0)"/>
       <use xlink:href="#DejaVuSans-30" transform="translate(95.410156 0)"/>
       <use xlink:href="#DejaVuSans-35" transform="translate(159.033203 0)"/>
      </g>
     </g>
    </g>
    <g id="ytick_7">
     <g id="line2d_29">
      <path d="M 74.185625 102.998437 
L 795.605625 102.998437 
" clip-path="url(#pea5b37337e)" style="fill: none; stroke-dasharray: 2.96,1.28; stroke-dashoffset: 0; stroke: #b0b0b0; stroke-opacity: 0.7; stroke-width: 0.8"/>
     </g>
     <g id="line2d_30">
      <g>
       <use xlink:href="#m7149e2ba58" x="74.185625" y="102.998437" style="stroke: #000000; stroke-width: 0.8"/>
      </g>
     </g>
     <g id="text_7">
      <!-- 0.06 -->
      <g transform="translate(44.92 106.797656) scale(0.1 -0.1)">
       <defs>
        <path id="DejaVuSans-36" d="M 2113 2584 
Q 1688 2584 1439 2293 
Q 1191 2003 1191 1497 
Q 1191 994 1439 701 
Q 1688 409 2113 409 
Q 2538 409 2786 701 
Q 3034 994 3034 1497 
Q 3034 2003 2786 2293 
Q 2538 2584 2113 2584 
z
M 3366 4563 
L 3366 3988 
Q 3128 4100 2886 4159 
Q 2644 4219 2406 4219 
Q 1781 4219 1451 3797 
Q 1122 3375 1075 2522 
Q 1259 2794 1537 2939 
Q 1816 3084 2150 3084 
Q 2853 3084 3261 2657 
Q 3669 2231 3669 1497 
Q 3669 778 3244 343 
Q 2819 -91 2113 -91 
Q 1303 -91 875 529 
Q 447 1150 447 2328 
Q 447 3434 972 4092 
Q 1497 4750 2381 4750 
Q 2619 4750 2861 4703 
Q 3103 4656 3366 4563 
z
" transform="scale(0.015625)"/>
       </defs>
       <use xlink:href="#DejaVuSans-30"/>
       <use xlink:href="#DejaVuSans-2e" transform="translate(63.623047 0)"/>
       <use xlink:href="#DejaVuSans-30" transform="translate(95.410156 0)"/>
       <use xlink:href="#DejaVuSans-36" transform="translate(159.033203 0)"/>
      </g>
     </g>
    </g>
    <g id="ytick_8">
     <g id="line2d_31">
      <path d="M 74.185625 78.809219 
L 795.605625 78.809219 
" clip-path="url(#pea5b37337e)" style="fill: none; stroke-dasharray: 2.96,1.28; stroke-dashoffset: 0; stroke: #b0b0b0; stroke-opacity: 0.7; stroke-width: 0.8"/>
     </g>
     <g id="line2d_32">
      <g>
       <use xlink:href="#m7149e2ba58" x="74.185625" y="78.809219" style="stroke: #000000; stroke-width: 0.8"/>
      </g>
     </g>
     <g id="text_8">
      <!-- 0.07 -->
      <g transform="translate(44.92 82.608437) scale(0.1 -0.1)">
       <defs>
        <path id="DejaVuSans-37" d="M 525 4666 
L 3525 4666 
L 3525 4397 
L 1831 0 
L 1172 0 
L 2766 4134 
L 525 4134 
L 525 4666 
z
" transform="scale(0.015625)"/>
       </defs>
       <use xlink:href="#DejaVuSans-30"/>
       <use xlink:href="#DejaVuSans-2e" transform="translate(63.623047 0)"/>
       <use xlink:href="#DejaVuSans-30" transform="translate(95.410156 0)"/>
       <use xlink:href="#DejaVuSans-37" transform="translate(159.033203 0)"/>
      </g>
     </g>
    </g>
    <g id="ytick_9">
     <g id="line2d_33">
      <path d="M 74.185625 54.62 
L 795.605625 54.62 
" clip-path="url(#pea5b37337e)" style="fill: none; stroke-dasharray: 2.96,1.28; stroke-dashoffset: 0; stroke: #b0b0b0; stroke-opacity: 0.7; stroke-width: 0.8"/>
     </g>
     <g id="line2d_34">
      <g>
       <use xlink:href="#m7149e2ba58" x="74.185625" y="54.62" style="stroke: #000000; stroke-width: 0.8"/>
      </g>
     </g>
     <g id="text_9">
      <!-- 0.08 -->
      <g transform="translate(44.92 58.419219) scale(0.1 -0.1)">
       <defs>
        <path id="DejaVuSans-38" d="M 2034 2216 
Q 1584 2216 1326 1975 
Q 1069 1734 1069 1313 
Q 1069 891 1326 650 
Q 1584 409 2034 409 
Q 2484 409 2743 651 
Q 3003 894 3003 1313 
Q 3003 1734 2745 1975 
Q 2488 2216 2034 2216 
z
M 1403 2484 
Q 997 2584 770 2862 
Q 544 3141 544 3541 
Q 544 4100 942 4425 
Q 1341 4750 2034 4750 
Q 2731 4750 3128 4425 
Q 3525 4100 3525 3541 
Q 3525 3141 3298 2862 
Q 3072 2584 2669 2484 
Q 3125 2378 3379 2068 
Q 3634 1759 3634 1313 
Q 3634 634 3220 271 
Q 2806 -91 2034 -91 
Q 1263 -91 848 271 
Q 434 634 434 1313 
Q 434 1759 690 2068 
Q 947 2378 1403 2484 
z
M 1172 3481 
Q 1172 3119 1398 2916 
Q 1625 2713 2034 2713 
Q 2441 2713 2670 2916 
Q 2900 3119 2900 3481 
Q 2900 3844 2670 4047 
Q 2441 4250 2034 4250 
Q 1625 4250 1398 4047 
Q 1172 3844 1172 3481 
z
" transform="scale(0.015625)"/>
       </defs>
       <use xlink:href="#DejaVuSans-30"/>
       <use xlink:href="#DejaVuSans-2e" transform="translate(63.623047 0)"/>
       <use xlink:href="#DejaVuSans-30" transform="translate(95.410156 0)"/>
       <use xlink:href="#DejaVuSans-38" transform="translate(159.033203 0)"/>
      </g>
     </g>
    </g>
    <g id="text_10">
     <!-- $|H| [m/N]$ -->
     <g transform="translate(38.04 176.996875) rotate(-90) scale(0.12 -0.12)">
      <defs>
       <path id="DejaVuSans-7c" d="M 1344 4891 
L 1344 -1509 
L 813 -1509 
L 813 4891 
L 1344 4891 
z
" transform="scale(0.015625)"/>
       <path id="DejaVuSans-Oblique-48" d="M 1081 4666 
L 1716 4666 
L 1344 2753 
L 3634 2753 
L 4006 4666 
L 4641 4666 
L 3731 0 
L 3097 0 
L 3531 2222 
L 1241 2222 
L 806 0 
L 172 0 
L 1081 4666 
z
" transform="scale(0.015625)"/>
       <path id="DejaVuSans-5b" d="M 550 4863 
L 1875 4863 
L 1875 4416 
L 1125 4416 
L 1125 -397 
L 1875 -397 
L 1875 -844 
L 550 -844 
L 550 4863 
z
" transform="scale(0.015625)"/>
       <path id="DejaVuSans-Oblique-6d" d="M 5747 2113 
L 5338 0 
L 4763 0 
L 5166 2094 
Q 5191 2228 5203 2325 
Q 5216 2422 5216 2491 
Q 5216 2772 5059 2928 
Q 4903 3084 4622 3084 
Q 4203 3084 3875 2770 
Q 3547 2456 3450 1953 
L 3066 0 
L 2491 0 
L 2900 2094 
Q 2925 2209 2937 2307 
Q 2950 2406 2950 2484 
Q 2950 2769 2794 2926 
Q 2638 3084 2363 3084 
Q 1938 3084 1609 2770 
Q 1281 2456 1184 1953 
L 800 0 
L 225 0 
L 909 3500 
L 1484 3500 
L 1375 2956 
Q 1609 3263 1923 3423 
Q 2238 3584 2597 3584 
Q 2978 3584 3223 3384 
Q 3469 3184 3519 2828 
Q 3781 3197 4126 3390 
Q 4472 3584 4856 3584 
Q 5306 3584 5551 3325 
Q 5797 3066 5797 2591 
Q 5797 2488 5784 2364 
Q 5772 2241 5747 2113 
z
" transform="scale(0.015625)"/>
       <path id="DejaVuSans-2f" d="M 1625 4666 
L 2156 4666 
L 531 -594 
L 0 -594 
L 1625 4666 
z
" transform="scale(0.015625)"/>
       <path id="DejaVuSans-Oblique-4e" d="M 1081 4666 
L 1931 4666 
L 3219 666 
L 4000 4666 
L 4616 4666 
L 3706 0 
L 2853 0 
L 1569 4025 
L 788 0 
L 172 0 
L 1081 4666 
z
" transform="scale(0.015625)"/>
       <path id="DejaVuSans-5d" d="M 1947 4863 
L 1947 -844 
L 622 -844 
L 622 -397 
L 1369 -397 
L 1369 4416 
L 622 4416 
L 622 4863 
L 1947 4863 
z
" transform="scale(0.015625)"/>
      </defs>
      <use xlink:href="#DejaVuSans-7c" transform="translate(0 0.578125)"/>
      <use xlink:href="#DejaVuSans-Oblique-48" transform="translate(33.691406 0.578125)"/>
      <use xlink:href="#DejaVuSans-7c" transform="translate(108.886719 0.578125)"/>
      <use xlink:href="#DejaVuSans-5b" transform="translate(142.578125 0.578125)"/>
      <use xlink:href="#DejaVuSans-Oblique-6d" transform="translate(181.591797 0.578125)"/>
      <use xlink:href="#DejaVuSans-2f" transform="translate(279.003906 0.578125)"/>
      <use xlink:href="#DejaVuSans-Oblique-4e" transform="translate(312.695312 0.578125)"/>
      <use xlink:href="#DejaVuSans-5d" transform="translate(387.5 0.578125)"/>
     </g>
    </g>
   </g>
   <g id="line2d_35">
    <path d="M 74.185625 210.338096 
L 95.106805 210.229539 
L 116.027985 209.900221 
L 136.227745 209.362309 
L 155.706085 208.622379 
L 173.741585 207.723043 
L 191.055665 206.641406 
L 206.926905 205.435818 
L 222.076725 204.06521 
L 235.783705 202.611417 
L 248.769265 201.017116 
L 261.033405 199.286529 
L 272.576125 197.425987 
L 282.676005 195.584636 
L 292.775885 193.513171 
L 302.154345 191.352339 
L 310.811385 189.124355 
L 318.747005 186.856921 
L 325.961205 184.583413 
L 333.175405 182.081368 
L 339.668185 179.609757 
L 346.160965 176.904491 
L 352.653745 173.937772 
L 358.425105 171.056099 
L 364.196465 167.91921 
L 369.967825 164.501169 
L 375.017765 161.258334 
L 380.067705 157.760881 
L 385.117645 153.991074 
L 390.167585 149.933405 
L 395.217525 145.57685 
L 400.267465 140.918208 
L 405.317405 135.966875 
L 411.088765 129.987658 
L 418.302965 122.17029 
L 428.402845 111.226024 
L 432.731365 106.880184 
L 436.338465 103.596284 
L 439.224145 101.272939 
L 442.109825 99.285617 
L 444.274085 98.051386 
L 446.438345 97.062665 
L 448.602605 96.339943 
L 450.766865 95.900192 
L 452.931125 95.756069 
L 455.095385 95.915275 
L 457.259645 96.380132 
L 459.423905 97.147415 
L 461.588165 98.208464 
L 463.752425 99.549559 
L 465.916685 101.152535 
L 468.080945 102.995567 
L 470.966625 105.783607 
L 473.852305 108.891682 
L 477.459405 113.128291 
L 481.787925 118.566955 
L 490.444965 129.911298 
L 497.659165 139.204196 
L 503.430525 146.253571 
L 508.480465 152.054479 
L 513.530405 157.482498 
L 517.858925 161.833837 
L 522.187445 165.912388 
L 527.237385 170.339833 
L 532.287325 174.431385 
L 537.337265 178.210944 
L 542.387205 181.703103 
L 547.437145 184.931964 
L 552.487085 187.920439 
L 558.258445 191.068818 
L 564.029805 193.96024 
L 569.801165 196.620941 
L 576.293945 199.367527 
L 582.786725 201.881173 
L 590.000925 204.432131 
L 597.215125 206.757873 
L 605.150745 209.08741 
L 613.807785 211.389361 
L 623.186245 213.638192 
L 633.286125 215.814022 
L 644.107425 217.902159 
L 655.650145 219.89248 
L 667.914285 221.778746 
L 681.621265 223.650868 
L 696.049665 225.394403 
L 711.920905 227.08669 
L 729.234985 228.707846 
L 748.713325 230.299408 
L 769.634505 231.783688 
L 793.441365 233.241626 
L 795.605625 233.363619 
L 795.605625 233.363619 
" clip-path="url(#pea5b37337e)" style="fill: none; stroke-dasharray: 5.55,2.4; stroke-dashoffset: 0; stroke: #0000ff; stroke-width: 1.5"/>
   </g>
   <g id="line2d_36">
    <path d="M 74.185625 210.338096 
L 95.106805 210.22943 
L 116.027985 209.899773 
L 136.227745 209.361282 
L 155.706085 208.620503 
L 173.741585 207.720049 
L 191.055665 206.636941 
L 206.926905 205.42954 
L 222.076725 204.056641 
L 235.783705 202.60014 
L 248.769265 201.00252 
L 261.033405 199.267897 
L 272.576125 197.402487 
L 282.676005 195.555748 
L 292.775885 193.477506 
L 302.154345 191.308751 
L 310.811385 189.071636 
L 318.747005 186.793851 
L 325.961205 184.508831 
L 333.175405 181.992735 
L 339.668185 179.505746 
L 346.160965 176.781846 
L 351.932325 174.13865 
L 357.703685 171.263211 
L 363.475045 168.130768 
L 368.524985 165.157949 
L 373.574925 161.948649 
L 378.624865 158.483149 
L 383.674805 154.741917 
L 388.724745 150.706871 
L 393.774685 146.363349 
L 398.824625 141.703116 
L 403.874565 136.728757 
L 408.924505 131.459889 
L 415.417285 124.329274 
L 430.567105 107.416365 
L 434.174205 103.770838 
L 437.059885 101.108861 
L 439.945565 98.742035 
L 442.109825 97.199708 
L 444.274085 95.886618 
L 446.438345 94.827713 
L 448.602605 94.045229 
L 450.766865 93.557706 
L 452.931125 93.379103 
L 455.095385 93.518068 
L 457.259645 93.977453 
L 459.423905 94.754117 
L 461.588165 95.839031 
L 463.752425 97.21768 
L 465.916685 98.870736 
L 468.080945 100.774922 
L 470.966625 103.658854 
L 473.852305 106.875383 
L 477.459405 111.25892 
L 481.787925 116.880941 
L 501.266265 142.694131 
L 506.316205 148.785572 
L 511.366145 154.492619 
L 515.694665 159.069139 
L 520.023185 163.357837 
L 524.351705 167.368279 
L 528.680225 171.113828 
L 533.730165 175.169506 
L 538.780105 178.911643 
L 543.830045 182.366219 
L 548.879985 185.558239 
L 553.929925 188.511188 
L 559.701285 191.621002 
L 565.472645 194.476263 
L 571.965425 197.416814 
L 578.458205 200.101514 
L 584.950985 202.559254 
L 592.165185 205.054401 
L 600.100805 207.546784 
L 608.036425 209.807638 
L 616.693465 212.043653 
L 626.071925 214.230085 
L 636.171805 216.347581 
L 646.993105 218.381745 
L 658.535825 220.322566 
L 670.799965 222.163761 
L 684.506945 223.993008 
L 699.656765 225.778348 
L 716.249425 227.495802 
L 734.284925 229.128591 
L 753.763265 230.666079 
L 775.405865 232.148688 
L 795.605625 233.355939 
L 795.605625 233.355939 
" clip-path="url(#pea5b37337e)" style="fill: none; stroke: #ff00ff; stroke-width: 2; stroke-linecap: square"/>
   </g>
   <g id="patch_3">
    <path d="M 74.185625 248.13375 
L 74.185625 54.62 
" style="fill: none; stroke: #000000; stroke-width: 0.8; stroke-linejoin: miter; stroke-linecap: square"/>
   </g>
   <g id="patch_4">
    <path d="M 795.605625 248.13375 
L 795.605625 54.62 
" style="fill: none; stroke: #000000; stroke-width: 0.8; stroke-linejoin: miter; stroke-linecap: square"/>
   </g>
   <g id="patch_5">
    <path d="M 74.185625 248.13375 
L 795.605625 248.13375 
" style="fill: none; stroke: #000000; stroke-width: 0.8; stroke-linejoin: miter; stroke-linecap: square"/>
   </g>
   <g id="patch_6">
    <path d="M 74.185625 54.62 
L 795.605625 54.62 
" style="fill: none; stroke: #000000; stroke-width: 0.8; stroke-linejoin: miter; stroke-linecap: square"/>
   </g>
   <g id="text_11">
    <!-- Identified model with $\hat{\zeta}$ -->
    <g transform="translate(343.965625 44.62) scale(0.14 -0.14)">
     <defs>
      <path id="DejaVuSans-Bold-49" d="M 588 4666 
L 1791 4666 
L 1791 0 
L 588 0 
L 588 4666 
z
" transform="scale(0.015625)"/>
      <path id="DejaVuSans-Bold-64" d="M 2919 2988 
L 2919 4863 
L 4044 4863 
L 4044 0 
L 2919 0 
L 2919 506 
Q 2688 197 2409 53 
Q 2131 -91 1766 -91 
Q 1119 -91 703 423 
Q 288 938 288 1747 
Q 288 2556 703 3070 
Q 1119 3584 1766 3584 
Q 2128 3584 2408 3439 
Q 2688 3294 2919 2988 
z
M 2181 722 
Q 2541 722 2730 984 
Q 2919 1247 2919 1747 
Q 2919 2247 2730 2509 
Q 2541 2772 2181 2772 
Q 1825 2772 1636 2509 
Q 1447 2247 1447 1747 
Q 1447 1247 1636 984 
Q 1825 722 2181 722 
z
" transform="scale(0.015625)"/>
      <path id="DejaVuSans-Bold-65" d="M 4031 1759 
L 4031 1441 
L 1416 1441 
Q 1456 1047 1700 850 
Q 1944 653 2381 653 
Q 2734 653 3104 758 
Q 3475 863 3866 1075 
L 3866 213 
Q 3469 63 3072 -14 
Q 2675 -91 2278 -91 
Q 1328 -91 801 392 
Q 275 875 275 1747 
Q 275 2603 792 3093 
Q 1309 3584 2216 3584 
Q 3041 3584 3536 3087 
Q 4031 2591 4031 1759 
z
M 2881 2131 
Q 2881 2450 2695 2645 
Q 2509 2841 2209 2841 
Q 1884 2841 1681 2658 
Q 1478 2475 1428 2131 
L 2881 2131 
z
" transform="scale(0.015625)"/>
      <path id="DejaVuSans-Bold-6e" d="M 4056 2131 
L 4056 0 
L 2931 0 
L 2931 347 
L 2931 1631 
Q 2931 2084 2911 2256 
Q 2891 2428 2841 2509 
Q 2775 2619 2662 2680 
Q 2550 2741 2406 2741 
Q 2056 2741 1856 2470 
Q 1656 2200 1656 1722 
L 1656 0 
L 538 0 
L 538 3500 
L 1656 3500 
L 1656 2988 
Q 1909 3294 2193 3439 
Q 2478 3584 2822 3584 
Q 3428 3584 3742 3212 
Q 4056 2841 4056 2131 
z
" transform="scale(0.015625)"/>
      <path id="DejaVuSans-Bold-74" d="M 1759 4494 
L 1759 3500 
L 2913 3500 
L 2913 2700 
L 1759 2700 
L 1759 1216 
Q 1759 972 1856 886 
Q 1953 800 2241 800 
L 2816 800 
L 2816 0 
L 1856 0 
Q 1194 0 917 276 
Q 641 553 641 1216 
L 641 2700 
L 84 2700 
L 84 3500 
L 641 3500 
L 641 4494 
L 1759 4494 
z
" transform="scale(0.015625)"/>
      <path id="DejaVuSans-Bold-69" d="M 538 3500 
L 1656 3500 
L 1656 0 
L 538 0 
L 538 3500 
z
M 538 4863 
L 1656 4863 
L 1656 3950 
L 538 3950 
L 538 4863 
z
" transform="scale(0.015625)"/>
      <path id="DejaVuSans-Bold-66" d="M 2841 4863 
L 2841 4128 
L 2222 4128 
Q 1984 4128 1890 4042 
Q 1797 3956 1797 3744 
L 1797 3500 
L 2753 3500 
L 2753 2700 
L 1797 2700 
L 1797 0 
L 678 0 
L 678 2700 
L 122 2700 
L 122 3500 
L 678 3500 
L 678 3744 
Q 678 4316 997 4589 
Q 1316 4863 1984 4863 
L 2841 4863 
z
" transform="scale(0.015625)"/>
      <path id="DejaVuSans-Bold-20" transform="scale(0.015625)"/>
      <path id="DejaVuSans-Bold-6d" d="M 3781 2919 
Q 3994 3244 4286 3414 
Q 4578 3584 4928 3584 
Q 5531 3584 5847 3212 
Q 6163 2841 6163 2131 
L 6163 0 
L 5038 0 
L 5038 1825 
Q 5041 1866 5042 1909 
Q 5044 1953 5044 2034 
Q 5044 2406 4934 2573 
Q 4825 2741 4581 2741 
Q 4263 2741 4089 2478 
Q 3916 2216 3909 1719 
L 3909 0 
L 2784 0 
L 2784 1825 
Q 2784 2406 2684 2573 
Q 2584 2741 2328 2741 
Q 2006 2741 1831 2477 
Q 1656 2213 1656 1722 
L 1656 0 
L 531 0 
L 531 3500 
L 1656 3500 
L 1656 2988 
Q 1863 3284 2130 3434 
Q 2397 3584 2719 3584 
Q 3081 3584 3359 3409 
Q 3638 3234 3781 2919 
z
" transform="scale(0.015625)"/>
      <path id="DejaVuSans-Bold-6f" d="M 2203 2784 
Q 1831 2784 1636 2517 
Q 1441 2250 1441 1747 
Q 1441 1244 1636 976 
Q 1831 709 2203 709 
Q 2569 709 2762 976 
Q 2956 1244 2956 1747 
Q 2956 2250 2762 2517 
Q 2569 2784 2203 2784 
z
M 2203 3584 
Q 3106 3584 3614 3096 
Q 4122 2609 4122 1747 
Q 4122 884 3614 396 
Q 3106 -91 2203 -91 
Q 1297 -91 786 396 
Q 275 884 275 1747 
Q 275 2609 786 3096 
Q 1297 3584 2203 3584 
z
" transform="scale(0.015625)"/>
      <path id="DejaVuSans-Bold-6c" d="M 538 4863 
L 1656 4863 
L 1656 0 
L 538 0 
L 538 4863 
z
" transform="scale(0.015625)"/>
      <path id="DejaVuSans-Bold-77" d="M 225 3500 
L 1313 3500 
L 1900 1088 
L 2491 3500 
L 3425 3500 
L 4013 1113 
L 4603 3500 
L 5691 3500 
L 4769 0 
L 3547 0 
L 2956 2406 
L 2369 0 
L 1147 0 
L 225 3500 
z
" transform="scale(0.015625)"/>
      <path id="DejaVuSans-Bold-68" d="M 4056 2131 
L 4056 0 
L 2931 0 
L 2931 347 
L 2931 1625 
Q 2931 2084 2911 2256 
Q 2891 2428 2841 2509 
Q 2775 2619 2662 2680 
Q 2550 2741 2406 2741 
Q 2056 2741 1856 2470 
Q 1656 2200 1656 1722 
L 1656 0 
L 538 0 
L 538 4863 
L 1656 4863 
L 1656 2988 
Q 1909 3294 2193 3439 
Q 2478 3584 2822 3584 
Q 3428 3584 3742 3212 
Q 4056 2841 4056 2131 
z
" transform="scale(0.015625)"/>
      <path id="DejaVuSans-302" d="M -1831 5119 
L -1369 5119 
L -603 3944 
L -1038 3944 
L -1600 4709 
L -2163 3944 
L -2597 3944 
L -1831 5119 
z
M -1600 3584 
L -1600 3584 
z
" transform="scale(0.015625)"/>
      <path id="DejaVuSans-Oblique-3b6" d="M 1966 397 
Q 2378 394 2578 159 
Q 2794 -88 2722 -463 
Q 2650 -822 2372 -1072 
Q 2069 -1344 1559 -1344 
Q 1606 -1109 1650 -872 
Q 1863 -888 2022 -750 
Q 2144 -641 2166 -525 
Q 2197 -359 2125 -222 
Q 2050 -91 1872 -91 
Q -22 -91 316 1669 
Q 616 3206 2609 4284 
L 947 4284 
L 1059 4863 
L 3778 4863 
L 3666 4284 
Q 1181 3147 894 1669 
Q 647 397 1966 397 
z
" transform="scale(0.015625)"/>
     </defs>
     <use xlink:href="#DejaVuSans-Bold-49" transform="translate(0 0.53125)"/>
     <use xlink:href="#DejaVuSans-Bold-64" transform="translate(37.207031 0.53125)"/>
     <use xlink:href="#DejaVuSans-Bold-65" transform="translate(108.789062 0.53125)"/>
     <use xlink:href="#DejaVuSans-Bold-6e" transform="translate(176.611328 0.53125)"/>
     <use xlink:href="#DejaVuSans-Bold-74" transform="translate(247.802734 0.53125)"/>
     <use xlink:href="#DejaVuSans-Bold-69" transform="translate(295.605469 0.53125)"/>
     <use xlink:href="#DejaVuSans-Bold-66" transform="translate(329.882812 0.53125)"/>
     <use xlink:href="#DejaVuSans-Bold-69" transform="translate(373.388672 0.53125)"/>
     <use xlink:href="#DejaVuSans-Bold-65" transform="translate(407.666016 0.53125)"/>
     <use xlink:href="#DejaVuSans-Bold-64" transform="translate(475.488281 0.53125)"/>
     <use xlink:href="#DejaVuSans-Bold-20" transform="translate(547.070312 0.53125)"/>
     <use xlink:href="#DejaVuSans-Bold-6d" transform="translate(581.884766 0.53125)"/>
     <use xlink:href="#DejaVuSans-Bold-6f" transform="translate(686.083984 0.53125)"/>
     <use xlink:href="#DejaVuSans-Bold-64" transform="translate(754.785156 0.53125)"/>
     <use xlink:href="#DejaVuSans-Bold-65" transform="translate(826.367188 0.53125)"/>
     <use xlink:href="#DejaVuSans-Bold-6c" transform="translate(894.189453 0.53125)"/>
     <use xlink:href="#DejaVuSans-Bold-20" transform="translate(928.466797 0.53125)"/>
     <use xlink:href="#DejaVuSans-Bold-77" transform="translate(963.28125 0.53125)"/>
     <use xlink:href="#DejaVuSans-Bold-69" transform="translate(1055.664062 0.53125)"/>
     <use xlink:href="#DejaVuSans-Bold-74" transform="translate(1089.941406 0.53125)"/>
     <use xlink:href="#DejaVuSans-Bold-68" transform="translate(1137.744141 0.53125)"/>
     <use xlink:href="#DejaVuSans-Bold-20" transform="translate(1208.935547 0.53125)"/>
     <use xlink:href="#DejaVuSans-302" transform="translate(1302.926758 33.015625)"/>
     <use xlink:href="#DejaVuSans-Oblique-3b6" transform="translate(1243.75 0.53125)"/>
    </g>
   </g>
   <g id="legend_1">
    <g id="patch_7">
     <path d="M 630.305625 110.398125 
L 788.605625 110.398125 
Q 790.605625 110.398125 790.605625 108.398125 
L 790.605625 61.62 
Q 790.605625 59.62 788.605625 59.62 
L 630.305625 59.62 
Q 628.305625 59.62 628.305625 61.62 
L 628.305625 108.398125 
Q 628.305625 110.398125 630.305625 110.398125 
z
" style="fill: #ffffff; opacity: 0.8; stroke: #cccccc; stroke-linejoin: miter"/>
    </g>
    <g id="PathCollection_2">
     <path d="M 642.305625 71.593437 
C 643.101234 71.593437 643.864365 71.277339 644.426945 70.714758 
C 644.989526 70.152177 645.305625 69.389047 645.305625 68.593437 
C 645.305625 67.797828 644.989526 67.034698 644.426945 66.472117 
C 643.864365 65.909536 643.101234 65.593437 642.305625 65.593437 
C 641.510016 65.593437 640.746885 65.909536 640.184305 66.472117 
C 639.621724 67.034698 639.305625 67.797828 639.305625 68.593437 
C 639.305625 69.389047 639.621724 70.152177 640.184305 70.714758 
C 640.746885 71.277339 641.510016 71.593437 642.305625 71.593437 
L 642.305625 71.593437 
z
" style="fill: none; stroke: #ff0000; stroke-width: 1.5"/>
    </g>
    <g id="text_12">
     <!-- Measurements -->
     <g transform="translate(660.305625 71.218437) scale(0.1 -0.1)">
      <defs>
       <path id="DejaVuSans-4d" d="M 628 4666 
L 1569 4666 
L 2759 1491 
L 3956 4666 
L 4897 4666 
L 4897 0 
L 4281 0 
L 4281 4097 
L 3078 897 
L 2444 897 
L 1241 4097 
L 1241 0 
L 628 0 
L 628 4666 
z
" transform="scale(0.015625)"/>
       <path id="DejaVuSans-65" d="M 3597 1894 
L 3597 1613 
L 953 1613 
Q 991 1019 1311 708 
Q 1631 397 2203 397 
Q 2534 397 2845 478 
Q 3156 559 3463 722 
L 3463 178 
Q 3153 47 2828 -22 
Q 2503 -91 2169 -91 
Q 1331 -91 842 396 
Q 353 884 353 1716 
Q 353 2575 817 3079 
Q 1281 3584 2069 3584 
Q 2775 3584 3186 3129 
Q 3597 2675 3597 1894 
z
M 3022 2063 
Q 3016 2534 2758 2815 
Q 2500 3097 2075 3097 
Q 1594 3097 1305 2825 
Q 1016 2553 972 2059 
L 3022 2063 
z
" transform="scale(0.015625)"/>
       <path id="DejaVuSans-61" d="M 2194 1759 
Q 1497 1759 1228 1600 
Q 959 1441 959 1056 
Q 959 750 1161 570 
Q 1363 391 1709 391 
Q 2188 391 2477 730 
Q 2766 1069 2766 1631 
L 2766 1759 
L 2194 1759 
z
M 3341 1997 
L 3341 0 
L 2766 0 
L 2766 531 
Q 2569 213 2275 61 
Q 1981 -91 1556 -91 
Q 1019 -91 701 211 
Q 384 513 384 1019 
Q 384 1609 779 1909 
Q 1175 2209 1959 2209 
L 2766 2209 
L 2766 2266 
Q 2766 2663 2505 2880 
Q 2244 3097 1772 3097 
Q 1472 3097 1187 3025 
Q 903 2953 641 2809 
L 641 3341 
Q 956 3463 1253 3523 
Q 1550 3584 1831 3584 
Q 2591 3584 2966 3190 
Q 3341 2797 3341 1997 
z
" transform="scale(0.015625)"/>
       <path id="DejaVuSans-73" d="M 2834 3397 
L 2834 2853 
Q 2591 2978 2328 3040 
Q 2066 3103 1784 3103 
Q 1356 3103 1142 2972 
Q 928 2841 928 2578 
Q 928 2378 1081 2264 
Q 1234 2150 1697 2047 
L 1894 2003 
Q 2506 1872 2764 1633 
Q 3022 1394 3022 966 
Q 3022 478 2636 193 
Q 2250 -91 1575 -91 
Q 1294 -91 989 -36 
Q 684 19 347 128 
L 347 722 
Q 666 556 975 473 
Q 1284 391 1588 391 
Q 1994 391 2212 530 
Q 2431 669 2431 922 
Q 2431 1156 2273 1281 
Q 2116 1406 1581 1522 
L 1381 1569 
Q 847 1681 609 1914 
Q 372 2147 372 2553 
Q 372 3047 722 3315 
Q 1072 3584 1716 3584 
Q 2034 3584 2315 3537 
Q 2597 3491 2834 3397 
z
" transform="scale(0.015625)"/>
       <path id="DejaVuSans-75" d="M 544 1381 
L 544 3500 
L 1119 3500 
L 1119 1403 
Q 1119 906 1312 657 
Q 1506 409 1894 409 
Q 2359 409 2629 706 
Q 2900 1003 2900 1516 
L 2900 3500 
L 3475 3500 
L 3475 0 
L 2900 0 
L 2900 538 
Q 2691 219 2414 64 
Q 2138 -91 1772 -91 
Q 1169 -91 856 284 
Q 544 659 544 1381 
z
M 1991 3584 
L 1991 3584 
z
" transform="scale(0.015625)"/>
       <path id="DejaVuSans-72" d="M 2631 2963 
Q 2534 3019 2420 3045 
Q 2306 3072 2169 3072 
Q 1681 3072 1420 2755 
Q 1159 2438 1159 1844 
L 1159 0 
L 581 0 
L 581 3500 
L 1159 3500 
L 1159 2956 
Q 1341 3275 1631 3429 
Q 1922 3584 2338 3584 
Q 2397 3584 2469 3576 
Q 2541 3569 2628 3553 
L 2631 2963 
z
" transform="scale(0.015625)"/>
       <path id="DejaVuSans-6d" d="M 3328 2828 
Q 3544 3216 3844 3400 
Q 4144 3584 4550 3584 
Q 5097 3584 5394 3201 
Q 5691 2819 5691 2113 
L 5691 0 
L 5113 0 
L 5113 2094 
Q 5113 2597 4934 2840 
Q 4756 3084 4391 3084 
Q 3944 3084 3684 2787 
Q 3425 2491 3425 1978 
L 3425 0 
L 2847 0 
L 2847 2094 
Q 2847 2600 2669 2842 
Q 2491 3084 2119 3084 
Q 1678 3084 1418 2786 
Q 1159 2488 1159 1978 
L 1159 0 
L 581 0 
L 581 3500 
L 1159 3500 
L 1159 2956 
Q 1356 3278 1631 3431 
Q 1906 3584 2284 3584 
Q 2666 3584 2933 3390 
Q 3200 3197 3328 2828 
z
" transform="scale(0.015625)"/>
       <path id="DejaVuSans-6e" d="M 3513 2113 
L 3513 0 
L 2938 0 
L 2938 2094 
Q 2938 2591 2744 2837 
Q 2550 3084 2163 3084 
Q 1697 3084 1428 2787 
Q 1159 2491 1159 1978 
L 1159 0 
L 581 0 
L 581 3500 
L 1159 3500 
L 1159 2956 
Q 1366 3272 1645 3428 
Q 1925 3584 2291 3584 
Q 2894 3584 3203 3211 
Q 3513 2838 3513 2113 
z
" transform="scale(0.015625)"/>
       <path id="DejaVuSans-74" d="M 1172 4494 
L 1172 3500 
L 2356 3500 
L 2356 3053 
L 1172 3053 
L 1172 1153 
Q 1172 725 1289 603 
Q 1406 481 1766 481 
L 2356 481 
L 2356 0 
L 1766 0 
Q 1100 0 847 248 
Q 594 497 594 1153 
L 594 3053 
L 172 3053 
L 172 3500 
L 594 3500 
L 594 4494 
L 1172 4494 
z
" transform="scale(0.015625)"/>
      </defs>
      <use xlink:href="#DejaVuSans-4d"/>
      <use xlink:href="#DejaVuSans-65" transform="translate(86.279297 0)"/>
      <use xlink:href="#DejaVuSans-61" transform="translate(147.802734 0)"/>
      <use xlink:href="#DejaVuSans-73" transform="translate(209.082031 0)"/>
      <use xlink:href="#DejaVuSans-75" transform="translate(261.181641 0)"/>
      <use xlink:href="#DejaVuSans-72" transform="translate(324.560547 0)"/>
      <use xlink:href="#DejaVuSans-65" transform="translate(363.423828 0)"/>
      <use xlink:href="#DejaVuSans-6d" transform="translate(424.947266 0)"/>
      <use xlink:href="#DejaVuSans-65" transform="translate(522.359375 0)"/>
      <use xlink:href="#DejaVuSans-6e" transform="translate(583.882812 0)"/>
      <use xlink:href="#DejaVuSans-74" transform="translate(647.261719 0)"/>
      <use xlink:href="#DejaVuSans-73" transform="translate(686.470703 0)"/>
     </g>
    </g>
    <g id="line2d_37">
     <path d="M 632.305625 82.398125 
L 642.305625 82.398125 
L 652.305625 82.398125 
" style="fill: none; stroke-dasharray: 5.55,2.4; stroke-dashoffset: 0; stroke: #0000ff; stroke-width: 1.5"/>
    </g>
    <g id="text_13">
     <!-- True FRF ($\zeta = 0.125)$ -->
     <g transform="translate(660.305625 85.898125) scale(0.1 -0.1)">
      <defs>
       <path id="DejaVuSans-54" d="M -19 4666 
L 3928 4666 
L 3928 4134 
L 2272 4134 
L 2272 0 
L 1638 0 
L 1638 4134 
L -19 4134 
L -19 4666 
z
" transform="scale(0.015625)"/>
       <path id="DejaVuSans-20" transform="scale(0.015625)"/>
       <path id="DejaVuSans-46" d="M 628 4666 
L 3309 4666 
L 3309 4134 
L 1259 4134 
L 1259 2759 
L 3109 2759 
L 3109 2228 
L 1259 2228 
L 1259 0 
L 628 0 
L 628 4666 
z
" transform="scale(0.015625)"/>
       <path id="DejaVuSans-52" d="M 2841 2188 
Q 3044 2119 3236 1894 
Q 3428 1669 3622 1275 
L 4263 0 
L 3584 0 
L 2988 1197 
Q 2756 1666 2539 1819 
Q 2322 1972 1947 1972 
L 1259 1972 
L 1259 0 
L 628 0 
L 628 4666 
L 2053 4666 
Q 2853 4666 3247 4331 
Q 3641 3997 3641 3322 
Q 3641 2881 3436 2590 
Q 3231 2300 2841 2188 
z
M 1259 4147 
L 1259 2491 
L 2053 2491 
Q 2509 2491 2742 2702 
Q 2975 2913 2975 3322 
Q 2975 3731 2742 3939 
Q 2509 4147 2053 4147 
L 1259 4147 
z
" transform="scale(0.015625)"/>
       <path id="DejaVuSans-28" d="M 1984 4856 
Q 1566 4138 1362 3434 
Q 1159 2731 1159 2009 
Q 1159 1288 1364 580 
Q 1569 -128 1984 -844 
L 1484 -844 
Q 1016 -109 783 600 
Q 550 1309 550 2009 
Q 550 2706 781 3412 
Q 1013 4119 1484 4856 
L 1984 4856 
z
" transform="scale(0.015625)"/>
       <path id="DejaVuSans-3d" d="M 678 2906 
L 4684 2906 
L 4684 2381 
L 678 2381 
L 678 2906 
z
M 678 1631 
L 4684 1631 
L 4684 1100 
L 678 1100 
L 678 1631 
z
" transform="scale(0.015625)"/>
       <path id="DejaVuSans-29" d="M 513 4856 
L 1013 4856 
Q 1481 4119 1714 3412 
Q 1947 2706 1947 2009 
Q 1947 1309 1714 600 
Q 1481 -109 1013 -844 
L 513 -844 
Q 928 -128 1133 580 
Q 1338 1288 1338 2009 
Q 1338 2731 1133 3434 
Q 928 4138 513 4856 
z
" transform="scale(0.015625)"/>
      </defs>
      <use xlink:href="#DejaVuSans-54" transform="translate(0 0.015625)"/>
      <use xlink:href="#DejaVuSans-72" transform="translate(61.083984 0.015625)"/>
      <use xlink:href="#DejaVuSans-75" transform="translate(102.197266 0.015625)"/>
      <use xlink:href="#DejaVuSans-65" transform="translate(165.576172 0.015625)"/>
      <use xlink:href="#DejaVuSans-20" transform="translate(227.099609 0.015625)"/>
      <use xlink:href="#DejaVuSans-46" transform="translate(258.886719 0.015625)"/>
      <use xlink:href="#DejaVuSans-52" transform="translate(316.40625 0.015625)"/>
      <use xlink:href="#DejaVuSans-46" transform="translate(385.888672 0.015625)"/>
      <use xlink:href="#DejaVuSans-20" transform="translate(443.408203 0.015625)"/>
      <use xlink:href="#DejaVuSans-28" transform="translate(475.195312 0.015625)"/>
      <use xlink:href="#DejaVuSans-Oblique-3b6" transform="translate(514.208984 0.015625)"/>
      <use xlink:href="#DejaVuSans-3d" transform="translate(588.085938 0.015625)"/>
      <use xlink:href="#DejaVuSans-30" transform="translate(691.357422 0.015625)"/>
      <use xlink:href="#DejaVuSans-2e" transform="translate(754.980469 0.015625)"/>
      <use xlink:href="#DejaVuSans-31" transform="translate(786.767578 0.015625)"/>
      <use xlink:href="#DejaVuSans-32" transform="translate(850.390625 0.015625)"/>
      <use xlink:href="#DejaVuSans-35" transform="translate(914.013672 0.015625)"/>
      <use xlink:href="#DejaVuSans-29" transform="translate(977.636719 0.015625)"/>
     </g>
    </g>
    <g id="line2d_38">
     <path d="M 632.305625 100.798125 
L 642.305625 100.798125 
L 652.305625 100.798125 
" style="fill: none; stroke: #ff00ff; stroke-width: 2; stroke-linecap: square"/>
    </g>
    <g id="text_14">
     <!-- Identified FRF ($\hat{\zeta} = 0.123)$ -->
     <g transform="translate(660.305625 104.298125) scale(0.1 -0.1)">
      <defs>
       <path id="DejaVuSans-49" d="M 628 4666 
L 1259 4666 
L 1259 0 
L 628 0 
L 628 4666 
z
" transform="scale(0.015625)"/>
       <path id="DejaVuSans-64" d="M 2906 2969 
L 2906 4863 
L 3481 4863 
L 3481 0 
L 2906 0 
L 2906 525 
Q 2725 213 2448 61 
Q 2172 -91 1784 -91 
Q 1150 -91 751 415 
Q 353 922 353 1747 
Q 353 2572 751 3078 
Q 1150 3584 1784 3584 
Q 2172 3584 2448 3432 
Q 2725 3281 2906 2969 
z
M 947 1747 
Q 947 1113 1208 752 
Q 1469 391 1925 391 
Q 2381 391 2643 752 
Q 2906 1113 2906 1747 
Q 2906 2381 2643 2742 
Q 2381 3103 1925 3103 
Q 1469 3103 1208 2742 
Q 947 2381 947 1747 
z
" transform="scale(0.015625)"/>
       <path id="DejaVuSans-69" d="M 603 3500 
L 1178 3500 
L 1178 0 
L 603 0 
L 603 3500 
z
M 603 4863 
L 1178 4863 
L 1178 4134 
L 603 4134 
L 603 4863 
z
" transform="scale(0.015625)"/>
       <path id="DejaVuSans-66" d="M 2375 4863 
L 2375 4384 
L 1825 4384 
Q 1516 4384 1395 4259 
Q 1275 4134 1275 3809 
L 1275 3500 
L 2222 3500 
L 2222 3053 
L 1275 3053 
L 1275 0 
L 697 0 
L 697 3053 
L 147 3053 
L 147 3500 
L 697 3500 
L 697 3744 
Q 697 4328 969 4595 
Q 1241 4863 1831 4863 
L 2375 4863 
z
" transform="scale(0.015625)"/>
      </defs>
      <use xlink:href="#DejaVuSans-49" transform="translate(0 0.53125)"/>
      <use xlink:href="#DejaVuSans-64" transform="translate(29.492188 0.53125)"/>
      <use xlink:href="#DejaVuSans-65" transform="translate(92.96875 0.53125)"/>
      <use xlink:href="#DejaVuSans-6e" transform="translate(154.492188 0.53125)"/>
      <use xlink:href="#DejaVuSans-74" transform="translate(217.871094 0.53125)"/>
      <use xlink:href="#DejaVuSans-69" transform="translate(257.080078 0.53125)"/>
      <use xlink:href="#DejaVuSans-66" transform="translate(284.863281 0.53125)"/>
      <use xlink:href="#DejaVuSans-69" transform="translate(320.068359 0.53125)"/>
      <use xlink:href="#DejaVuSans-65" transform="translate(347.851562 0.53125)"/>
      <use xlink:href="#DejaVuSans-64" transform="translate(409.375 0.53125)"/>
      <use xlink:href="#DejaVuSans-20" transform="translate(472.851562 0.53125)"/>
      <use xlink:href="#DejaVuSans-46" transform="translate(504.638672 0.53125)"/>
      <use xlink:href="#DejaVuSans-52" transform="translate(562.158203 0.53125)"/>
      <use xlink:href="#DejaVuSans-46" transform="translate(631.640625 0.53125)"/>
      <use xlink:href="#DejaVuSans-20" transform="translate(689.160156 0.53125)"/>
      <use xlink:href="#DejaVuSans-28" transform="translate(720.947266 0.53125)"/>
      <use xlink:href="#DejaVuSans-302" transform="translate(819.137695 33.015625)"/>
      <use xlink:href="#DejaVuSans-Oblique-3b6" transform="translate(759.960938 0.53125)"/>
      <use xlink:href="#DejaVuSans-3d" transform="translate(833.837891 0.53125)"/>
      <use xlink:href="#DejaVuSans-30" transform="translate(937.109375 0.53125)"/>
      <use xlink:href="#DejaVuSans-2e" transform="translate(1000.732422 0.53125)"/>
      <use xlink:href="#DejaVuSans-31" transform="translate(1032.519531 0.53125)"/>
      <use xlink:href="#DejaVuSans-32" transform="translate(1096.142578 0.53125)"/>
      <use xlink:href="#DejaVuSans-33" transform="translate(1159.765625 0.53125)"/>
      <use xlink:href="#DejaVuSans-29" transform="translate(1223.388672 0.53125)"/>
     </g>
    </g>
   </g>
  </g>
  <g id="axes_2">
   <g id="patch_8">
    <path d="M 74.185625 474.6475 
L 795.605625 474.6475 
L 795.605625 281.13375 
L 74.185625 281.13375 
z
" style="fill: #ffffff"/>
   </g>
   <g id="matplotlib.axis_3">
    <g id="xtick_9">
     <g id="line2d_39">
      <path d="M 74.185625 474.6475 
L 74.185625 281.13375 
" clip-path="url(#p51cc694104)" style="fill: none; stroke-dasharray: 2.96,1.28; stroke-dashoffset: 0; stroke: #b0b0b0; stroke-opacity: 0.7; stroke-width: 0.8"/>
     </g>
     <g id="line2d_40">
      <g>
       <use xlink:href="#m41cd0be415" x="74.185625" y="474.6475" style="stroke: #000000; stroke-width: 0.8"/>
      </g>
     </g>
     <g id="text_15">
      <!-- 0 -->
      <g transform="translate(71.004375 489.245937) scale(0.1 -0.1)">
       <use xlink:href="#DejaVuSans-30"/>
      </g>
     </g>
    </g>
    <g id="xtick_10">
     <g id="line2d_41">
      <path d="M 170.374958 474.6475 
L 170.374958 281.13375 
" clip-path="url(#p51cc694104)" style="fill: none; stroke-dasharray: 2.96,1.28; stroke-dashoffset: 0; stroke: #b0b0b0; stroke-opacity: 0.7; stroke-width: 0.8"/>
     </g>
     <g id="line2d_42">
      <g>
       <use xlink:href="#m41cd0be415" x="170.374958" y="474.6475" style="stroke: #000000; stroke-width: 0.8"/>
      </g>
     </g>
     <g id="text_16">
      <!-- 2 -->
      <g transform="translate(167.193708 489.245937) scale(0.1 -0.1)">
       <use xlink:href="#DejaVuSans-32"/>
      </g>
     </g>
    </g>
    <g id="xtick_11">
     <g id="line2d_43">
      <path d="M 266.564292 474.6475 
L 266.564292 281.13375 
" clip-path="url(#p51cc694104)" style="fill: none; stroke-dasharray: 2.96,1.28; stroke-dashoffset: 0; stroke: #b0b0b0; stroke-opacity: 0.7; stroke-width: 0.8"/>
     </g>
     <g id="line2d_44">
      <g>
       <use xlink:href="#m41cd0be415" x="266.564292" y="474.6475" style="stroke: #000000; stroke-width: 0.8"/>
      </g>
     </g>
     <g id="text_17">
      <!-- 4 -->
      <g transform="translate(263.383042 489.245937) scale(0.1 -0.1)">
       <use xlink:href="#DejaVuSans-34"/>
      </g>
     </g>
    </g>
    <g id="xtick_12">
     <g id="line2d_45">
      <path d="M 362.753625 474.6475 
L 362.753625 281.13375 
" clip-path="url(#p51cc694104)" style="fill: none; stroke-dasharray: 2.96,1.28; stroke-dashoffset: 0; stroke: #b0b0b0; stroke-opacity: 0.7; stroke-width: 0.8"/>
     </g>
     <g id="line2d_46">
      <g>
       <use xlink:href="#m41cd0be415" x="362.753625" y="474.6475" style="stroke: #000000; stroke-width: 0.8"/>
      </g>
     </g>
     <g id="text_18">
      <!-- 6 -->
      <g transform="translate(359.572375 489.245937) scale(0.1 -0.1)">
       <use xlink:href="#DejaVuSans-36"/>
      </g>
     </g>
    </g>
    <g id="xtick_13">
     <g id="line2d_47">
      <path d="M 458.942958 474.6475 
L 458.942958 281.13375 
" clip-path="url(#p51cc694104)" style="fill: none; stroke-dasharray: 2.96,1.28; stroke-dashoffset: 0; stroke: #b0b0b0; stroke-opacity: 0.7; stroke-width: 0.8"/>
     </g>
     <g id="line2d_48">
      <g>
       <use xlink:href="#m41cd0be415" x="458.942958" y="474.6475" style="stroke: #000000; stroke-width: 0.8"/>
      </g>
     </g>
     <g id="text_19">
      <!-- 8 -->
      <g transform="translate(455.761708 489.245937) scale(0.1 -0.1)">
       <use xlink:href="#DejaVuSans-38"/>
      </g>
     </g>
    </g>
    <g id="xtick_14">
     <g id="line2d_49">
      <path d="M 555.132292 474.6475 
L 555.132292 281.13375 
" clip-path="url(#p51cc694104)" style="fill: none; stroke-dasharray: 2.96,1.28; stroke-dashoffset: 0; stroke: #b0b0b0; stroke-opacity: 0.7; stroke-width: 0.8"/>
     </g>
     <g id="line2d_50">
      <g>
       <use xlink:href="#m41cd0be415" x="555.132292" y="474.6475" style="stroke: #000000; stroke-width: 0.8"/>
      </g>
     </g>
     <g id="text_20">
      <!-- 10 -->
      <g transform="translate(548.769792 489.245937) scale(0.1 -0.1)">
       <use xlink:href="#DejaVuSans-31"/>
       <use xlink:href="#DejaVuSans-30" transform="translate(63.623047 0)"/>
      </g>
     </g>
    </g>
    <g id="xtick_15">
     <g id="line2d_51">
      <path d="M 651.321625 474.6475 
L 651.321625 281.13375 
" clip-path="url(#p51cc694104)" style="fill: none; stroke-dasharray: 2.96,1.28; stroke-dashoffset: 0; stroke: #b0b0b0; stroke-opacity: 0.7; stroke-width: 0.8"/>
     </g>
     <g id="line2d_52">
      <g>
       <use xlink:href="#m41cd0be415" x="651.321625" y="474.6475" style="stroke: #000000; stroke-width: 0.8"/>
      </g>
     </g>
     <g id="text_21">
      <!-- 12 -->
      <g transform="translate(644.959125 489.245937) scale(0.1 -0.1)">
       <use xlink:href="#DejaVuSans-31"/>
       <use xlink:href="#DejaVuSans-32" transform="translate(63.623047 0)"/>
      </g>
     </g>
    </g>
    <g id="xtick_16">
     <g id="line2d_53">
      <path d="M 747.510958 474.6475 
L 747.510958 281.13375 
" clip-path="url(#p51cc694104)" style="fill: none; stroke-dasharray: 2.96,1.28; stroke-dashoffset: 0; stroke: #b0b0b0; stroke-opacity: 0.7; stroke-width: 0.8"/>
     </g>
     <g id="line2d_54">
      <g>
       <use xlink:href="#m41cd0be415" x="747.510958" y="474.6475" style="stroke: #000000; stroke-width: 0.8"/>
      </g>
     </g>
     <g id="text_22">
      <!-- 14 -->
      <g transform="translate(741.148458 489.245937) scale(0.1 -0.1)">
       <use xlink:href="#DejaVuSans-31"/>
       <use xlink:href="#DejaVuSans-34" transform="translate(63.623047 0)"/>
      </g>
     </g>
    </g>
    <g id="text_23">
     <!-- $\omega$ [rad/s] -->
     <g transform="translate(408.135625 504.44375) scale(0.12 -0.12)">
      <defs>
       <path id="DejaVuSans-Oblique-3c9" d="M 1369 -91 
Q 72 -91 434 1766 
Q 575 2500 1256 3500 
L 1875 3500 
Q 1231 2500 1088 1750 
Q 819 397 1519 397 
Q 2166 397 2478 2078 
L 3009 2078 
Q 2669 388 3316 397 
Q 4013 403 4275 1750 
Q 4419 2500 4169 3500 
L 4788 3500 
Q 5075 2500 4934 1766 
Q 4578 -94 3278 -91 
Q 2428 -88 2503 844 
Q 2194 -91 1369 -91 
z
" transform="scale(0.015625)"/>
      </defs>
      <use xlink:href="#DejaVuSans-Oblique-3c9" transform="translate(0 0.015625)"/>
      <use xlink:href="#DejaVuSans-20" transform="translate(83.740234 0.015625)"/>
      <use xlink:href="#DejaVuSans-5b" transform="translate(115.527344 0.015625)"/>
      <use xlink:href="#DejaVuSans-72" transform="translate(154.541016 0.015625)"/>
      <use xlink:href="#DejaVuSans-61" transform="translate(195.654297 0.015625)"/>
      <use xlink:href="#DejaVuSans-64" transform="translate(256.933594 0.015625)"/>
      <use xlink:href="#DejaVuSans-2f" transform="translate(320.410156 0.015625)"/>
      <use xlink:href="#DejaVuSans-73" transform="translate(354.101562 0.015625)"/>
      <use xlink:href="#DejaVuSans-5d" transform="translate(406.201172 0.015625)"/>
     </g>
    </g>
   </g>
   <g id="matplotlib.axis_4">
    <g id="ytick_10">
     <g id="line2d_55">
      <path d="M 74.185625 465.85142 
L 795.605625 465.85142 
" clip-path="url(#p51cc694104)" style="fill: none; stroke-dasharray: 2.96,1.28; stroke-dashoffset: 0; stroke: #b0b0b0; stroke-opacity: 0.7; stroke-width: 0.8"/>
     </g>
     <g id="line2d_56">
      <g>
       <use xlink:href="#m7149e2ba58" x="74.185625" y="465.85142" style="stroke: #000000; stroke-width: 0.8"/>
      </g>
     </g>
     <g id="text_24">
      <!-- 0.0000 -->
      <g transform="translate(32.195 469.650639) scale(0.1 -0.1)">
       <use xlink:href="#DejaVuSans-30"/>
       <use xlink:href="#DejaVuSans-2e" transform="translate(63.623047 0)"/>
       <use xlink:href="#DejaVuSans-30" transform="translate(95.410156 0)"/>
       <use xlink:href="#DejaVuSans-30" transform="translate(159.033203 0)"/>
       <use xlink:href="#DejaVuSans-30" transform="translate(222.65625 0)"/>
       <use xlink:href="#DejaVuSans-30" transform="translate(286.279297 0)"/>
      </g>
     </g>
    </g>
    <g id="ytick_11">
     <g id="line2d_57">
      <path d="M 74.185625 430.429245 
L 795.605625 430.429245 
" clip-path="url(#p51cc694104)" style="fill: none; stroke-dasharray: 2.96,1.28; stroke-dashoffset: 0; stroke: #b0b0b0; stroke-opacity: 0.7; stroke-width: 0.8"/>
     </g>
     <g id="line2d_58">
      <g>
       <use xlink:href="#m7149e2ba58" x="74.185625" y="430.429245" style="stroke: #000000; stroke-width: 0.8"/>
      </g>
     </g>
     <g id="text_25">
      <!-- 0.0002 -->
      <g transform="translate(32.195 434.228464) scale(0.1 -0.1)">
       <use xlink:href="#DejaVuSans-30"/>
       <use xlink:href="#DejaVuSans-2e" transform="translate(63.623047 0)"/>
       <use xlink:href="#DejaVuSans-30" transform="translate(95.410156 0)"/>
       <use xlink:href="#DejaVuSans-30" transform="translate(159.033203 0)"/>
       <use xlink:href="#DejaVuSans-30" transform="translate(222.65625 0)"/>
       <use xlink:href="#DejaVuSans-32" transform="translate(286.279297 0)"/>
      </g>
     </g>
    </g>
    <g id="ytick_12">
     <g id="line2d_59">
      <path d="M 74.185625 395.00707 
L 795.605625 395.00707 
" clip-path="url(#p51cc694104)" style="fill: none; stroke-dasharray: 2.96,1.28; stroke-dashoffset: 0; stroke: #b0b0b0; stroke-opacity: 0.7; stroke-width: 0.8"/>
     </g>
     <g id="line2d_60">
      <g>
       <use xlink:href="#m7149e2ba58" x="74.185625" y="395.00707" style="stroke: #000000; stroke-width: 0.8"/>
      </g>
     </g>
     <g id="text_26">
      <!-- 0.0004 -->
      <g transform="translate(32.195 398.806289) scale(0.1 -0.1)">
       <use xlink:href="#DejaVuSans-30"/>
       <use xlink:href="#DejaVuSans-2e" transform="translate(63.623047 0)"/>
       <use xlink:href="#DejaVuSans-30" transform="translate(95.410156 0)"/>
       <use xlink:href="#DejaVuSans-30" transform="translate(159.033203 0)"/>
       <use xlink:href="#DejaVuSans-30" transform="translate(222.65625 0)"/>
       <use xlink:href="#DejaVuSans-34" transform="translate(286.279297 0)"/>
      </g>
     </g>
    </g>
    <g id="ytick_13">
     <g id="line2d_61">
      <path d="M 74.185625 359.584895 
L 795.605625 359.584895 
" clip-path="url(#p51cc694104)" style="fill: none; stroke-dasharray: 2.96,1.28; stroke-dashoffset: 0; stroke: #b0b0b0; stroke-opacity: 0.7; stroke-width: 0.8"/>
     </g>
     <g id="line2d_62">
      <g>
       <use xlink:href="#m7149e2ba58" x="74.185625" y="359.584895" style="stroke: #000000; stroke-width: 0.8"/>
      </g>
     </g>
     <g id="text_27">
      <!-- 0.0006 -->
      <g transform="translate(32.195 363.384114) scale(0.1 -0.1)">
       <use xlink:href="#DejaVuSans-30"/>
       <use xlink:href="#DejaVuSans-2e" transform="translate(63.623047 0)"/>
       <use xlink:href="#DejaVuSans-30" transform="translate(95.410156 0)"/>
       <use xlink:href="#DejaVuSans-30" transform="translate(159.033203 0)"/>
       <use xlink:href="#DejaVuSans-30" transform="translate(222.65625 0)"/>
       <use xlink:href="#DejaVuSans-36" transform="translate(286.279297 0)"/>
      </g>
     </g>
    </g>
    <g id="ytick_14">
     <g id="line2d_63">
      <path d="M 74.185625 324.16272 
L 795.605625 324.16272 
" clip-path="url(#p51cc694104)" style="fill: none; stroke-dasharray: 2.96,1.28; stroke-dashoffset: 0; stroke: #b0b0b0; stroke-opacity: 0.7; stroke-width: 0.8"/>
     </g>
     <g id="line2d_64">
      <g>
       <use xlink:href="#m7149e2ba58" x="74.185625" y="324.16272" style="stroke: #000000; stroke-width: 0.8"/>
      </g>
     </g>
     <g id="text_28">
      <!-- 0.0008 -->
      <g transform="translate(32.195 327.961939) scale(0.1 -0.1)">
       <use xlink:href="#DejaVuSans-30"/>
       <use xlink:href="#DejaVuSans-2e" transform="translate(63.623047 0)"/>
       <use xlink:href="#DejaVuSans-30" transform="translate(95.410156 0)"/>
       <use xlink:href="#DejaVuSans-30" transform="translate(159.033203 0)"/>
       <use xlink:href="#DejaVuSans-30" transform="translate(222.65625 0)"/>
       <use xlink:href="#DejaVuSans-38" transform="translate(286.279297 0)"/>
      </g>
     </g>
    </g>
    <g id="ytick_15">
     <g id="line2d_65">
      <path d="M 74.185625 288.740545 
L 795.605625 288.740545 
" clip-path="url(#p51cc694104)" style="fill: none; stroke-dasharray: 2.96,1.28; stroke-dashoffset: 0; stroke: #b0b0b0; stroke-opacity: 0.7; stroke-width: 0.8"/>
     </g>
     <g id="line2d_66">
      <g>
       <use xlink:href="#m7149e2ba58" x="74.185625" y="288.740545" style="stroke: #000000; stroke-width: 0.8"/>
      </g>
     </g>
     <g id="text_29">
      <!-- 0.0010 -->
      <g transform="translate(32.195 292.539764) scale(0.1 -0.1)">
       <use xlink:href="#DejaVuSans-30"/>
       <use xlink:href="#DejaVuSans-2e" transform="translate(63.623047 0)"/>
       <use xlink:href="#DejaVuSans-30" transform="translate(95.410156 0)"/>
       <use xlink:href="#DejaVuSans-30" transform="translate(159.033203 0)"/>
       <use xlink:href="#DejaVuSans-31" transform="translate(222.65625 0)"/>
       <use xlink:href="#DejaVuSans-30" transform="translate(286.279297 0)"/>
      </g>
     </g>
    </g>
   </g>
   <g id="line2d_67">
    <path d="M 74.185625 465.85142 
L 148.491885 465.739887 
L 199.712705 465.456761 
L 233.619445 465.060569 
L 258.147725 464.563628 
L 276.904645 463.972483 
L 292.054465 463.279475 
L 304.318605 462.506201 
L 314.418485 461.666308 
L 323.796945 460.660999 
L 331.732565 459.584612 
L 338.946765 458.371719 
L 345.439545 457.036636 
L 351.210905 455.607204 
L 356.260845 454.126285 
L 360.589365 452.651475 
L 364.917885 450.952044 
L 369.246405 448.988283 
L 372.853505 447.11609 
L 376.460605 444.995778 
L 380.067705 442.590641 
L 382.953385 440.433407 
L 385.839065 438.04293 
L 388.724745 435.392545 
L 391.610425 432.45304 
L 394.496105 429.192705 
L 397.381785 425.57753 
L 400.267465 421.571626 
L 403.153145 417.137948 
L 406.038825 412.239422 
L 408.924505 406.840623 
L 411.810185 400.910125 
L 414.695865 394.423678 
L 417.581545 387.368352 
L 420.467225 379.74769 
L 424.074325 369.469402 
L 427.681425 358.46855 
L 432.731365 342.275469 
L 438.502725 323.794571 
L 441.388405 315.166111 
L 443.552665 309.210048 
L 445.716925 303.844876 
L 447.881185 299.20124 
L 449.324025 296.566255 
L 450.766865 294.33716 
L 452.209705 292.541106 
L 453.652545 291.200123 
L 455.095385 290.330469 
L 455.816805 290.075771 
L 456.538225 289.942149 
L 457.259645 289.92983 
L 457.981065 290.038623 
L 458.702485 290.267925 
L 460.145325 291.083607 
L 461.588165 292.364064 
L 463.031005 294.090539 
L 464.473845 296.238928 
L 465.916685 298.780507 
L 467.359525 301.68276 
L 469.523785 306.634364 
L 471.688045 312.190336 
L 474.573725 320.313112 
L 478.180825 331.196195 
L 488.280705 362.101166 
L 491.887805 372.293369 
L 495.494905 381.748247 
L 498.380585 388.734011 
L 501.266265 395.19466 
L 504.151945 401.137317 
L 507.037625 406.580453 
L 509.923305 411.549995 
L 512.808985 416.0763 
L 515.694665 420.191888 
L 518.580345 423.929812 
L 521.466025 427.322514 
L 524.351705 430.401078 
L 527.237385 433.194767 
L 530.123065 435.730774 
L 533.730165 438.576323 
L 537.337265 441.102292 
L 540.944365 443.347732 
L 544.551465 445.347005 
L 548.879985 447.463297 
L 553.208505 449.313113 
L 557.537025 450.934505 
L 562.586965 452.58016 
L 567.636905 454.001429 
L 573.408265 455.396026 
L 579.901045 456.722873 
L 587.115245 457.95316 
L 595.050865 459.069575 
L 603.707905 460.064572 
L 613.807785 460.998052 
L 625.350505 461.838008 
L 639.057485 462.604652 
L 655.650145 463.295069 
L 675.849905 463.897288 
L 701.099605 464.413192 
L 733.563505 464.842826 
L 778.291545 465.196426 
L 795.605625 465.289099 
L 795.605625 465.289099 
" clip-path="url(#p51cc694104)" style="fill: none; stroke: #008000; stroke-width: 2; stroke-linecap: square"/>
   </g>
   <g id="patch_9">
    <path d="M 74.185625 474.6475 
L 74.185625 281.13375 
" style="fill: none; stroke: #000000; stroke-width: 0.8; stroke-linejoin: miter; stroke-linecap: square"/>
   </g>
   <g id="patch_10">
    <path d="M 795.605625 474.6475 
L 795.605625 281.13375 
" style="fill: none; stroke: #000000; stroke-width: 0.8; stroke-linejoin: miter; stroke-linecap: square"/>
   </g>
   <g id="patch_11">
    <path d="M 74.185625 474.6475 
L 795.605625 474.6475 
" style="fill: none; stroke: #000000; stroke-width: 0.8; stroke-linejoin: miter; stroke-linecap: square"/>
   </g>
   <g id="patch_12">
    <path d="M 74.185625 281.13375 
L 795.605625 281.13375 
" style="fill: none; stroke: #000000; stroke-width: 0.8; stroke-linejoin: miter; stroke-linecap: square"/>
   </g>
   <g id="text_30">
    <!-- Residuals between Identified and True Models -->
    <g transform="translate(278.448438 275.13375) scale(0.12 -0.12)">
     <defs>
      <path id="DejaVuSans-Bold-52" d="M 2297 2597 
Q 2675 2597 2839 2737 
Q 3003 2878 3003 3200 
Q 3003 3519 2839 3656 
Q 2675 3794 2297 3794 
L 1791 3794 
L 1791 2597 
L 2297 2597 
z
M 1791 1766 
L 1791 0 
L 588 0 
L 588 4666 
L 2425 4666 
Q 3347 4666 3776 4356 
Q 4206 4047 4206 3378 
Q 4206 2916 3982 2619 
Q 3759 2322 3309 2181 
Q 3556 2125 3751 1926 
Q 3947 1728 4147 1325 
L 4800 0 
L 3519 0 
L 2950 1159 
Q 2778 1509 2601 1637 
Q 2425 1766 2131 1766 
L 1791 1766 
z
" transform="scale(0.015625)"/>
      <path id="DejaVuSans-Bold-73" d="M 3272 3391 
L 3272 2541 
Q 2913 2691 2578 2766 
Q 2244 2841 1947 2841 
Q 1628 2841 1473 2761 
Q 1319 2681 1319 2516 
Q 1319 2381 1436 2309 
Q 1553 2238 1856 2203 
L 2053 2175 
Q 2913 2066 3209 1816 
Q 3506 1566 3506 1031 
Q 3506 472 3093 190 
Q 2681 -91 1863 -91 
Q 1516 -91 1145 -36 
Q 775 19 384 128 
L 384 978 
Q 719 816 1070 734 
Q 1422 653 1784 653 
Q 2113 653 2278 743 
Q 2444 834 2444 1013 
Q 2444 1163 2330 1236 
Q 2216 1309 1875 1350 
L 1678 1375 
Q 931 1469 631 1722 
Q 331 1975 331 2491 
Q 331 3047 712 3315 
Q 1094 3584 1881 3584 
Q 2191 3584 2531 3537 
Q 2872 3491 3272 3391 
z
" transform="scale(0.015625)"/>
      <path id="DejaVuSans-Bold-75" d="M 500 1363 
L 500 3500 
L 1625 3500 
L 1625 3150 
Q 1625 2866 1622 2436 
Q 1619 2006 1619 1863 
Q 1619 1441 1641 1255 
Q 1663 1069 1716 984 
Q 1784 875 1895 815 
Q 2006 756 2150 756 
Q 2500 756 2700 1025 
Q 2900 1294 2900 1772 
L 2900 3500 
L 4019 3500 
L 4019 0 
L 2900 0 
L 2900 506 
Q 2647 200 2364 54 
Q 2081 -91 1741 -91 
Q 1134 -91 817 281 
Q 500 653 500 1363 
z
" transform="scale(0.015625)"/>
      <path id="DejaVuSans-Bold-61" d="M 2106 1575 
Q 1756 1575 1579 1456 
Q 1403 1338 1403 1106 
Q 1403 894 1545 773 
Q 1688 653 1941 653 
Q 2256 653 2472 879 
Q 2688 1106 2688 1447 
L 2688 1575 
L 2106 1575 
z
M 3816 1997 
L 3816 0 
L 2688 0 
L 2688 519 
Q 2463 200 2181 54 
Q 1900 -91 1497 -91 
Q 953 -91 614 226 
Q 275 544 275 1050 
Q 275 1666 698 1953 
Q 1122 2241 2028 2241 
L 2688 2241 
L 2688 2328 
Q 2688 2594 2478 2717 
Q 2269 2841 1825 2841 
Q 1466 2841 1156 2769 
Q 847 2697 581 2553 
L 581 3406 
Q 941 3494 1303 3539 
Q 1666 3584 2028 3584 
Q 2975 3584 3395 3211 
Q 3816 2838 3816 1997 
z
" transform="scale(0.015625)"/>
      <path id="DejaVuSans-Bold-62" d="M 2400 722 
Q 2759 722 2948 984 
Q 3138 1247 3138 1747 
Q 3138 2247 2948 2509 
Q 2759 2772 2400 2772 
Q 2041 2772 1848 2508 
Q 1656 2244 1656 1747 
Q 1656 1250 1848 986 
Q 2041 722 2400 722 
z
M 1656 2988 
Q 1888 3294 2169 3439 
Q 2450 3584 2816 3584 
Q 3463 3584 3878 3070 
Q 4294 2556 4294 1747 
Q 4294 938 3878 423 
Q 3463 -91 2816 -91 
Q 2450 -91 2169 54 
Q 1888 200 1656 506 
L 1656 0 
L 538 0 
L 538 4863 
L 1656 4863 
L 1656 2988 
z
" transform="scale(0.015625)"/>
      <path id="DejaVuSans-Bold-54" d="M 31 4666 
L 4331 4666 
L 4331 3756 
L 2784 3756 
L 2784 0 
L 1581 0 
L 1581 3756 
L 31 3756 
L 31 4666 
z
" transform="scale(0.015625)"/>
      <path id="DejaVuSans-Bold-72" d="M 3138 2547 
Q 2991 2616 2845 2648 
Q 2700 2681 2553 2681 
Q 2122 2681 1889 2404 
Q 1656 2128 1656 1613 
L 1656 0 
L 538 0 
L 538 3500 
L 1656 3500 
L 1656 2925 
Q 1872 3269 2151 3426 
Q 2431 3584 2822 3584 
Q 2878 3584 2943 3579 
Q 3009 3575 3134 3559 
L 3138 2547 
z
" transform="scale(0.015625)"/>
      <path id="DejaVuSans-Bold-4d" d="M 588 4666 
L 2119 4666 
L 3181 2169 
L 4250 4666 
L 5778 4666 
L 5778 0 
L 4641 0 
L 4641 3413 
L 3566 897 
L 2803 897 
L 1728 3413 
L 1728 0 
L 588 0 
L 588 4666 
z
" transform="scale(0.015625)"/>
     </defs>
     <use xlink:href="#DejaVuSans-Bold-52"/>
     <use xlink:href="#DejaVuSans-Bold-65" transform="translate(77.001953 0)"/>
     <use xlink:href="#DejaVuSans-Bold-73" transform="translate(144.824219 0)"/>
     <use xlink:href="#DejaVuSans-Bold-69" transform="translate(204.345703 0)"/>
     <use xlink:href="#DejaVuSans-Bold-64" transform="translate(238.623047 0)"/>
     <use xlink:href="#DejaVuSans-Bold-75" transform="translate(310.205078 0)"/>
     <use xlink:href="#DejaVuSans-Bold-61" transform="translate(381.396484 0)"/>
     <use xlink:href="#DejaVuSans-Bold-6c" transform="translate(448.876953 0)"/>
     <use xlink:href="#DejaVuSans-Bold-73" transform="translate(483.154297 0)"/>
     <use xlink:href="#DejaVuSans-Bold-20" transform="translate(542.675781 0)"/>
     <use xlink:href="#DejaVuSans-Bold-62" transform="translate(577.490234 0)"/>
     <use xlink:href="#DejaVuSans-Bold-65" transform="translate(649.072266 0)"/>
     <use xlink:href="#DejaVuSans-Bold-74" transform="translate(716.894531 0)"/>
     <use xlink:href="#DejaVuSans-Bold-77" transform="translate(764.697266 0)"/>
     <use xlink:href="#DejaVuSans-Bold-65" transform="translate(857.080078 0)"/>
     <use xlink:href="#DejaVuSans-Bold-65" transform="translate(924.902344 0)"/>
     <use xlink:href="#DejaVuSans-Bold-6e" transform="translate(992.724609 0)"/>
     <use xlink:href="#DejaVuSans-Bold-20" transform="translate(1063.916016 0)"/>
     <use xlink:href="#DejaVuSans-Bold-49" transform="translate(1098.730469 0)"/>
     <use xlink:href="#DejaVuSans-Bold-64" transform="translate(1135.9375 0)"/>
     <use xlink:href="#DejaVuSans-Bold-65" transform="translate(1207.519531 0)"/>
     <use xlink:href="#DejaVuSans-Bold-6e" transform="translate(1275.341797 0)"/>
     <use xlink:href="#DejaVuSans-Bold-74" transform="translate(1346.533203 0)"/>
     <use xlink:href="#DejaVuSans-Bold-69" transform="translate(1394.335938 0)"/>
     <use xlink:href="#DejaVuSans-Bold-66" transform="translate(1428.613281 0)"/>
     <use xlink:href="#DejaVuSans-Bold-69" transform="translate(1472.119141 0)"/>
     <use xlink:href="#DejaVuSans-Bold-65" transform="translate(1506.396484 0)"/>
     <use xlink:href="#DejaVuSans-Bold-64" transform="translate(1574.21875 0)"/>
     <use xlink:href="#DejaVuSans-Bold-20" transform="translate(1645.800781 0)"/>
     <use xlink:href="#DejaVuSans-Bold-61" transform="translate(1680.615234 0)"/>
     <use xlink:href="#DejaVuSans-Bold-6e" transform="translate(1748.095703 0)"/>
     <use xlink:href="#DejaVuSans-Bold-64" transform="translate(1819.287109 0)"/>
     <use xlink:href="#DejaVuSans-Bold-20" transform="translate(1890.869141 0)"/>
     <use xlink:href="#DejaVuSans-Bold-54" transform="translate(1925.683594 0)"/>
     <use xlink:href="#DejaVuSans-Bold-72" transform="translate(1982.896484 0)"/>
     <use xlink:href="#DejaVuSans-Bold-75" transform="translate(2032.212891 0)"/>
     <use xlink:href="#DejaVuSans-Bold-65" transform="translate(2103.404297 0)"/>
     <use xlink:href="#DejaVuSans-Bold-20" transform="translate(2171.226562 0)"/>
     <use xlink:href="#DejaVuSans-Bold-4d" transform="translate(2206.041016 0)"/>
     <use xlink:href="#DejaVuSans-Bold-6f" transform="translate(2305.552734 0)"/>
     <use xlink:href="#DejaVuSans-Bold-64" transform="translate(2374.253906 0)"/>
     <use xlink:href="#DejaVuSans-Bold-65" transform="translate(2445.835938 0)"/>
     <use xlink:href="#DejaVuSans-Bold-6c" transform="translate(2513.658203 0)"/>
     <use xlink:href="#DejaVuSans-Bold-73" transform="translate(2547.935547 0)"/>
    </g>
   </g>
  </g>
 </g>
 <defs>
  <clipPath id="pea5b37337e">
   <rect x="74.185625" y="54.62" width="721.42" height="193.51375"/>
  </clipPath>
  <clipPath id="p51cc694104">
   <rect x="74.185625" y="281.13375" width="721.42" height="193.51375"/>
  </clipPath>
 </defs>
</svg>
