<?xml version="1.0" encoding="utf-8" standalone="no"?>
<!DOCTYPE svg PUBLIC "-//W3C//DTD SVG 1.1//EN"
  "http://www.w3.org/Graphics/SVG/1.1/DTD/svg11.dtd">
<svg xmlns:xlink="http://www.w3.org/1999/xlink" width="718.805625pt" height="510.2475pt" viewBox="0 0 718.805625 510.2475" xmlns="http://www.w3.org/2000/svg" version="1.1">
 <metadata>
  <rdf:RDF xmlns:dc="http://purl.org/dc/elements/1.1/" xmlns:cc="http://creativecommons.org/ns#" xmlns:rdf="http://www.w3.org/1999/02/22-rdf-syntax-ns#">
   <cc:Work>
    <dc:type rdf:resource="http://purl.org/dc/dcmitype/StillImage"/>
    <dc:date>2025-03-24T16:11:39.179233</dc:date>
    <dc:format>image/svg+xml</dc:format>
    <dc:creator>
     <cc:Agent>
      <dc:title>Matplotlib v3.10.0, https://matplotlib.org/</dc:title>
     </cc:Agent>
    </dc:creator>
   </cc:Work>
  </rdf:RDF>
 </metadata>
 <defs>
  <style type="text/css">*{stroke-linejoin: round; stroke-linecap: butt}</style>
 </defs>
 <g id="figure_1">
  <g id="patch_1">
   <path d="M 0 510.2475 
L 718.805625 510.2475 
L 718.805625 0 
L 0 0 
z
" style="fill: #ffffff"/>
  </g>
  <g id="axes_1">
   <g id="patch_2">
    <path d="M 76.205625 447.22 
L 690.005625 447.22 
L 690.005625 59.14 
L 76.205625 59.14 
z
" style="fill: #ffffff"/>
   </g>
   <g id="PathCollection_1">
    <defs>
     <path id="C0_0_e049677bbf" d="M 0 3 
C 0.795609 3 1.55874 2.683901 2.12132 2.12132 
C 2.683901 1.55874 3 0.795609 3 -0 
C 3 -0.795609 2.683901 -1.55874 2.12132 -2.12132 
C 1.55874 -2.683901 0.795609 -3 0 -3 
C -0.795609 -3 -1.55874 -2.683901 -2.12132 -2.12132 
C -2.683901 -1.55874 -3 -0.795609 -3 0 
C -3 0.795609 -2.683901 1.55874 -2.12132 2.12132 
C -1.55874 2.683901 -0.795609 3 0 3 
z
"/>
    </defs>
    <g clip-path="url(#p7bffb38751)">
     <use xlink:href="#C0_0_e049677bbf" x="76.205625" y="368.736009" style="fill: none; stroke: #ff0000; stroke-width: 1.5"/>
    </g>
    <g clip-path="url(#p7bffb38751)">
     <use xlink:href="#C0_0_e049677bbf" x="82.343625" y="373.258319" style="fill: none; stroke: #ff0000; stroke-width: 1.5"/>
    </g>
    <g clip-path="url(#p7bffb38751)">
     <use xlink:href="#C0_0_e049677bbf" x="88.481625" y="365.041013" style="fill: none; stroke: #ff0000; stroke-width: 1.5"/>
    </g>
    <g clip-path="url(#p7bffb38751)">
     <use xlink:href="#C0_0_e049677bbf" x="94.619625" y="368.052964" style="fill: none; stroke: #ff0000; stroke-width: 1.5"/>
    </g>
    <g clip-path="url(#p7bffb38751)">
     <use xlink:href="#C0_0_e049677bbf" x="100.757625" y="369.315491" style="fill: none; stroke: #ff0000; stroke-width: 1.5"/>
    </g>
    <g clip-path="url(#p7bffb38751)">
     <use xlink:href="#C0_0_e049677bbf" x="106.895625" y="375.584464" style="fill: none; stroke: #ff0000; stroke-width: 1.5"/>
    </g>
    <g clip-path="url(#p7bffb38751)">
     <use xlink:href="#C0_0_e049677bbf" x="113.033625" y="400.459354" style="fill: none; stroke: #ff0000; stroke-width: 1.5"/>
    </g>
    <g clip-path="url(#p7bffb38751)">
     <use xlink:href="#C0_0_e049677bbf" x="119.171625" y="360.097683" style="fill: none; stroke: #ff0000; stroke-width: 1.5"/>
    </g>
    <g clip-path="url(#p7bffb38751)">
     <use xlink:href="#C0_0_e049677bbf" x="125.309625" y="349.715205" style="fill: none; stroke: #ff0000; stroke-width: 1.5"/>
    </g>
    <g clip-path="url(#p7bffb38751)">
     <use xlink:href="#C0_0_e049677bbf" x="131.447625" y="364.442645" style="fill: none; stroke: #ff0000; stroke-width: 1.5"/>
    </g>
    <g clip-path="url(#p7bffb38751)">
     <use xlink:href="#C0_0_e049677bbf" x="137.585625" y="346.217566" style="fill: none; stroke: #ff0000; stroke-width: 1.5"/>
    </g>
    <g clip-path="url(#p7bffb38751)">
     <use xlink:href="#C0_0_e049677bbf" x="143.723625" y="365.147767" style="fill: none; stroke: #ff0000; stroke-width: 1.5"/>
    </g>
    <g clip-path="url(#p7bffb38751)">
     <use xlink:href="#C0_0_e049677bbf" x="149.861625" y="370.172628" style="fill: none; stroke: #ff0000; stroke-width: 1.5"/>
    </g>
    <g clip-path="url(#p7bffb38751)">
     <use xlink:href="#C0_0_e049677bbf" x="155.999625" y="379.081913" style="fill: none; stroke: #ff0000; stroke-width: 1.5"/>
    </g>
    <g clip-path="url(#p7bffb38751)">
     <use xlink:href="#C0_0_e049677bbf" x="162.137625" y="354.087869" style="fill: none; stroke: #ff0000; stroke-width: 1.5"/>
    </g>
    <g clip-path="url(#p7bffb38751)">
     <use xlink:href="#C0_0_e049677bbf" x="168.275625" y="369.675098" style="fill: none; stroke: #ff0000; stroke-width: 1.5"/>
    </g>
    <g clip-path="url(#p7bffb38751)">
     <use xlink:href="#C0_0_e049677bbf" x="174.413625" y="343.516012" style="fill: none; stroke: #ff0000; stroke-width: 1.5"/>
    </g>
    <g clip-path="url(#p7bffb38751)">
     <use xlink:href="#C0_0_e049677bbf" x="180.551625" y="385.225549" style="fill: none; stroke: #ff0000; stroke-width: 1.5"/>
    </g>
    <g clip-path="url(#p7bffb38751)">
     <use xlink:href="#C0_0_e049677bbf" x="186.689625" y="361.153051" style="fill: none; stroke: #ff0000; stroke-width: 1.5"/>
    </g>
    <g clip-path="url(#p7bffb38751)">
     <use xlink:href="#C0_0_e049677bbf" x="192.827625" y="374.91531" style="fill: none; stroke: #ff0000; stroke-width: 1.5"/>
    </g>
    <g clip-path="url(#p7bffb38751)">
     <use xlink:href="#C0_0_e049677bbf" x="198.965625" y="364.704826" style="fill: none; stroke: #ff0000; stroke-width: 1.5"/>
    </g>
    <g clip-path="url(#p7bffb38751)">
     <use xlink:href="#C0_0_e049677bbf" x="205.103625" y="357.510145" style="fill: none; stroke: #ff0000; stroke-width: 1.5"/>
    </g>
    <g clip-path="url(#p7bffb38751)">
     <use xlink:href="#C0_0_e049677bbf" x="211.241625" y="349.705366" style="fill: none; stroke: #ff0000; stroke-width: 1.5"/>
    </g>
    <g clip-path="url(#p7bffb38751)">
     <use xlink:href="#C0_0_e049677bbf" x="217.379625" y="357.554646" style="fill: none; stroke: #ff0000; stroke-width: 1.5"/>
    </g>
    <g clip-path="url(#p7bffb38751)">
     <use xlink:href="#C0_0_e049677bbf" x="223.517625" y="345.077986" style="fill: none; stroke: #ff0000; stroke-width: 1.5"/>
    </g>
    <g clip-path="url(#p7bffb38751)">
     <use xlink:href="#C0_0_e049677bbf" x="229.655625" y="336.313" style="fill: none; stroke: #ff0000; stroke-width: 1.5"/>
    </g>
    <g clip-path="url(#p7bffb38751)">
     <use xlink:href="#C0_0_e049677bbf" x="235.793625" y="344.575906" style="fill: none; stroke: #ff0000; stroke-width: 1.5"/>
    </g>
    <g clip-path="url(#p7bffb38751)">
     <use xlink:href="#C0_0_e049677bbf" x="241.931625" y="367.186778" style="fill: none; stroke: #ff0000; stroke-width: 1.5"/>
    </g>
    <g clip-path="url(#p7bffb38751)">
     <use xlink:href="#C0_0_e049677bbf" x="248.069625" y="346.880076" style="fill: none; stroke: #ff0000; stroke-width: 1.5"/>
    </g>
    <g clip-path="url(#p7bffb38751)">
     <use xlink:href="#C0_0_e049677bbf" x="254.207625" y="349.046887" style="fill: none; stroke: #ff0000; stroke-width: 1.5"/>
    </g>
    <g clip-path="url(#p7bffb38751)">
     <use xlink:href="#C0_0_e049677bbf" x="260.345625" y="330.187934" style="fill: none; stroke: #ff0000; stroke-width: 1.5"/>
    </g>
    <g clip-path="url(#p7bffb38751)">
     <use xlink:href="#C0_0_e049677bbf" x="266.483625" y="317.601622" style="fill: none; stroke: #ff0000; stroke-width: 1.5"/>
    </g>
    <g clip-path="url(#p7bffb38751)">
     <use xlink:href="#C0_0_e049677bbf" x="272.621625" y="344.814939" style="fill: none; stroke: #ff0000; stroke-width: 1.5"/>
    </g>
    <g clip-path="url(#p7bffb38751)">
     <use xlink:href="#C0_0_e049677bbf" x="278.759625" y="338.400858" style="fill: none; stroke: #ff0000; stroke-width: 1.5"/>
    </g>
    <g clip-path="url(#p7bffb38751)">
     <use xlink:href="#C0_0_e049677bbf" x="284.897625" y="345.362204" style="fill: none; stroke: #ff0000; stroke-width: 1.5"/>
    </g>
    <g clip-path="url(#p7bffb38751)">
     <use xlink:href="#C0_0_e049677bbf" x="291.035625" y="346.578672" style="fill: none; stroke: #ff0000; stroke-width: 1.5"/>
    </g>
    <g clip-path="url(#p7bffb38751)">
     <use xlink:href="#C0_0_e049677bbf" x="297.173625" y="299.405257" style="fill: none; stroke: #ff0000; stroke-width: 1.5"/>
    </g>
    <g clip-path="url(#p7bffb38751)">
     <use xlink:href="#C0_0_e049677bbf" x="303.311625" y="279.945853" style="fill: none; stroke: #ff0000; stroke-width: 1.5"/>
    </g>
    <g clip-path="url(#p7bffb38751)">
     <use xlink:href="#C0_0_e049677bbf" x="309.449625" y="299.039139" style="fill: none; stroke: #ff0000; stroke-width: 1.5"/>
    </g>
    <g clip-path="url(#p7bffb38751)">
     <use xlink:href="#C0_0_e049677bbf" x="315.587625" y="314.345486" style="fill: none; stroke: #ff0000; stroke-width: 1.5"/>
    </g>
    <g clip-path="url(#p7bffb38751)">
     <use xlink:href="#C0_0_e049677bbf" x="321.725625" y="249.275284" style="fill: none; stroke: #ff0000; stroke-width: 1.5"/>
    </g>
    <g clip-path="url(#p7bffb38751)">
     <use xlink:href="#C0_0_e049677bbf" x="327.863625" y="241.604419" style="fill: none; stroke: #ff0000; stroke-width: 1.5"/>
    </g>
    <g clip-path="url(#p7bffb38751)">
     <use xlink:href="#C0_0_e049677bbf" x="334.001625" y="246.956868" style="fill: none; stroke: #ff0000; stroke-width: 1.5"/>
    </g>
    <g clip-path="url(#p7bffb38751)">
     <use xlink:href="#C0_0_e049677bbf" x="340.139625" y="268.869219" style="fill: none; stroke: #ff0000; stroke-width: 1.5"/>
    </g>
    <g clip-path="url(#p7bffb38751)">
     <use xlink:href="#C0_0_e049677bbf" x="346.277625" y="284.234992" style="fill: none; stroke: #ff0000; stroke-width: 1.5"/>
    </g>
    <g clip-path="url(#p7bffb38751)">
     <use xlink:href="#C0_0_e049677bbf" x="352.415625" y="257.597691" style="fill: none; stroke: #ff0000; stroke-width: 1.5"/>
    </g>
    <g clip-path="url(#p7bffb38751)">
     <use xlink:href="#C0_0_e049677bbf" x="358.553625" y="237.251208" style="fill: none; stroke: #ff0000; stroke-width: 1.5"/>
    </g>
    <g clip-path="url(#p7bffb38751)">
     <use xlink:href="#C0_0_e049677bbf" x="364.691625" y="239.658085" style="fill: none; stroke: #ff0000; stroke-width: 1.5"/>
    </g>
    <g clip-path="url(#p7bffb38751)">
     <use xlink:href="#C0_0_e049677bbf" x="370.829625" y="190.393266" style="fill: none; stroke: #ff0000; stroke-width: 1.5"/>
    </g>
    <g clip-path="url(#p7bffb38751)">
     <use xlink:href="#C0_0_e049677bbf" x="376.967625" y="102.283509" style="fill: none; stroke: #ff0000; stroke-width: 1.5"/>
    </g>
    <g clip-path="url(#p7bffb38751)">
     <use xlink:href="#C0_0_e049677bbf" x="383.105625" y="156.901985" style="fill: none; stroke: #ff0000; stroke-width: 1.5"/>
    </g>
    <g clip-path="url(#p7bffb38751)">
     <use xlink:href="#C0_0_e049677bbf" x="389.243625" y="91.467138" style="fill: none; stroke: #ff0000; stroke-width: 1.5"/>
    </g>
    <g clip-path="url(#p7bffb38751)">
     <use xlink:href="#C0_0_e049677bbf" x="395.381625" y="155.530832" style="fill: none; stroke: #ff0000; stroke-width: 1.5"/>
    </g>
    <g clip-path="url(#p7bffb38751)">
     <use xlink:href="#C0_0_e049677bbf" x="401.519625" y="190.635275" style="fill: none; stroke: #ff0000; stroke-width: 1.5"/>
    </g>
    <g clip-path="url(#p7bffb38751)">
     <use xlink:href="#C0_0_e049677bbf" x="407.657625" y="91.628925" style="fill: none; stroke: #ff0000; stroke-width: 1.5"/>
    </g>
    <g clip-path="url(#p7bffb38751)">
     <use xlink:href="#C0_0_e049677bbf" x="413.795625" y="120.716301" style="fill: none; stroke: #ff0000; stroke-width: 1.5"/>
    </g>
    <g clip-path="url(#p7bffb38751)">
     <use xlink:href="#C0_0_e049677bbf" x="419.933625" y="204.208144" style="fill: none; stroke: #ff0000; stroke-width: 1.5"/>
    </g>
    <g clip-path="url(#p7bffb38751)">
     <use xlink:href="#C0_0_e049677bbf" x="426.071625" y="165.859464" style="fill: none; stroke: #ff0000; stroke-width: 1.5"/>
    </g>
    <g clip-path="url(#p7bffb38751)">
     <use xlink:href="#C0_0_e049677bbf" x="432.209625" y="236.381801" style="fill: none; stroke: #ff0000; stroke-width: 1.5"/>
    </g>
    <g clip-path="url(#p7bffb38751)">
     <use xlink:href="#C0_0_e049677bbf" x="438.347625" y="239.036422" style="fill: none; stroke: #ff0000; stroke-width: 1.5"/>
    </g>
    <g clip-path="url(#p7bffb38751)">
     <use xlink:href="#C0_0_e049677bbf" x="444.485625" y="209.42515" style="fill: none; stroke: #ff0000; stroke-width: 1.5"/>
    </g>
    <g clip-path="url(#p7bffb38751)">
     <use xlink:href="#C0_0_e049677bbf" x="450.623625" y="304.847132" style="fill: none; stroke: #ff0000; stroke-width: 1.5"/>
    </g>
    <g clip-path="url(#p7bffb38751)">
     <use xlink:href="#C0_0_e049677bbf" x="456.761625" y="293.386697" style="fill: none; stroke: #ff0000; stroke-width: 1.5"/>
    </g>
    <g clip-path="url(#p7bffb38751)">
     <use xlink:href="#C0_0_e049677bbf" x="462.899625" y="310.585096" style="fill: none; stroke: #ff0000; stroke-width: 1.5"/>
    </g>
    <g clip-path="url(#p7bffb38751)">
     <use xlink:href="#C0_0_e049677bbf" x="469.037625" y="308.407269" style="fill: none; stroke: #ff0000; stroke-width: 1.5"/>
    </g>
    <g clip-path="url(#p7bffb38751)">
     <use xlink:href="#C0_0_e049677bbf" x="475.175625" y="294.21426" style="fill: none; stroke: #ff0000; stroke-width: 1.5"/>
    </g>
    <g clip-path="url(#p7bffb38751)">
     <use xlink:href="#C0_0_e049677bbf" x="481.313625" y="291.505251" style="fill: none; stroke: #ff0000; stroke-width: 1.5"/>
    </g>
    <g clip-path="url(#p7bffb38751)">
     <use xlink:href="#C0_0_e049677bbf" x="487.451625" y="332.527628" style="fill: none; stroke: #ff0000; stroke-width: 1.5"/>
    </g>
    <g clip-path="url(#p7bffb38751)">
     <use xlink:href="#C0_0_e049677bbf" x="493.589625" y="336.623703" style="fill: none; stroke: #ff0000; stroke-width: 1.5"/>
    </g>
    <g clip-path="url(#p7bffb38751)">
     <use xlink:href="#C0_0_e049677bbf" x="499.727625" y="347.34953" style="fill: none; stroke: #ff0000; stroke-width: 1.5"/>
    </g>
    <g clip-path="url(#p7bffb38751)">
     <use xlink:href="#C0_0_e049677bbf" x="505.865625" y="354.660696" style="fill: none; stroke: #ff0000; stroke-width: 1.5"/>
    </g>
    <g clip-path="url(#p7bffb38751)">
     <use xlink:href="#C0_0_e049677bbf" x="512.003625" y="350.443929" style="fill: none; stroke: #ff0000; stroke-width: 1.5"/>
    </g>
    <g clip-path="url(#p7bffb38751)">
     <use xlink:href="#C0_0_e049677bbf" x="518.141625" y="362.512722" style="fill: none; stroke: #ff0000; stroke-width: 1.5"/>
    </g>
    <g clip-path="url(#p7bffb38751)">
     <use xlink:href="#C0_0_e049677bbf" x="524.279625" y="392.465198" style="fill: none; stroke: #ff0000; stroke-width: 1.5"/>
    </g>
    <g clip-path="url(#p7bffb38751)">
     <use xlink:href="#C0_0_e049677bbf" x="530.417625" y="372.472479" style="fill: none; stroke: #ff0000; stroke-width: 1.5"/>
    </g>
    <g clip-path="url(#p7bffb38751)">
     <use xlink:href="#C0_0_e049677bbf" x="536.555625" y="387.505646" style="fill: none; stroke: #ff0000; stroke-width: 1.5"/>
    </g>
    <g clip-path="url(#p7bffb38751)">
     <use xlink:href="#C0_0_e049677bbf" x="542.693625" y="388.966452" style="fill: none; stroke: #ff0000; stroke-width: 1.5"/>
    </g>
    <g clip-path="url(#p7bffb38751)">
     <use xlink:href="#C0_0_e049677bbf" x="548.831625" y="392.075424" style="fill: none; stroke: #ff0000; stroke-width: 1.5"/>
    </g>
    <g clip-path="url(#p7bffb38751)">
     <use xlink:href="#C0_0_e049677bbf" x="554.969625" y="381.919512" style="fill: none; stroke: #ff0000; stroke-width: 1.5"/>
    </g>
    <g clip-path="url(#p7bffb38751)">
     <use xlink:href="#C0_0_e049677bbf" x="561.107625" y="373.197335" style="fill: none; stroke: #ff0000; stroke-width: 1.5"/>
    </g>
    <g clip-path="url(#p7bffb38751)">
     <use xlink:href="#C0_0_e049677bbf" x="567.245625" y="401.479903" style="fill: none; stroke: #ff0000; stroke-width: 1.5"/>
    </g>
    <g clip-path="url(#p7bffb38751)">
     <use xlink:href="#C0_0_e049677bbf" x="573.383625" y="394.230964" style="fill: none; stroke: #ff0000; stroke-width: 1.5"/>
    </g>
    <g clip-path="url(#p7bffb38751)">
     <use xlink:href="#C0_0_e049677bbf" x="579.521625" y="383.756871" style="fill: none; stroke: #ff0000; stroke-width: 1.5"/>
    </g>
    <g clip-path="url(#p7bffb38751)">
     <use xlink:href="#C0_0_e049677bbf" x="585.659625" y="395.388946" style="fill: none; stroke: #ff0000; stroke-width: 1.5"/>
    </g>
    <g clip-path="url(#p7bffb38751)">
     <use xlink:href="#C0_0_e049677bbf" x="591.797625" y="407.254619" style="fill: none; stroke: #ff0000; stroke-width: 1.5"/>
    </g>
    <g clip-path="url(#p7bffb38751)">
     <use xlink:href="#C0_0_e049677bbf" x="597.935625" y="392.363823" style="fill: none; stroke: #ff0000; stroke-width: 1.5"/>
    </g>
    <g clip-path="url(#p7bffb38751)">
     <use xlink:href="#C0_0_e049677bbf" x="604.073625" y="411.055823" style="fill: none; stroke: #ff0000; stroke-width: 1.5"/>
    </g>
    <g clip-path="url(#p7bffb38751)">
     <use xlink:href="#C0_0_e049677bbf" x="610.211625" y="407.760688" style="fill: none; stroke: #ff0000; stroke-width: 1.5"/>
    </g>
    <g clip-path="url(#p7bffb38751)">
     <use xlink:href="#C0_0_e049677bbf" x="616.349625" y="414.675148" style="fill: none; stroke: #ff0000; stroke-width: 1.5"/>
    </g>
    <g clip-path="url(#p7bffb38751)">
     <use xlink:href="#C0_0_e049677bbf" x="622.487625" y="407.692159" style="fill: none; stroke: #ff0000; stroke-width: 1.5"/>
    </g>
    <g clip-path="url(#p7bffb38751)">
     <use xlink:href="#C0_0_e049677bbf" x="628.625625" y="409.943596" style="fill: none; stroke: #ff0000; stroke-width: 1.5"/>
    </g>
    <g clip-path="url(#p7bffb38751)">
     <use xlink:href="#C0_0_e049677bbf" x="634.763625" y="405.765808" style="fill: none; stroke: #ff0000; stroke-width: 1.5"/>
    </g>
    <g clip-path="url(#p7bffb38751)">
     <use xlink:href="#C0_0_e049677bbf" x="640.901625" y="418.450455" style="fill: none; stroke: #ff0000; stroke-width: 1.5"/>
    </g>
    <g clip-path="url(#p7bffb38751)">
     <use xlink:href="#C0_0_e049677bbf" x="647.039625" y="411.514452" style="fill: none; stroke: #ff0000; stroke-width: 1.5"/>
    </g>
    <g clip-path="url(#p7bffb38751)">
     <use xlink:href="#C0_0_e049677bbf" x="653.177625" y="409.866956" style="fill: none; stroke: #ff0000; stroke-width: 1.5"/>
    </g>
    <g clip-path="url(#p7bffb38751)">
     <use xlink:href="#C0_0_e049677bbf" x="659.315625" y="421.280689" style="fill: none; stroke: #ff0000; stroke-width: 1.5"/>
    </g>
    <g clip-path="url(#p7bffb38751)">
     <use xlink:href="#C0_0_e049677bbf" x="665.453625" y="415.596341" style="fill: none; stroke: #ff0000; stroke-width: 1.5"/>
    </g>
    <g clip-path="url(#p7bffb38751)">
     <use xlink:href="#C0_0_e049677bbf" x="671.591625" y="419.40487" style="fill: none; stroke: #ff0000; stroke-width: 1.5"/>
    </g>
    <g clip-path="url(#p7bffb38751)">
     <use xlink:href="#C0_0_e049677bbf" x="677.729625" y="410.523717" style="fill: none; stroke: #ff0000; stroke-width: 1.5"/>
    </g>
    <g clip-path="url(#p7bffb38751)">
     <use xlink:href="#C0_0_e049677bbf" x="683.867625" y="410.527019" style="fill: none; stroke: #ff0000; stroke-width: 1.5"/>
    </g>
    <g clip-path="url(#p7bffb38751)">
     <use xlink:href="#C0_0_e049677bbf" x="690.005625" y="425.521471" style="fill: none; stroke: #ff0000; stroke-width: 1.5"/>
    </g>
   </g>
   <g id="matplotlib.axis_1">
    <g id="xtick_1">
     <g id="line2d_1">
      <path d="M 76.205625 447.22 
L 76.205625 59.14 
" clip-path="url(#p7bffb38751)" style="fill: none; stroke-dasharray: 2.96,1.28; stroke-dashoffset: 0; stroke: #b0b0b0; stroke-opacity: 0.7; stroke-width: 0.8"/>
     </g>
     <g id="line2d_2">
      <defs>
       <path id="m06768cef2f" d="M 0 0 
L 0 3.5 
" style="stroke: #000000; stroke-width: 0.8"/>
      </defs>
      <g>
       <use xlink:href="#m06768cef2f" x="76.205625" y="447.22" style="stroke: #000000; stroke-width: 0.8"/>
      </g>
     </g>
     <g id="text_1">
      <!-- 0 -->
      <g transform="translate(73.024375 461.818438) scale(0.1 -0.1)">
       <defs>
        <path id="DejaVuSans-30" d="M 2034 4250 
Q 1547 4250 1301 3770 
Q 1056 3291 1056 2328 
Q 1056 1369 1301 889 
Q 1547 409 2034 409 
Q 2525 409 2770 889 
Q 3016 1369 3016 2328 
Q 3016 3291 2770 3770 
Q 2525 4250 2034 4250 
z
M 2034 4750 
Q 2819 4750 3233 4129 
Q 3647 3509 3647 2328 
Q 3647 1150 3233 529 
Q 2819 -91 2034 -91 
Q 1250 -91 836 529 
Q 422 1150 422 2328 
Q 422 3509 836 4129 
Q 1250 4750 2034 4750 
z
" transform="scale(0.015625)"/>
       </defs>
       <use xlink:href="#DejaVuSans-30"/>
      </g>
     </g>
    </g>
    <g id="xtick_2">
     <g id="line2d_3">
      <path d="M 158.045625 447.22 
L 158.045625 59.14 
" clip-path="url(#p7bffb38751)" style="fill: none; stroke-dasharray: 2.96,1.28; stroke-dashoffset: 0; stroke: #b0b0b0; stroke-opacity: 0.7; stroke-width: 0.8"/>
     </g>
     <g id="line2d_4">
      <g>
       <use xlink:href="#m06768cef2f" x="158.045625" y="447.22" style="stroke: #000000; stroke-width: 0.8"/>
      </g>
     </g>
     <g id="text_2">
      <!-- 2 -->
      <g transform="translate(154.864375 461.818438) scale(0.1 -0.1)">
       <defs>
        <path id="DejaVuSans-32" d="M 1228 531 
L 3431 531 
L 3431 0 
L 469 0 
L 469 531 
Q 828 903 1448 1529 
Q 2069 2156 2228 2338 
Q 2531 2678 2651 2914 
Q 2772 3150 2772 3378 
Q 2772 3750 2511 3984 
Q 2250 4219 1831 4219 
Q 1534 4219 1204 4116 
Q 875 4013 500 3803 
L 500 4441 
Q 881 4594 1212 4672 
Q 1544 4750 1819 4750 
Q 2544 4750 2975 4387 
Q 3406 4025 3406 3419 
Q 3406 3131 3298 2873 
Q 3191 2616 2906 2266 
Q 2828 2175 2409 1742 
Q 1991 1309 1228 531 
z
" transform="scale(0.015625)"/>
       </defs>
       <use xlink:href="#DejaVuSans-32"/>
      </g>
     </g>
    </g>
    <g id="xtick_3">
     <g id="line2d_5">
      <path d="M 239.885625 447.22 
L 239.885625 59.14 
" clip-path="url(#p7bffb38751)" style="fill: none; stroke-dasharray: 2.96,1.28; stroke-dashoffset: 0; stroke: #b0b0b0; stroke-opacity: 0.7; stroke-width: 0.8"/>
     </g>
     <g id="line2d_6">
      <g>
       <use xlink:href="#m06768cef2f" x="239.885625" y="447.22" style="stroke: #000000; stroke-width: 0.8"/>
      </g>
     </g>
     <g id="text_3">
      <!-- 4 -->
      <g transform="translate(236.704375 461.818438) scale(0.1 -0.1)">
       <defs>
        <path id="DejaVuSans-34" d="M 2419 4116 
L 825 1625 
L 2419 1625 
L 2419 4116 
z
M 2253 4666 
L 3047 4666 
L 3047 1625 
L 3713 1625 
L 3713 1100 
L 3047 1100 
L 3047 0 
L 2419 0 
L 2419 1100 
L 313 1100 
L 313 1709 
L 2253 4666 
z
" transform="scale(0.015625)"/>
       </defs>
       <use xlink:href="#DejaVuSans-34"/>
      </g>
     </g>
    </g>
    <g id="xtick_4">
     <g id="line2d_7">
      <path d="M 321.725625 447.22 
L 321.725625 59.14 
" clip-path="url(#p7bffb38751)" style="fill: none; stroke-dasharray: 2.96,1.28; stroke-dashoffset: 0; stroke: #b0b0b0; stroke-opacity: 0.7; stroke-width: 0.8"/>
     </g>
     <g id="line2d_8">
      <g>
       <use xlink:href="#m06768cef2f" x="321.725625" y="447.22" style="stroke: #000000; stroke-width: 0.8"/>
      </g>
     </g>
     <g id="text_4">
      <!-- 6 -->
      <g transform="translate(318.544375 461.818438) scale(0.1 -0.1)">
       <defs>
        <path id="DejaVuSans-36" d="M 2113 2584 
Q 1688 2584 1439 2293 
Q 1191 2003 1191 1497 
Q 1191 994 1439 701 
Q 1688 409 2113 409 
Q 2538 409 2786 701 
Q 3034 994 3034 1497 
Q 3034 2003 2786 2293 
Q 2538 2584 2113 2584 
z
M 3366 4563 
L 3366 3988 
Q 3128 4100 2886 4159 
Q 2644 4219 2406 4219 
Q 1781 4219 1451 3797 
Q 1122 3375 1075 2522 
Q 1259 2794 1537 2939 
Q 1816 3084 2150 3084 
Q 2853 3084 3261 2657 
Q 3669 2231 3669 1497 
Q 3669 778 3244 343 
Q 2819 -91 2113 -91 
Q 1303 -91 875 529 
Q 447 1150 447 2328 
Q 447 3434 972 4092 
Q 1497 4750 2381 4750 
Q 2619 4750 2861 4703 
Q 3103 4656 3366 4563 
z
" transform="scale(0.015625)"/>
       </defs>
       <use xlink:href="#DejaVuSans-36"/>
      </g>
     </g>
    </g>
    <g id="xtick_5">
     <g id="line2d_9">
      <path d="M 403.565625 447.22 
L 403.565625 59.14 
" clip-path="url(#p7bffb38751)" style="fill: none; stroke-dasharray: 2.96,1.28; stroke-dashoffset: 0; stroke: #b0b0b0; stroke-opacity: 0.7; stroke-width: 0.8"/>
     </g>
     <g id="line2d_10">
      <g>
       <use xlink:href="#m06768cef2f" x="403.565625" y="447.22" style="stroke: #000000; stroke-width: 0.8"/>
      </g>
     </g>
     <g id="text_5">
      <!-- 8 -->
      <g transform="translate(400.384375 461.818438) scale(0.1 -0.1)">
       <defs>
        <path id="DejaVuSans-38" d="M 2034 2216 
Q 1584 2216 1326 1975 
Q 1069 1734 1069 1313 
Q 1069 891 1326 650 
Q 1584 409 2034 409 
Q 2484 409 2743 651 
Q 3003 894 3003 1313 
Q 3003 1734 2745 1975 
Q 2488 2216 2034 2216 
z
M 1403 2484 
Q 997 2584 770 2862 
Q 544 3141 544 3541 
Q 544 4100 942 4425 
Q 1341 4750 2034 4750 
Q 2731 4750 3128 4425 
Q 3525 4100 3525 3541 
Q 3525 3141 3298 2862 
Q 3072 2584 2669 2484 
Q 3125 2378 3379 2068 
Q 3634 1759 3634 1313 
Q 3634 634 3220 271 
Q 2806 -91 2034 -91 
Q 1263 -91 848 271 
Q 434 634 434 1313 
Q 434 1759 690 2068 
Q 947 2378 1403 2484 
z
M 1172 3481 
Q 1172 3119 1398 2916 
Q 1625 2713 2034 2713 
Q 2441 2713 2670 2916 
Q 2900 3119 2900 3481 
Q 2900 3844 2670 4047 
Q 2441 4250 2034 4250 
Q 1625 4250 1398 4047 
Q 1172 3844 1172 3481 
z
" transform="scale(0.015625)"/>
       </defs>
       <use xlink:href="#DejaVuSans-38"/>
      </g>
     </g>
    </g>
    <g id="xtick_6">
     <g id="line2d_11">
      <path d="M 485.405625 447.22 
L 485.405625 59.14 
" clip-path="url(#p7bffb38751)" style="fill: none; stroke-dasharray: 2.96,1.28; stroke-dashoffset: 0; stroke: #b0b0b0; stroke-opacity: 0.7; stroke-width: 0.8"/>
     </g>
     <g id="line2d_12">
      <g>
       <use xlink:href="#m06768cef2f" x="485.405625" y="447.22" style="stroke: #000000; stroke-width: 0.8"/>
      </g>
     </g>
     <g id="text_6">
      <!-- 10 -->
      <g transform="translate(479.043125 461.818438) scale(0.1 -0.1)">
       <defs>
        <path id="DejaVuSans-31" d="M 794 531 
L 1825 531 
L 1825 4091 
L 703 3866 
L 703 4441 
L 1819 4666 
L 2450 4666 
L 2450 531 
L 3481 531 
L 3481 0 
L 794 0 
L 794 531 
z
" transform="scale(0.015625)"/>
       </defs>
       <use xlink:href="#DejaVuSans-31"/>
       <use xlink:href="#DejaVuSans-30" transform="translate(63.623047 0)"/>
      </g>
     </g>
    </g>
    <g id="xtick_7">
     <g id="line2d_13">
      <path d="M 567.245625 447.22 
L 567.245625 59.14 
" clip-path="url(#p7bffb38751)" style="fill: none; stroke-dasharray: 2.96,1.28; stroke-dashoffset: 0; stroke: #b0b0b0; stroke-opacity: 0.7; stroke-width: 0.8"/>
     </g>
     <g id="line2d_14">
      <g>
       <use xlink:href="#m06768cef2f" x="567.245625" y="447.22" style="stroke: #000000; stroke-width: 0.8"/>
      </g>
     </g>
     <g id="text_7">
      <!-- 12 -->
      <g transform="translate(560.883125 461.818438) scale(0.1 -0.1)">
       <use xlink:href="#DejaVuSans-31"/>
       <use xlink:href="#DejaVuSans-32" transform="translate(63.623047 0)"/>
      </g>
     </g>
    </g>
    <g id="xtick_8">
     <g id="line2d_15">
      <path d="M 649.085625 447.22 
L 649.085625 59.14 
" clip-path="url(#p7bffb38751)" style="fill: none; stroke-dasharray: 2.96,1.28; stroke-dashoffset: 0; stroke: #b0b0b0; stroke-opacity: 0.7; stroke-width: 0.8"/>
     </g>
     <g id="line2d_16">
      <g>
       <use xlink:href="#m06768cef2f" x="649.085625" y="447.22" style="stroke: #000000; stroke-width: 0.8"/>
      </g>
     </g>
     <g id="text_8">
      <!-- 14 -->
      <g transform="translate(642.723125 461.818438) scale(0.1 -0.1)">
       <use xlink:href="#DejaVuSans-31"/>
       <use xlink:href="#DejaVuSans-34" transform="translate(63.623047 0)"/>
      </g>
     </g>
    </g>
    <g id="text_9">
     <!-- $\omega$ [rad/s] -->
     <g transform="translate(351.885625 478.535937) scale(0.14 -0.14)">
      <defs>
       <path id="DejaVuSans-Oblique-3c9" d="M 1369 -91 
Q 72 -91 434 1766 
Q 575 2500 1256 3500 
L 1875 3500 
Q 1231 2500 1088 1750 
Q 819 397 1519 397 
Q 2166 397 2478 2078 
L 3009 2078 
Q 2669 388 3316 397 
Q 4013 403 4275 1750 
Q 4419 2500 4169 3500 
L 4788 3500 
Q 5075 2500 4934 1766 
Q 4578 -94 3278 -91 
Q 2428 -88 2503 844 
Q 2194 -91 1369 -91 
z
" transform="scale(0.015625)"/>
       <path id="DejaVuSans-20" transform="scale(0.015625)"/>
       <path id="DejaVuSans-5b" d="M 550 4863 
L 1875 4863 
L 1875 4416 
L 1125 4416 
L 1125 -397 
L 1875 -397 
L 1875 -844 
L 550 -844 
L 550 4863 
z
" transform="scale(0.015625)"/>
       <path id="DejaVuSans-72" d="M 2631 2963 
Q 2534 3019 2420 3045 
Q 2306 3072 2169 3072 
Q 1681 3072 1420 2755 
Q 1159 2438 1159 1844 
L 1159 0 
L 581 0 
L 581 3500 
L 1159 3500 
L 1159 2956 
Q 1341 3275 1631 3429 
Q 1922 3584 2338 3584 
Q 2397 3584 2469 3576 
Q 2541 3569 2628 3553 
L 2631 2963 
z
" transform="scale(0.015625)"/>
       <path id="DejaVuSans-61" d="M 2194 1759 
Q 1497 1759 1228 1600 
Q 959 1441 959 1056 
Q 959 750 1161 570 
Q 1363 391 1709 391 
Q 2188 391 2477 730 
Q 2766 1069 2766 1631 
L 2766 1759 
L 2194 1759 
z
M 3341 1997 
L 3341 0 
L 2766 0 
L 2766 531 
Q 2569 213 2275 61 
Q 1981 -91 1556 -91 
Q 1019 -91 701 211 
Q 384 513 384 1019 
Q 384 1609 779 1909 
Q 1175 2209 1959 2209 
L 2766 2209 
L 2766 2266 
Q 2766 2663 2505 2880 
Q 2244 3097 1772 3097 
Q 1472 3097 1187 3025 
Q 903 2953 641 2809 
L 641 3341 
Q 956 3463 1253 3523 
Q 1550 3584 1831 3584 
Q 2591 3584 2966 3190 
Q 3341 2797 3341 1997 
z
" transform="scale(0.015625)"/>
       <path id="DejaVuSans-64" d="M 2906 2969 
L 2906 4863 
L 3481 4863 
L 3481 0 
L 2906 0 
L 2906 525 
Q 2725 213 2448 61 
Q 2172 -91 1784 -91 
Q 1150 -91 751 415 
Q 353 922 353 1747 
Q 353 2572 751 3078 
Q 1150 3584 1784 3584 
Q 2172 3584 2448 3432 
Q 2725 3281 2906 2969 
z
M 947 1747 
Q 947 1113 1208 752 
Q 1469 391 1925 391 
Q 2381 391 2643 752 
Q 2906 1113 2906 1747 
Q 2906 2381 2643 2742 
Q 2381 3103 1925 3103 
Q 1469 3103 1208 2742 
Q 947 2381 947 1747 
z
" transform="scale(0.015625)"/>
       <path id="DejaVuSans-2f" d="M 1625 4666 
L 2156 4666 
L 531 -594 
L 0 -594 
L 1625 4666 
z
" transform="scale(0.015625)"/>
       <path id="DejaVuSans-73" d="M 2834 3397 
L 2834 2853 
Q 2591 2978 2328 3040 
Q 2066 3103 1784 3103 
Q 1356 3103 1142 2972 
Q 928 2841 928 2578 
Q 928 2378 1081 2264 
Q 1234 2150 1697 2047 
L 1894 2003 
Q 2506 1872 2764 1633 
Q 3022 1394 3022 966 
Q 3022 478 2636 193 
Q 2250 -91 1575 -91 
Q 1294 -91 989 -36 
Q 684 19 347 128 
L 347 722 
Q 666 556 975 473 
Q 1284 391 1588 391 
Q 1994 391 2212 530 
Q 2431 669 2431 922 
Q 2431 1156 2273 1281 
Q 2116 1406 1581 1522 
L 1381 1569 
Q 847 1681 609 1914 
Q 372 2147 372 2553 
Q 372 3047 722 3315 
Q 1072 3584 1716 3584 
Q 2034 3584 2315 3537 
Q 2597 3491 2834 3397 
z
" transform="scale(0.015625)"/>
       <path id="DejaVuSans-5d" d="M 1947 4863 
L 1947 -844 
L 622 -844 
L 622 -397 
L 1369 -397 
L 1369 4416 
L 622 4416 
L 622 4863 
L 1947 4863 
z
" transform="scale(0.015625)"/>
      </defs>
      <use xlink:href="#DejaVuSans-Oblique-3c9" transform="translate(0 0.015625)"/>
      <use xlink:href="#DejaVuSans-20" transform="translate(83.740234 0.015625)"/>
      <use xlink:href="#DejaVuSans-5b" transform="translate(115.527344 0.015625)"/>
      <use xlink:href="#DejaVuSans-72" transform="translate(154.541016 0.015625)"/>
      <use xlink:href="#DejaVuSans-61" transform="translate(195.654297 0.015625)"/>
      <use xlink:href="#DejaVuSans-64" transform="translate(256.933594 0.015625)"/>
      <use xlink:href="#DejaVuSans-2f" transform="translate(320.410156 0.015625)"/>
      <use xlink:href="#DejaVuSans-73" transform="translate(354.101562 0.015625)"/>
      <use xlink:href="#DejaVuSans-5d" transform="translate(406.201172 0.015625)"/>
     </g>
    </g>
   </g>
   <g id="matplotlib.axis_2">
    <g id="ytick_1">
     <g id="line2d_17">
      <path d="M 76.205625 447.22 
L 690.005625 447.22 
" clip-path="url(#p7bffb38751)" style="fill: none; stroke-dasharray: 2.96,1.28; stroke-dashoffset: 0; stroke: #b0b0b0; stroke-opacity: 0.7; stroke-width: 0.8"/>
     </g>
     <g id="line2d_18">
      <defs>
       <path id="mb88b4f33d0" d="M 0 0 
L -3.5 0 
" style="stroke: #000000; stroke-width: 0.8"/>
      </defs>
      <g>
       <use xlink:href="#mb88b4f33d0" x="76.205625" y="447.22" style="stroke: #000000; stroke-width: 0.8"/>
      </g>
     </g>
     <g id="text_10">
      <!-- 0.00 -->
      <g transform="translate(46.94 451.019219) scale(0.1 -0.1)">
       <defs>
        <path id="DejaVuSans-2e" d="M 684 794 
L 1344 794 
L 1344 0 
L 684 0 
L 684 794 
z
" transform="scale(0.015625)"/>
       </defs>
       <use xlink:href="#DejaVuSans-30"/>
       <use xlink:href="#DejaVuSans-2e" transform="translate(63.623047 0)"/>
       <use xlink:href="#DejaVuSans-30" transform="translate(95.410156 0)"/>
       <use xlink:href="#DejaVuSans-30" transform="translate(159.033203 0)"/>
      </g>
     </g>
    </g>
    <g id="ytick_2">
     <g id="line2d_19">
      <path d="M 76.205625 398.71 
L 690.005625 398.71 
" clip-path="url(#p7bffb38751)" style="fill: none; stroke-dasharray: 2.96,1.28; stroke-dashoffset: 0; stroke: #b0b0b0; stroke-opacity: 0.7; stroke-width: 0.8"/>
     </g>
     <g id="line2d_20">
      <g>
       <use xlink:href="#mb88b4f33d0" x="76.205625" y="398.71" style="stroke: #000000; stroke-width: 0.8"/>
      </g>
     </g>
     <g id="text_11">
      <!-- 0.01 -->
      <g transform="translate(46.94 402.509219) scale(0.1 -0.1)">
       <use xlink:href="#DejaVuSans-30"/>
       <use xlink:href="#DejaVuSans-2e" transform="translate(63.623047 0)"/>
       <use xlink:href="#DejaVuSans-30" transform="translate(95.410156 0)"/>
       <use xlink:href="#DejaVuSans-31" transform="translate(159.033203 0)"/>
      </g>
     </g>
    </g>
    <g id="ytick_3">
     <g id="line2d_21">
      <path d="M 76.205625 350.2 
L 690.005625 350.2 
" clip-path="url(#p7bffb38751)" style="fill: none; stroke-dasharray: 2.96,1.28; stroke-dashoffset: 0; stroke: #b0b0b0; stroke-opacity: 0.7; stroke-width: 0.8"/>
     </g>
     <g id="line2d_22">
      <g>
       <use xlink:href="#mb88b4f33d0" x="76.205625" y="350.2" style="stroke: #000000; stroke-width: 0.8"/>
      </g>
     </g>
     <g id="text_12">
      <!-- 0.02 -->
      <g transform="translate(46.94 353.999219) scale(0.1 -0.1)">
       <use xlink:href="#DejaVuSans-30"/>
       <use xlink:href="#DejaVuSans-2e" transform="translate(63.623047 0)"/>
       <use xlink:href="#DejaVuSans-30" transform="translate(95.410156 0)"/>
       <use xlink:href="#DejaVuSans-32" transform="translate(159.033203 0)"/>
      </g>
     </g>
    </g>
    <g id="ytick_4">
     <g id="line2d_23">
      <path d="M 76.205625 301.69 
L 690.005625 301.69 
" clip-path="url(#p7bffb38751)" style="fill: none; stroke-dasharray: 2.96,1.28; stroke-dashoffset: 0; stroke: #b0b0b0; stroke-opacity: 0.7; stroke-width: 0.8"/>
     </g>
     <g id="line2d_24">
      <g>
       <use xlink:href="#mb88b4f33d0" x="76.205625" y="301.69" style="stroke: #000000; stroke-width: 0.8"/>
      </g>
     </g>
     <g id="text_13">
      <!-- 0.03 -->
      <g transform="translate(46.94 305.489219) scale(0.1 -0.1)">
       <defs>
        <path id="DejaVuSans-33" d="M 2597 2516 
Q 3050 2419 3304 2112 
Q 3559 1806 3559 1356 
Q 3559 666 3084 287 
Q 2609 -91 1734 -91 
Q 1441 -91 1130 -33 
Q 819 25 488 141 
L 488 750 
Q 750 597 1062 519 
Q 1375 441 1716 441 
Q 2309 441 2620 675 
Q 2931 909 2931 1356 
Q 2931 1769 2642 2001 
Q 2353 2234 1838 2234 
L 1294 2234 
L 1294 2753 
L 1863 2753 
Q 2328 2753 2575 2939 
Q 2822 3125 2822 3475 
Q 2822 3834 2567 4026 
Q 2313 4219 1838 4219 
Q 1578 4219 1281 4162 
Q 984 4106 628 3988 
L 628 4550 
Q 988 4650 1302 4700 
Q 1616 4750 1894 4750 
Q 2613 4750 3031 4423 
Q 3450 4097 3450 3541 
Q 3450 3153 3228 2886 
Q 3006 2619 2597 2516 
z
" transform="scale(0.015625)"/>
       </defs>
       <use xlink:href="#DejaVuSans-30"/>
       <use xlink:href="#DejaVuSans-2e" transform="translate(63.623047 0)"/>
       <use xlink:href="#DejaVuSans-30" transform="translate(95.410156 0)"/>
       <use xlink:href="#DejaVuSans-33" transform="translate(159.033203 0)"/>
      </g>
     </g>
    </g>
    <g id="ytick_5">
     <g id="line2d_25">
      <path d="M 76.205625 253.18 
L 690.005625 253.18 
" clip-path="url(#p7bffb38751)" style="fill: none; stroke-dasharray: 2.96,1.28; stroke-dashoffset: 0; stroke: #b0b0b0; stroke-opacity: 0.7; stroke-width: 0.8"/>
     </g>
     <g id="line2d_26">
      <g>
       <use xlink:href="#mb88b4f33d0" x="76.205625" y="253.18" style="stroke: #000000; stroke-width: 0.8"/>
      </g>
     </g>
     <g id="text_14">
      <!-- 0.04 -->
      <g transform="translate(46.94 256.979219) scale(0.1 -0.1)">
       <use xlink:href="#DejaVuSans-30"/>
       <use xlink:href="#DejaVuSans-2e" transform="translate(63.623047 0)"/>
       <use xlink:href="#DejaVuSans-30" transform="translate(95.410156 0)"/>
       <use xlink:href="#DejaVuSans-34" transform="translate(159.033203 0)"/>
      </g>
     </g>
    </g>
    <g id="ytick_6">
     <g id="line2d_27">
      <path d="M 76.205625 204.67 
L 690.005625 204.67 
" clip-path="url(#p7bffb38751)" style="fill: none; stroke-dasharray: 2.96,1.28; stroke-dashoffset: 0; stroke: #b0b0b0; stroke-opacity: 0.7; stroke-width: 0.8"/>
     </g>
     <g id="line2d_28">
      <g>
       <use xlink:href="#mb88b4f33d0" x="76.205625" y="204.67" style="stroke: #000000; stroke-width: 0.8"/>
      </g>
     </g>
     <g id="text_15">
      <!-- 0.05 -->
      <g transform="translate(46.94 208.469219) scale(0.1 -0.1)">
       <defs>
        <path id="DejaVuSans-35" d="M 691 4666 
L 3169 4666 
L 3169 4134 
L 1269 4134 
L 1269 2991 
Q 1406 3038 1543 3061 
Q 1681 3084 1819 3084 
Q 2600 3084 3056 2656 
Q 3513 2228 3513 1497 
Q 3513 744 3044 326 
Q 2575 -91 1722 -91 
Q 1428 -91 1123 -41 
Q 819 9 494 109 
L 494 744 
Q 775 591 1075 516 
Q 1375 441 1709 441 
Q 2250 441 2565 725 
Q 2881 1009 2881 1497 
Q 2881 1984 2565 2268 
Q 2250 2553 1709 2553 
Q 1456 2553 1204 2497 
Q 953 2441 691 2322 
L 691 4666 
z
" transform="scale(0.015625)"/>
       </defs>
       <use xlink:href="#DejaVuSans-30"/>
       <use xlink:href="#DejaVuSans-2e" transform="translate(63.623047 0)"/>
       <use xlink:href="#DejaVuSans-30" transform="translate(95.410156 0)"/>
       <use xlink:href="#DejaVuSans-35" transform="translate(159.033203 0)"/>
      </g>
     </g>
    </g>
    <g id="ytick_7">
     <g id="line2d_29">
      <path d="M 76.205625 156.16 
L 690.005625 156.16 
" clip-path="url(#p7bffb38751)" style="fill: none; stroke-dasharray: 2.96,1.28; stroke-dashoffset: 0; stroke: #b0b0b0; stroke-opacity: 0.7; stroke-width: 0.8"/>
     </g>
     <g id="line2d_30">
      <g>
       <use xlink:href="#mb88b4f33d0" x="76.205625" y="156.16" style="stroke: #000000; stroke-width: 0.8"/>
      </g>
     </g>
     <g id="text_16">
      <!-- 0.06 -->
      <g transform="translate(46.94 159.959219) scale(0.1 -0.1)">
       <use xlink:href="#DejaVuSans-30"/>
       <use xlink:href="#DejaVuSans-2e" transform="translate(63.623047 0)"/>
       <use xlink:href="#DejaVuSans-30" transform="translate(95.410156 0)"/>
       <use xlink:href="#DejaVuSans-36" transform="translate(159.033203 0)"/>
      </g>
     </g>
    </g>
    <g id="ytick_8">
     <g id="line2d_31">
      <path d="M 76.205625 107.65 
L 690.005625 107.65 
" clip-path="url(#p7bffb38751)" style="fill: none; stroke-dasharray: 2.96,1.28; stroke-dashoffset: 0; stroke: #b0b0b0; stroke-opacity: 0.7; stroke-width: 0.8"/>
     </g>
     <g id="line2d_32">
      <g>
       <use xlink:href="#mb88b4f33d0" x="76.205625" y="107.65" style="stroke: #000000; stroke-width: 0.8"/>
      </g>
     </g>
     <g id="text_17">
      <!-- 0.07 -->
      <g transform="translate(46.94 111.449219) scale(0.1 -0.1)">
       <defs>
        <path id="DejaVuSans-37" d="M 525 4666 
L 3525 4666 
L 3525 4397 
L 1831 0 
L 1172 0 
L 2766 4134 
L 525 4134 
L 525 4666 
z
" transform="scale(0.015625)"/>
       </defs>
       <use xlink:href="#DejaVuSans-30"/>
       <use xlink:href="#DejaVuSans-2e" transform="translate(63.623047 0)"/>
       <use xlink:href="#DejaVuSans-30" transform="translate(95.410156 0)"/>
       <use xlink:href="#DejaVuSans-37" transform="translate(159.033203 0)"/>
      </g>
     </g>
    </g>
    <g id="ytick_9">
     <g id="line2d_33">
      <path d="M 76.205625 59.14 
L 690.005625 59.14 
" clip-path="url(#p7bffb38751)" style="fill: none; stroke-dasharray: 2.96,1.28; stroke-dashoffset: 0; stroke: #b0b0b0; stroke-opacity: 0.7; stroke-width: 0.8"/>
     </g>
     <g id="line2d_34">
      <g>
       <use xlink:href="#mb88b4f33d0" x="76.205625" y="59.14" style="stroke: #000000; stroke-width: 0.8"/>
      </g>
     </g>
     <g id="text_18">
      <!-- 0.08 -->
      <g transform="translate(46.94 62.939219) scale(0.1 -0.1)">
       <use xlink:href="#DejaVuSans-30"/>
       <use xlink:href="#DejaVuSans-2e" transform="translate(63.623047 0)"/>
       <use xlink:href="#DejaVuSans-30" transform="translate(95.410156 0)"/>
       <use xlink:href="#DejaVuSans-38" transform="translate(159.033203 0)"/>
      </g>
     </g>
    </g>
    <g id="text_19">
     <!-- $|H| [m/N]$ -->
     <g transform="translate(39.58 283.07) rotate(-90) scale(0.14 -0.14)">
      <defs>
       <path id="DejaVuSans-7c" d="M 1344 4891 
L 1344 -1509 
L 813 -1509 
L 813 4891 
L 1344 4891 
z
" transform="scale(0.015625)"/>
       <path id="DejaVuSans-Oblique-48" d="M 1081 4666 
L 1716 4666 
L 1344 2753 
L 3634 2753 
L 4006 4666 
L 4641 4666 
L 3731 0 
L 3097 0 
L 3531 2222 
L 1241 2222 
L 806 0 
L 172 0 
L 1081 4666 
z
" transform="scale(0.015625)"/>
       <path id="DejaVuSans-Oblique-6d" d="M 5747 2113 
L 5338 0 
L 4763 0 
L 5166 2094 
Q 5191 2228 5203 2325 
Q 5216 2422 5216 2491 
Q 5216 2772 5059 2928 
Q 4903 3084 4622 3084 
Q 4203 3084 3875 2770 
Q 3547 2456 3450 1953 
L 3066 0 
L 2491 0 
L 2900 2094 
Q 2925 2209 2937 2307 
Q 2950 2406 2950 2484 
Q 2950 2769 2794 2926 
Q 2638 3084 2363 3084 
Q 1938 3084 1609 2770 
Q 1281 2456 1184 1953 
L 800 0 
L 225 0 
L 909 3500 
L 1484 3500 
L 1375 2956 
Q 1609 3263 1923 3423 
Q 2238 3584 2597 3584 
Q 2978 3584 3223 3384 
Q 3469 3184 3519 2828 
Q 3781 3197 4126 3390 
Q 4472 3584 4856 3584 
Q 5306 3584 5551 3325 
Q 5797 3066 5797 2591 
Q 5797 2488 5784 2364 
Q 5772 2241 5747 2113 
z
" transform="scale(0.015625)"/>
       <path id="DejaVuSans-Oblique-4e" d="M 1081 4666 
L 1931 4666 
L 3219 666 
L 4000 4666 
L 4616 4666 
L 3706 0 
L 2853 0 
L 1569 4025 
L 788 0 
L 172 0 
L 1081 4666 
z
" transform="scale(0.015625)"/>
      </defs>
      <use xlink:href="#DejaVuSans-7c" transform="translate(0 0.578125)"/>
      <use xlink:href="#DejaVuSans-Oblique-48" transform="translate(33.691406 0.578125)"/>
      <use xlink:href="#DejaVuSans-7c" transform="translate(108.886719 0.578125)"/>
      <use xlink:href="#DejaVuSans-5b" transform="translate(142.578125 0.578125)"/>
      <use xlink:href="#DejaVuSans-Oblique-6d" transform="translate(181.591797 0.578125)"/>
      <use xlink:href="#DejaVuSans-2f" transform="translate(279.003906 0.578125)"/>
      <use xlink:href="#DejaVuSans-Oblique-4e" transform="translate(312.695312 0.578125)"/>
      <use xlink:href="#DejaVuSans-5d" transform="translate(387.5 0.578125)"/>
     </g>
    </g>
   </g>
   <g id="line2d_35">
    <path d="M 76.205625 371.423125 
L 89.095425 371.309117 
L 101.985225 370.965094 
L 114.261225 370.418091 
L 126.537225 369.648066 
L 138.199425 368.69833 
L 149.861625 367.521059 
L 160.910025 366.178796 
L 171.344625 364.689957 
L 181.165425 363.073531 
L 190.986225 361.227077 
L 200.193225 359.264732 
L 208.786425 357.208957 
L 216.765825 355.084832 
L 224.745225 352.73047 
L 232.110825 350.330147 
L 239.476425 347.687065 
L 246.228225 345.027024 
L 252.980025 342.114261 
L 259.118025 339.222618 
L 265.256025 336.073008 
L 270.780225 332.994056 
L 276.304425 329.658878 
L 281.828625 326.040261 
L 286.739025 322.560851 
L 291.649425 318.808589 
L 296.559825 314.755985 
L 300.856425 310.93946 
L 305.153025 306.84656 
L 309.449625 302.452086 
L 313.746225 297.728424 
L 318.042825 292.645481 
L 322.339425 287.170734 
L 326.022225 282.139977 
L 329.705025 276.772992 
L 333.387825 271.046391 
L 337.070625 264.936948 
L 340.753425 258.422616 
L 344.436225 251.48401 
L 348.119025 244.10655 
L 351.801825 236.283452 
L 356.098425 226.60099 
L 360.395025 216.35858 
L 365.305425 204.081487 
L 379.422825 168.212576 
L 382.491825 161.222062 
L 384.947025 156.137625 
L 387.402225 151.635331 
L 389.243625 148.714165 
L 391.085025 146.238991 
L 392.926425 144.256171 
L 394.154025 143.228385 
L 395.381625 142.448332 
L 396.609225 141.924902 
L 397.836825 141.665172 
L 399.064425 141.67425 
L 400.292025 141.95515 
L 401.519625 142.508708 
L 402.747225 143.333555 
L 403.974825 144.426132 
L 405.202425 145.780753 
L 406.430025 147.389723 
L 408.271425 150.258715 
L 410.112825 153.639032 
L 411.954225 157.484859 
L 414.409425 163.248643 
L 416.864625 169.621857 
L 419.933625 178.248127 
L 424.230225 191.127213 
L 438.347625 234.166476 
L 442.644225 246.303453 
L 446.940825 257.72651 
L 450.623625 266.917444 
L 454.306425 275.551544 
L 457.989225 283.641455 
L 461.672025 291.209053 
L 465.354825 298.281671 
L 469.037625 304.88943 
L 472.720425 311.06341 
L 476.403225 316.834431 
L 480.086025 322.232279 
L 483.768825 327.285243 
L 488.065425 332.779767 
L 492.362025 337.879842 
L 496.658625 342.620955 
L 500.955225 347.035274 
L 505.251825 351.15185 
L 510.162225 355.525388 
L 515.072625 359.579074 
L 519.983025 363.343863 
L 524.893425 366.847199 
L 530.417625 370.506144 
L 535.941825 373.895522 
L 541.466025 377.042165 
L 547.604025 380.282338 
L 553.742025 383.280218 
L 560.493825 386.327414 
L 567.245625 389.139809 
L 574.611225 391.969061 
L 582.590625 394.783999 
L 590.570025 397.368231 
L 599.163225 399.922861 
L 608.370225 402.427665 
L 618.191025 404.866303 
L 628.625625 407.226032 
L 639.674025 409.497347 
L 651.336225 411.673584 
L 664.226025 413.849124 
L 677.729625 415.904142 
L 690.005625 417.599404 
L 690.005625 417.599404 
" clip-path="url(#p7bffb38751)" style="fill: none; stroke-dasharray: 5.55,2.4; stroke-dashoffset: 0; stroke: #0000ff; stroke-width: 1.5"/>
   </g>
   <g id="line2d_36">
    <path d="M 76.205625 371.423125 
L 89.095425 371.30884 
L 101.985225 370.963971 
L 114.261225 370.415591 
L 126.537225 369.64356 
L 138.199425 368.691239 
L 149.861625 367.510592 
L 160.910025 366.16424 
L 171.344625 364.670562 
L 181.165425 363.048509 
L 190.986225 361.195136 
L 200.193225 359.224847 
L 208.786425 357.160071 
L 216.765825 355.025893 
L 224.745225 352.659462 
L 232.110825 350.245794 
L 239.476425 347.586752 
L 246.228225 344.909261 
L 252.366225 342.253745 
L 258.504225 339.364417 
L 264.642225 336.215762 
L 270.166425 333.13609 
L 275.690625 329.798192 
L 280.601025 326.591956 
L 285.511425 323.137588 
L 290.421825 319.410169 
L 295.332225 315.381634 
L 299.628825 311.584903 
L 303.925425 307.509836 
L 308.222025 303.130234 
L 312.518625 298.417142 
L 316.815225 293.338679 
L 320.498025 288.668529 
L 324.180825 283.680612 
L 327.863625 278.349682 
L 331.546425 272.649225 
L 335.229225 266.551898 
L 338.912025 260.030254 
L 342.594825 253.057882 
L 346.277625 245.611114 
L 349.960425 237.671545 
L 353.643225 229.229613 
L 357.326025 220.289588 
L 361.622625 209.2647 
L 366.533025 195.998236 
L 381.264225 155.522663 
L 384.333225 148.125013 
L 386.788425 142.834909 
L 388.629825 139.327143 
L 390.471225 136.28015 
L 392.312625 133.751215 
L 393.540225 132.379214 
L 394.767825 131.274739 
L 395.995425 130.449913 
L 397.223025 129.91487 
L 398.450625 129.677509 
L 399.678225 129.743305 
L 400.905825 130.115156 
L 402.133425 130.793304 
L 403.361025 131.775307 
L 404.588625 133.056086 
L 405.816225 134.628029 
L 407.043825 136.481152 
L 408.885225 139.760975 
L 410.726625 143.597045 
L 412.568025 147.933351 
L 415.023225 154.387418 
L 417.478425 161.471326 
L 420.547425 170.98388 
L 425.457825 187.091423 
L 435.278625 219.525223 
L 439.575225 232.915967 
L 443.871825 245.545928 
L 447.554625 255.709722 
L 451.237425 265.249028 
L 454.920225 274.1728 
L 458.603025 282.503248 
L 462.285825 290.270529 
L 465.968625 297.508996 
L 469.651425 304.254643 
L 473.334225 310.543421 
L 477.017025 316.41017 
L 480.699825 321.887978 
L 484.382625 327.007846 
L 488.679225 332.566869 
L 492.975825 337.719542 
L 497.272425 342.503628 
L 501.569025 346.953107 
L 505.865625 351.098483 
L 510.162225 354.967102 
L 515.072625 359.080811 
L 519.983025 362.897506 
L 524.893425 366.445926 
L 530.417625 370.148751 
L 535.941825 373.575944 
L 541.466025 376.755333 
L 547.604025 380.026921 
L 553.742025 383.051854 
L 560.493825 386.124624 
L 567.245625 388.958957 
L 574.611225 391.808717 
L 582.590625 394.642554 
L 590.570025 397.242859 
L 599.163225 399.812214 
L 608.370225 402.330369 
L 618.191025 404.781005 
L 628.625625 407.151436 
L 639.674025 409.432237 
L 651.336225 411.616837 
L 664.226025 413.800053 
L 677.729625 415.861714 
L 690.005625 417.562024 
L 690.005625 417.562024 
" clip-path="url(#p7bffb38751)" style="fill: none; stroke: #ff00ff; stroke-width: 2; stroke-linecap: square"/>
   </g>
   <g id="patch_3">
    <path d="M 76.205625 447.22 
L 76.205625 59.14 
" style="fill: none; stroke: #000000; stroke-width: 0.8; stroke-linejoin: miter; stroke-linecap: square"/>
   </g>
   <g id="patch_4">
    <path d="M 690.005625 447.22 
L 690.005625 59.14 
" style="fill: none; stroke: #000000; stroke-width: 0.8; stroke-linejoin: miter; stroke-linecap: square"/>
   </g>
   <g id="patch_5">
    <path d="M 76.205625 447.22 
L 690.005625 447.22 
" style="fill: none; stroke: #000000; stroke-width: 0.8; stroke-linejoin: miter; stroke-linecap: square"/>
   </g>
   <g id="patch_6">
    <path d="M 76.205625 59.14 
L 690.005625 59.14 
" style="fill: none; stroke: #000000; stroke-width: 0.8; stroke-linejoin: miter; stroke-linecap: square"/>
   </g>
   <g id="text_20">
    <!-- Identified model with $\hat{\zeta}$ -->
    <g transform="translate(266.195625 49.14) scale(0.18 -0.18)">
     <defs>
      <path id="DejaVuSans-Bold-49" d="M 588 4666 
L 1791 4666 
L 1791 0 
L 588 0 
L 588 4666 
z
" transform="scale(0.015625)"/>
      <path id="DejaVuSans-Bold-64" d="M 2919 2988 
L 2919 4863 
L 4044 4863 
L 4044 0 
L 2919 0 
L 2919 506 
Q 2688 197 2409 53 
Q 2131 -91 1766 -91 
Q 1119 -91 703 423 
Q 288 938 288 1747 
Q 288 2556 703 3070 
Q 1119 3584 1766 3584 
Q 2128 3584 2408 3439 
Q 2688 3294 2919 2988 
z
M 2181 722 
Q 2541 722 2730 984 
Q 2919 1247 2919 1747 
Q 2919 2247 2730 2509 
Q 2541 2772 2181 2772 
Q 1825 2772 1636 2509 
Q 1447 2247 1447 1747 
Q 1447 1247 1636 984 
Q 1825 722 2181 722 
z
" transform="scale(0.015625)"/>
      <path id="DejaVuSans-Bold-65" d="M 4031 1759 
L 4031 1441 
L 1416 1441 
Q 1456 1047 1700 850 
Q 1944 653 2381 653 
Q 2734 653 3104 758 
Q 3475 863 3866 1075 
L 3866 213 
Q 3469 63 3072 -14 
Q 2675 -91 2278 -91 
Q 1328 -91 801 392 
Q 275 875 275 1747 
Q 275 2603 792 3093 
Q 1309 3584 2216 3584 
Q 3041 3584 3536 3087 
Q 4031 2591 4031 1759 
z
M 2881 2131 
Q 2881 2450 2695 2645 
Q 2509 2841 2209 2841 
Q 1884 2841 1681 2658 
Q 1478 2475 1428 2131 
L 2881 2131 
z
" transform="scale(0.015625)"/>
      <path id="DejaVuSans-Bold-6e" d="M 4056 2131 
L 4056 0 
L 2931 0 
L 2931 347 
L 2931 1631 
Q 2931 2084 2911 2256 
Q 2891 2428 2841 2509 
Q 2775 2619 2662 2680 
Q 2550 2741 2406 2741 
Q 2056 2741 1856 2470 
Q 1656 2200 1656 1722 
L 1656 0 
L 538 0 
L 538 3500 
L 1656 3500 
L 1656 2988 
Q 1909 3294 2193 3439 
Q 2478 3584 2822 3584 
Q 3428 3584 3742 3212 
Q 4056 2841 4056 2131 
z
" transform="scale(0.015625)"/>
      <path id="DejaVuSans-Bold-74" d="M 1759 4494 
L 1759 3500 
L 2913 3500 
L 2913 2700 
L 1759 2700 
L 1759 1216 
Q 1759 972 1856 886 
Q 1953 800 2241 800 
L 2816 800 
L 2816 0 
L 1856 0 
Q 1194 0 917 276 
Q 641 553 641 1216 
L 641 2700 
L 84 2700 
L 84 3500 
L 641 3500 
L 641 4494 
L 1759 4494 
z
" transform="scale(0.015625)"/>
      <path id="DejaVuSans-Bold-69" d="M 538 3500 
L 1656 3500 
L 1656 0 
L 538 0 
L 538 3500 
z
M 538 4863 
L 1656 4863 
L 1656 3950 
L 538 3950 
L 538 4863 
z
" transform="scale(0.015625)"/>
      <path id="DejaVuSans-Bold-66" d="M 2841 4863 
L 2841 4128 
L 2222 4128 
Q 1984 4128 1890 4042 
Q 1797 3956 1797 3744 
L 1797 3500 
L 2753 3500 
L 2753 2700 
L 1797 2700 
L 1797 0 
L 678 0 
L 678 2700 
L 122 2700 
L 122 3500 
L 678 3500 
L 678 3744 
Q 678 4316 997 4589 
Q 1316 4863 1984 4863 
L 2841 4863 
z
" transform="scale(0.015625)"/>
      <path id="DejaVuSans-Bold-20" transform="scale(0.015625)"/>
      <path id="DejaVuSans-Bold-6d" d="M 3781 2919 
Q 3994 3244 4286 3414 
Q 4578 3584 4928 3584 
Q 5531 3584 5847 3212 
Q 6163 2841 6163 2131 
L 6163 0 
L 5038 0 
L 5038 1825 
Q 5041 1866 5042 1909 
Q 5044 1953 5044 2034 
Q 5044 2406 4934 2573 
Q 4825 2741 4581 2741 
Q 4263 2741 4089 2478 
Q 3916 2216 3909 1719 
L 3909 0 
L 2784 0 
L 2784 1825 
Q 2784 2406 2684 2573 
Q 2584 2741 2328 2741 
Q 2006 2741 1831 2477 
Q 1656 2213 1656 1722 
L 1656 0 
L 531 0 
L 531 3500 
L 1656 3500 
L 1656 2988 
Q 1863 3284 2130 3434 
Q 2397 3584 2719 3584 
Q 3081 3584 3359 3409 
Q 3638 3234 3781 2919 
z
" transform="scale(0.015625)"/>
      <path id="DejaVuSans-Bold-6f" d="M 2203 2784 
Q 1831 2784 1636 2517 
Q 1441 2250 1441 1747 
Q 1441 1244 1636 976 
Q 1831 709 2203 709 
Q 2569 709 2762 976 
Q 2956 1244 2956 1747 
Q 2956 2250 2762 2517 
Q 2569 2784 2203 2784 
z
M 2203 3584 
Q 3106 3584 3614 3096 
Q 4122 2609 4122 1747 
Q 4122 884 3614 396 
Q 3106 -91 2203 -91 
Q 1297 -91 786 396 
Q 275 884 275 1747 
Q 275 2609 786 3096 
Q 1297 3584 2203 3584 
z
" transform="scale(0.015625)"/>
      <path id="DejaVuSans-Bold-6c" d="M 538 4863 
L 1656 4863 
L 1656 0 
L 538 0 
L 538 4863 
z
" transform="scale(0.015625)"/>
      <path id="DejaVuSans-Bold-77" d="M 225 3500 
L 1313 3500 
L 1900 1088 
L 2491 3500 
L 3425 3500 
L 4013 1113 
L 4603 3500 
L 5691 3500 
L 4769 0 
L 3547 0 
L 2956 2406 
L 2369 0 
L 1147 0 
L 225 3500 
z
" transform="scale(0.015625)"/>
      <path id="DejaVuSans-Bold-68" d="M 4056 2131 
L 4056 0 
L 2931 0 
L 2931 347 
L 2931 1625 
Q 2931 2084 2911 2256 
Q 2891 2428 2841 2509 
Q 2775 2619 2662 2680 
Q 2550 2741 2406 2741 
Q 2056 2741 1856 2470 
Q 1656 2200 1656 1722 
L 1656 0 
L 538 0 
L 538 4863 
L 1656 4863 
L 1656 2988 
Q 1909 3294 2193 3439 
Q 2478 3584 2822 3584 
Q 3428 3584 3742 3212 
Q 4056 2841 4056 2131 
z
" transform="scale(0.015625)"/>
      <path id="DejaVuSans-302" d="M -1831 5119 
L -1369 5119 
L -603 3944 
L -1038 3944 
L -1600 4709 
L -2163 3944 
L -2597 3944 
L -1831 5119 
z
M -1600 3584 
L -1600 3584 
z
" transform="scale(0.015625)"/>
      <path id="DejaVuSans-Oblique-3b6" d="M 1966 397 
Q 2378 394 2578 159 
Q 2794 -88 2722 -463 
Q 2650 -822 2372 -1072 
Q 2069 -1344 1559 -1344 
Q 1606 -1109 1650 -872 
Q 1863 -888 2022 -750 
Q 2144 -641 2166 -525 
Q 2197 -359 2125 -222 
Q 2050 -91 1872 -91 
Q -22 -91 316 1669 
Q 616 3206 2609 4284 
L 947 4284 
L 1059 4863 
L 3778 4863 
L 3666 4284 
Q 1181 3147 894 1669 
Q 647 397 1966 397 
z
" transform="scale(0.015625)"/>
     </defs>
     <use xlink:href="#DejaVuSans-Bold-49" transform="translate(0 0.53125)"/>
     <use xlink:href="#DejaVuSans-Bold-64" transform="translate(37.207031 0.53125)"/>
     <use xlink:href="#DejaVuSans-Bold-65" transform="translate(108.789062 0.53125)"/>
     <use xlink:href="#DejaVuSans-Bold-6e" transform="translate(176.611328 0.53125)"/>
     <use xlink:href="#DejaVuSans-Bold-74" transform="translate(247.802734 0.53125)"/>
     <use xlink:href="#DejaVuSans-Bold-69" transform="translate(295.605469 0.53125)"/>
     <use xlink:href="#DejaVuSans-Bold-66" transform="translate(329.882812 0.53125)"/>
     <use xlink:href="#DejaVuSans-Bold-69" transform="translate(373.388672 0.53125)"/>
     <use xlink:href="#DejaVuSans-Bold-65" transform="translate(407.666016 0.53125)"/>
     <use xlink:href="#DejaVuSans-Bold-64" transform="translate(475.488281 0.53125)"/>
     <use xlink:href="#DejaVuSans-Bold-20" transform="translate(547.070312 0.53125)"/>
     <use xlink:href="#DejaVuSans-Bold-6d" transform="translate(581.884766 0.53125)"/>
     <use xlink:href="#DejaVuSans-Bold-6f" transform="translate(686.083984 0.53125)"/>
     <use xlink:href="#DejaVuSans-Bold-64" transform="translate(754.785156 0.53125)"/>
     <use xlink:href="#DejaVuSans-Bold-65" transform="translate(826.367188 0.53125)"/>
     <use xlink:href="#DejaVuSans-Bold-6c" transform="translate(894.189453 0.53125)"/>
     <use xlink:href="#DejaVuSans-Bold-20" transform="translate(928.466797 0.53125)"/>
     <use xlink:href="#DejaVuSans-Bold-77" transform="translate(963.28125 0.53125)"/>
     <use xlink:href="#DejaVuSans-Bold-69" transform="translate(1055.664062 0.53125)"/>
     <use xlink:href="#DejaVuSans-Bold-74" transform="translate(1089.941406 0.53125)"/>
     <use xlink:href="#DejaVuSans-Bold-68" transform="translate(1137.744141 0.53125)"/>
     <use xlink:href="#DejaVuSans-Bold-20" transform="translate(1208.935547 0.53125)"/>
     <use xlink:href="#DejaVuSans-302" transform="translate(1302.926758 33.015625)"/>
     <use xlink:href="#DejaVuSans-Oblique-3b6" transform="translate(1243.75 0.53125)"/>
    </g>
   </g>
   <g id="legend_1">
    <g id="patch_7">
     <path d="M 491.645625 126.07375 
L 681.605625 126.07375 
Q 684.005625 126.07375 684.005625 123.67375 
L 684.005625 67.54 
Q 684.005625 65.14 681.605625 65.14 
L 491.645625 65.14 
Q 489.245625 65.14 489.245625 67.54 
L 489.245625 123.67375 
Q 489.245625 126.07375 491.645625 126.07375 
z
" style="fill: #ffffff; opacity: 0.8; stroke: #cccccc; stroke-linejoin: miter"/>
    </g>
    <g id="PathCollection_2">
     <path d="M 506.045625 78.908125 
C 506.841234 78.908125 507.604365 78.592026 508.166945 78.029445 
C 508.729526 77.466865 509.045625 76.703734 509.045625 75.908125 
C 509.045625 75.112516 508.729526 74.349385 508.166945 73.786805 
C 507.604365 73.224224 506.841234 72.908125 506.045625 72.908125 
C 505.250016 72.908125 504.486885 73.224224 503.924305 73.786805 
C 503.361724 74.349385 503.045625 75.112516 503.045625 75.908125 
C 503.045625 76.703734 503.361724 77.466865 503.924305 78.029445 
C 504.486885 78.592026 505.250016 78.908125 506.045625 78.908125 
L 506.045625 78.908125 
z
" style="fill: none; stroke: #ff0000; stroke-width: 1.5"/>
    </g>
    <g id="text_21">
     <!-- Measurements -->
     <g transform="translate(527.645625 79.058125) scale(0.12 -0.12)">
      <defs>
       <path id="DejaVuSans-4d" d="M 628 4666 
L 1569 4666 
L 2759 1491 
L 3956 4666 
L 4897 4666 
L 4897 0 
L 4281 0 
L 4281 4097 
L 3078 897 
L 2444 897 
L 1241 4097 
L 1241 0 
L 628 0 
L 628 4666 
z
" transform="scale(0.015625)"/>
       <path id="DejaVuSans-65" d="M 3597 1894 
L 3597 1613 
L 953 1613 
Q 991 1019 1311 708 
Q 1631 397 2203 397 
Q 2534 397 2845 478 
Q 3156 559 3463 722 
L 3463 178 
Q 3153 47 2828 -22 
Q 2503 -91 2169 -91 
Q 1331 -91 842 396 
Q 353 884 353 1716 
Q 353 2575 817 3079 
Q 1281 3584 2069 3584 
Q 2775 3584 3186 3129 
Q 3597 2675 3597 1894 
z
M 3022 2063 
Q 3016 2534 2758 2815 
Q 2500 3097 2075 3097 
Q 1594 3097 1305 2825 
Q 1016 2553 972 2059 
L 3022 2063 
z
" transform="scale(0.015625)"/>
       <path id="DejaVuSans-75" d="M 544 1381 
L 544 3500 
L 1119 3500 
L 1119 1403 
Q 1119 906 1312 657 
Q 1506 409 1894 409 
Q 2359 409 2629 706 
Q 2900 1003 2900 1516 
L 2900 3500 
L 3475 3500 
L 3475 0 
L 2900 0 
L 2900 538 
Q 2691 219 2414 64 
Q 2138 -91 1772 -91 
Q 1169 -91 856 284 
Q 544 659 544 1381 
z
M 1991 3584 
L 1991 3584 
z
" transform="scale(0.015625)"/>
       <path id="DejaVuSans-6d" d="M 3328 2828 
Q 3544 3216 3844 3400 
Q 4144 3584 4550 3584 
Q 5097 3584 5394 3201 
Q 5691 2819 5691 2113 
L 5691 0 
L 5113 0 
L 5113 2094 
Q 5113 2597 4934 2840 
Q 4756 3084 4391 3084 
Q 3944 3084 3684 2787 
Q 3425 2491 3425 1978 
L 3425 0 
L 2847 0 
L 2847 2094 
Q 2847 2600 2669 2842 
Q 2491 3084 2119 3084 
Q 1678 3084 1418 2786 
Q 1159 2488 1159 1978 
L 1159 0 
L 581 0 
L 581 3500 
L 1159 3500 
L 1159 2956 
Q 1356 3278 1631 3431 
Q 1906 3584 2284 3584 
Q 2666 3584 2933 3390 
Q 3200 3197 3328 2828 
z
" transform="scale(0.015625)"/>
       <path id="DejaVuSans-6e" d="M 3513 2113 
L 3513 0 
L 2938 0 
L 2938 2094 
Q 2938 2591 2744 2837 
Q 2550 3084 2163 3084 
Q 1697 3084 1428 2787 
Q 1159 2491 1159 1978 
L 1159 0 
L 581 0 
L 581 3500 
L 1159 3500 
L 1159 2956 
Q 1366 3272 1645 3428 
Q 1925 3584 2291 3584 
Q 2894 3584 3203 3211 
Q 3513 2838 3513 2113 
z
" transform="scale(0.015625)"/>
       <path id="DejaVuSans-74" d="M 1172 4494 
L 1172 3500 
L 2356 3500 
L 2356 3053 
L 1172 3053 
L 1172 1153 
Q 1172 725 1289 603 
Q 1406 481 1766 481 
L 2356 481 
L 2356 0 
L 1766 0 
Q 1100 0 847 248 
Q 594 497 594 1153 
L 594 3053 
L 172 3053 
L 172 3500 
L 594 3500 
L 594 4494 
L 1172 4494 
z
" transform="scale(0.015625)"/>
      </defs>
      <use xlink:href="#DejaVuSans-4d"/>
      <use xlink:href="#DejaVuSans-65" transform="translate(86.279297 0)"/>
      <use xlink:href="#DejaVuSans-61" transform="translate(147.802734 0)"/>
      <use xlink:href="#DejaVuSans-73" transform="translate(209.082031 0)"/>
      <use xlink:href="#DejaVuSans-75" transform="translate(261.181641 0)"/>
      <use xlink:href="#DejaVuSans-72" transform="translate(324.560547 0)"/>
      <use xlink:href="#DejaVuSans-65" transform="translate(363.423828 0)"/>
      <use xlink:href="#DejaVuSans-6d" transform="translate(424.947266 0)"/>
      <use xlink:href="#DejaVuSans-65" transform="translate(522.359375 0)"/>
      <use xlink:href="#DejaVuSans-6e" transform="translate(583.882812 0)"/>
      <use xlink:href="#DejaVuSans-74" transform="translate(647.261719 0)"/>
      <use xlink:href="#DejaVuSans-73" transform="translate(686.470703 0)"/>
     </g>
    </g>
    <g id="line2d_37">
     <path d="M 494.045625 92.47375 
L 506.045625 92.47375 
L 518.045625 92.47375 
" style="fill: none; stroke-dasharray: 5.55,2.4; stroke-dashoffset: 0; stroke: #0000ff; stroke-width: 1.5"/>
    </g>
    <g id="text_22">
     <!-- True FRF ($\zeta = 0.125)$ -->
     <g transform="translate(527.645625 96.67375) scale(0.12 -0.12)">
      <defs>
       <path id="DejaVuSans-54" d="M -19 4666 
L 3928 4666 
L 3928 4134 
L 2272 4134 
L 2272 0 
L 1638 0 
L 1638 4134 
L -19 4134 
L -19 4666 
z
" transform="scale(0.015625)"/>
       <path id="DejaVuSans-46" d="M 628 4666 
L 3309 4666 
L 3309 4134 
L 1259 4134 
L 1259 2759 
L 3109 2759 
L 3109 2228 
L 1259 2228 
L 1259 0 
L 628 0 
L 628 4666 
z
" transform="scale(0.015625)"/>
       <path id="DejaVuSans-52" d="M 2841 2188 
Q 3044 2119 3236 1894 
Q 3428 1669 3622 1275 
L 4263 0 
L 3584 0 
L 2988 1197 
Q 2756 1666 2539 1819 
Q 2322 1972 1947 1972 
L 1259 1972 
L 1259 0 
L 628 0 
L 628 4666 
L 2053 4666 
Q 2853 4666 3247 4331 
Q 3641 3997 3641 3322 
Q 3641 2881 3436 2590 
Q 3231 2300 2841 2188 
z
M 1259 4147 
L 1259 2491 
L 2053 2491 
Q 2509 2491 2742 2702 
Q 2975 2913 2975 3322 
Q 2975 3731 2742 3939 
Q 2509 4147 2053 4147 
L 1259 4147 
z
" transform="scale(0.015625)"/>
       <path id="DejaVuSans-28" d="M 1984 4856 
Q 1566 4138 1362 3434 
Q 1159 2731 1159 2009 
Q 1159 1288 1364 580 
Q 1569 -128 1984 -844 
L 1484 -844 
Q 1016 -109 783 600 
Q 550 1309 550 2009 
Q 550 2706 781 3412 
Q 1013 4119 1484 4856 
L 1984 4856 
z
" transform="scale(0.015625)"/>
       <path id="DejaVuSans-3d" d="M 678 2906 
L 4684 2906 
L 4684 2381 
L 678 2381 
L 678 2906 
z
M 678 1631 
L 4684 1631 
L 4684 1100 
L 678 1100 
L 678 1631 
z
" transform="scale(0.015625)"/>
       <path id="DejaVuSans-29" d="M 513 4856 
L 1013 4856 
Q 1481 4119 1714 3412 
Q 1947 2706 1947 2009 
Q 1947 1309 1714 600 
Q 1481 -109 1013 -844 
L 513 -844 
Q 928 -128 1133 580 
Q 1338 1288 1338 2009 
Q 1338 2731 1133 3434 
Q 928 4138 513 4856 
z
" transform="scale(0.015625)"/>
      </defs>
      <use xlink:href="#DejaVuSans-54" transform="translate(0 0.015625)"/>
      <use xlink:href="#DejaVuSans-72" transform="translate(61.083984 0.015625)"/>
      <use xlink:href="#DejaVuSans-75" transform="translate(102.197266 0.015625)"/>
      <use xlink:href="#DejaVuSans-65" transform="translate(165.576172 0.015625)"/>
      <use xlink:href="#DejaVuSans-20" transform="translate(227.099609 0.015625)"/>
      <use xlink:href="#DejaVuSans-46" transform="translate(258.886719 0.015625)"/>
      <use xlink:href="#DejaVuSans-52" transform="translate(316.40625 0.015625)"/>
      <use xlink:href="#DejaVuSans-46" transform="translate(385.888672 0.015625)"/>
      <use xlink:href="#DejaVuSans-20" transform="translate(443.408203 0.015625)"/>
      <use xlink:href="#DejaVuSans-28" transform="translate(475.195312 0.015625)"/>
      <use xlink:href="#DejaVuSans-Oblique-3b6" transform="translate(514.208984 0.015625)"/>
      <use xlink:href="#DejaVuSans-3d" transform="translate(588.085938 0.015625)"/>
      <use xlink:href="#DejaVuSans-30" transform="translate(691.357422 0.015625)"/>
      <use xlink:href="#DejaVuSans-2e" transform="translate(754.980469 0.015625)"/>
      <use xlink:href="#DejaVuSans-31" transform="translate(786.767578 0.015625)"/>
      <use xlink:href="#DejaVuSans-32" transform="translate(850.390625 0.015625)"/>
      <use xlink:href="#DejaVuSans-35" transform="translate(914.013672 0.015625)"/>
      <use xlink:href="#DejaVuSans-29" transform="translate(977.636719 0.015625)"/>
     </g>
    </g>
    <g id="line2d_38">
     <path d="M 494.045625 114.55375 
L 506.045625 114.55375 
L 518.045625 114.55375 
" style="fill: none; stroke: #ff00ff; stroke-width: 2; stroke-linecap: square"/>
    </g>
    <g id="text_23">
     <!-- Identified FRF ($\hat{\zeta} = 0.120)$ -->
     <g transform="translate(527.645625 118.75375) scale(0.12 -0.12)">
      <defs>
       <path id="DejaVuSans-49" d="M 628 4666 
L 1259 4666 
L 1259 0 
L 628 0 
L 628 4666 
z
" transform="scale(0.015625)"/>
       <path id="DejaVuSans-69" d="M 603 3500 
L 1178 3500 
L 1178 0 
L 603 0 
L 603 3500 
z
M 603 4863 
L 1178 4863 
L 1178 4134 
L 603 4134 
L 603 4863 
z
" transform="scale(0.015625)"/>
       <path id="DejaVuSans-66" d="M 2375 4863 
L 2375 4384 
L 1825 4384 
Q 1516 4384 1395 4259 
Q 1275 4134 1275 3809 
L 1275 3500 
L 2222 3500 
L 2222 3053 
L 1275 3053 
L 1275 0 
L 697 0 
L 697 3053 
L 147 3053 
L 147 3500 
L 697 3500 
L 697 3744 
Q 697 4328 969 4595 
Q 1241 4863 1831 4863 
L 2375 4863 
z
" transform="scale(0.015625)"/>
      </defs>
      <use xlink:href="#DejaVuSans-49" transform="translate(0 0.53125)"/>
      <use xlink:href="#DejaVuSans-64" transform="translate(29.492188 0.53125)"/>
      <use xlink:href="#DejaVuSans-65" transform="translate(92.96875 0.53125)"/>
      <use xlink:href="#DejaVuSans-6e" transform="translate(154.492188 0.53125)"/>
      <use xlink:href="#DejaVuSans-74" transform="translate(217.871094 0.53125)"/>
      <use xlink:href="#DejaVuSans-69" transform="translate(257.080078 0.53125)"/>
      <use xlink:href="#DejaVuSans-66" transform="translate(284.863281 0.53125)"/>
      <use xlink:href="#DejaVuSans-69" transform="translate(320.068359 0.53125)"/>
      <use xlink:href="#DejaVuSans-65" transform="translate(347.851562 0.53125)"/>
      <use xlink:href="#DejaVuSans-64" transform="translate(409.375 0.53125)"/>
      <use xlink:href="#DejaVuSans-20" transform="translate(472.851562 0.53125)"/>
      <use xlink:href="#DejaVuSans-46" transform="translate(504.638672 0.53125)"/>
      <use xlink:href="#DejaVuSans-52" transform="translate(562.158203 0.53125)"/>
      <use xlink:href="#DejaVuSans-46" transform="translate(631.640625 0.53125)"/>
      <use xlink:href="#DejaVuSans-20" transform="translate(689.160156 0.53125)"/>
      <use xlink:href="#DejaVuSans-28" transform="translate(720.947266 0.53125)"/>
      <use xlink:href="#DejaVuSans-302" transform="translate(819.137695 33.015625)"/>
      <use xlink:href="#DejaVuSans-Oblique-3b6" transform="translate(759.960938 0.53125)"/>
      <use xlink:href="#DejaVuSans-3d" transform="translate(833.837891 0.53125)"/>
      <use xlink:href="#DejaVuSans-30" transform="translate(937.109375 0.53125)"/>
      <use xlink:href="#DejaVuSans-2e" transform="translate(1000.732422 0.53125)"/>
      <use xlink:href="#DejaVuSans-31" transform="translate(1032.519531 0.53125)"/>
      <use xlink:href="#DejaVuSans-32" transform="translate(1096.142578 0.53125)"/>
      <use xlink:href="#DejaVuSans-30" transform="translate(1159.765625 0.53125)"/>
      <use xlink:href="#DejaVuSans-29" transform="translate(1223.388672 0.53125)"/>
     </g>
    </g>
   </g>
  </g>
 </g>
 <defs>
  <clipPath id="p7bffb38751">
   <rect x="76.205625" y="59.14" width="613.8" height="388.08"/>
  </clipPath>
 </defs>
</svg>
